<svg xmlns="http://www.w3.org/2000/svg" width="847" height="907"><path fill="#010101" d="m441 0 2 1v7l1.977-.14c5.933-.246 9.382.051 14.023 4.14 2.51 2.576 3.844 4.064 4.438 7.625-.519 2.814-1.16 3.688-3.438 5.375-4.663 1.554-8.488 1.544-13.125-.125-3.464-2.259-5.39-4.587-7.875-7.875-2.335 2.034-3.819 3.496-4.875 6.438-.147 3.014.568 4.87 1.875 7.562l3.563-1c11.617-2.525 23.514-2.082 33.703 4.453C475 36 475 36 475.562 38.937 475 42 475 42 472.938 44.25 466.346 48.178 459.52 48.835 452 48c-5.704-1.502-10.302-3.459-15-7-3.077 0-4.035 1.032-6.312 3.125-2.192 3.733-1.446 5.72-.688 9.875l2.184-.437c21.75-3.76 45.65-3.84 64.816 8.437 2.51 1.963 3.413 3.12 5 6 .14 4.048-.219 6.057-2.812 9.188-12.622 7.176-28.023 8.033-42.176 5.117C446.23 79.232 437.024 73.772 429 66c-12.344 4.675-24.264 10.226-31.187 22.023-1.345 3.272-.697 5.618.187 8.977 2.333 2.834 2.333 2.834 5 5l2 2c6.573-.409 12.58-2.187 18.85-4.096 11.689-3.417 23.262-4.268 35.4-4.216l2.059.005c10.537.048 20.47.618 30.691 3.307l2.11.552c9.218 2.473 17.35 5.24 24.452 11.823C520 114 520 114 520.188 117.438c-1.633 4.9-3.705 7.044-8.187 9.562-30.406 11.739-67.49 7.232-96.875-5.437l-2.055-.997c-4.035-1.104-7.27.036-10.922 1.852-7.406 4.572-7.406 4.572-12.148 11.582-.097 3.866 1.595 6.508 4.145 9.371 4.265 3.745 10.392 8.73 16.27 8.559 3.497-1.258 6.697-2.984 9.96-4.743 24.523-12.74 54.046-11.73 80-3.875 9.718 3.135 22.23 7.34 27.781 16.622 1.357 3.323 1.388 6.572.844 10.066-2.67 4.896-6.882 7.165-12 9-12.41 3.255-24.226 4.201-37 4.188l-2.085.002c-10.092-.001-19.96-.383-29.915-2.19l1.723 1.215c7.03 5.176 12.43 10.904 16.277 18.785l3.54.031q16.804.15 33.606.308 8.631.083 17.263.158c22.233.196 44.465.396 66.693.983l2.243.059c97.748 2.592 97.748 2.592 114.893 19.414 4.494 5.22 8.064 10.673 10.192 17.254 3.185 9.906 3.185 9.906 10.957 16.316 2.798 1.248 5.624 2.411 8.468 3.55 37.65 16.283 67.333 55.513 82.094 92.74C824 372.817 824 372.817 824 382l1.688-.105c6.795-.242 12.204.733 17.687 4.918 4.278 5.758 3.94 12.142 3.875 19l-.018 3.076c-.152 11.66-.527 23.287-5.232 34.111-4.769 3.606-10.226 3.628-16 4l-.111 1.766c-.556 6.995-2.038 13.493-3.952 20.234l-.94 3.318C818.162 481.998 814.5 490.99 810 500l-1.054 2.17C803.68 512.957 797.476 522.613 790 532l-1.368 1.718c-13.956 17.346-29.875 30.923-48.624 42.872l-1.997 1.28C736 579 736 579 733.872 579.72c-3.765 1.322-5.436 2.381-7.215 6.051a137 137 0 0 0-2.649 9.011c-.857 3.318-1.825 6.602-2.79 9.89l-.565 1.952c-2.274 7.704-5.536 14.51-9.653 21.376l-1.062 1.777c-14.783 24.28-42.524 31.86-68.625 38.348-10.682 2.538-21.481 4.367-32.313 6.125l-2.334.379c-8.245 1.326-16.502 2.53-24.791 3.543l-2.043.257c-4.648.545-9.163.64-13.832.571l.438 2.281c2.29 13.105 4.033 27.731-3.188 39.594-5.715 5.398-10.22 6.881-18.027 6.664-5.642-.944-10.353-3.638-15.223-6.539l-.258 1.729c-1.598 9.69-4.261 19.084-6.836 28.548l-1.534 5.68q-1.61 5.962-3.227 11.92-2.026 7.462-4.04 14.928c-5.153 19.078-10.342 38.145-15.625 57.187l-.606 2.19C482.27 899.468 482.27 899.468 473 907c-3.5.875-3.5.875-7 0-15.202-12.72-18.661-43.651-23.344-61.984l-.905-3.537a2910 2910 0 0 1-4.476-17.712c-4.909-19.493-11.351-38.03-19.525-56.392q-1.25-2.84-2.497-5.683-.847-1.932-1.698-3.861a1206 1206 0 0 1-5.989-13.866l-.835-1.963a4816 4816 0 0 1-3.949-9.307l-1.419-3.332-1.24-2.928c-1.127-2.609-1.127-2.609-3.123-5.435l-1.652 1.102q-2.387 1.59-4.778 3.175a274 274 0 0 0-4.89 3.352c-6.916 4.807-12.815 8.371-21.45 6.93-5.797-1.452-9.86-3.556-13.543-8.371-7.586-12.775-7.845-32.92-4.687-47.188l-3.242-.262C300.446 675.988 247.944 664.988 219 631c-16.31-22.438-24.164-52.71-25.266-80.129-.523-11.596-3.839-16.496-12.206-24.353C168.073 513.148 156.163 488.996 155 470l-3.062.188c-4.502-.215-7.093-.822-10.938-3.188-5.743-9.495-5.306-24.452-3.469-35.07.92-3.03 2.133-5.503 4.094-7.993 3.727-1.47 7.42-1.165 11.375-.937l.227-2.21c2.404-19.098 10.858-45.207 25.615-58.442 3.549-3.525 5.348-6.492 5.439-11.52-.144-4.295-.566-8.558-1.036-12.828-.525-4.801-.914-9.614-1.32-14.426l-.257-2.948c-5.135-60.648-5.135-60.648 9.457-78.938 44.465-46.26 172.882-36.27 231.71-39.042 7.086-.34 14.124-.734 21.165-1.646-9.364-8.057-20.984-8.374-32.844-8.534-6.614-.16-12.377-1.115-17.594-5.529-2.815-3.491-2.89-6.114-2.855-10.484.616-5.156 3.468-9.216 6.293-13.453l-2.16-1.469c-8.252-5.775-15.823-11.594-18.84-21.531-.738-6.538.513-11.403 4-17 4.29-5.259 8.951-8.976 15-12l-1.242-1.574-1.633-2.114-1.617-2.074c-3.916-5.813-4.286-11.4-3.508-18.238 3.623-11.437 13.602-18.626 23.758-24.066C420.33 58 420.33 58 423 58l-1.062-2.437C420.75 51.05 420.536 47.468 422 43c1.679-2.313 3.462-4.276 5.504-6.273 1.823-1.724 1.823-1.724 1.496-4.727l-1-3c-.61-6.006.17-9.334 3.559-14.336C433 13 433 13 435.75 11.563c2.452-1.325 2.452-1.325 2.715-3.7a84 84 0 0 0 .297-4.902L439 1zm3 13c1.256 3.872 2.34 6.068 6 8 3.084.417 3.084.417 6 0l2-2c-4.45-4.887-4.45-4.887-10.625-6.062zm-1 24c2.578 3.151 5.07 4.071 9 5 5.72.456 10.638.258 16-2-2.702-3.716-6.705-4.316-11-5-5.036-.461-9.28.112-14 2m-5 25-1 2c14.273 9.287 27.072 14.27 44.477 11.434 6.508-1.365 6.508-1.365 11.523-5.434-14.56-10.483-37.78-13.613-55-8m-15 51c3.62 2.413 7.293 3.369 11.438 4.5l2.255.645c11.168 3.088 21.98 4.218 33.557 4.168l3.85-.009c11.044-.123 21.636-.9 31.9-5.304-19.624-16.924-60.501-10.473-83-4m7 48c18.512 12.341 53.253 9.645 74 6a116 116 0 0 0 6-2c-19.414-16.25-58.764-15.246-80-4m-16 10-3 4 17 1c-2.434-1.623-4.313-2.617-7-3.625l-2.062-.79c-2.08-.73-2.08-.73-4.938-.585"/><path fill="#e7f5fc" d="m690 259 2.627.73C712.212 265.412 731.1 275.23 747 288l1.677 1.34c33.527 27.03 56.835 66.058 62.01 109.152 2.707 30.302-.028 60.968-13.687 88.508l-1.848 3.844C783.153 515.596 766.27 536.77 744 553l-2.54 1.914C723.448 568.108 702.667 576.944 681 582l-1.972.496c-22.947 5.63-50.295 4.355-73.028-1.496l-2.48-.601C583.4 575.436 564.677 566.239 548 554l-2.488-1.793c-20.65-15.44-36.72-35.402-48.512-58.207-.32-.613-.64-1.226-.968-1.858C489.385 479.207 484.782 465.27 482 451l-.557-2.817c-1.532-8.681-1.783-17.196-1.759-25.983.003-2.367-.02-4.733-.045-7.1-.067-16.041 2.483-31.076 7.717-46.227.619-1.8 1.208-3.61 1.796-5.42 13.44-40.004 43.975-73.248 81.163-92.661C606.95 252.762 650.53 247.963 690 259"/><path fill="#020202" d="m459 455 2.299.962c3.346 1.565 5.988 2.811 7.884 6.073.842 2.43 1.452 4.828 2.005 7.34q.708 2.715 1.433 5.426l.695 2.69c11.512 42.229 45.235 78.315 82.116 100.057 24.161 13.663 51.669 22.384 79.6 22.69l2.257.03c28.62.298 55.571-2.782 81.777-15.084C721.92 583.847 723.802 583 727 583c-4.654 22.575-12.446 50.746-32.598 64.516L692 649l-2.996 1.86c-23.899 14.064-52.987 19.005-80.004 23.39l-2.334.379c-8.245 1.326-16.502 2.53-24.791 3.543l-2.043.257c-4.648.545-9.163.64-13.832.571l.438 2.281c2.29 13.105 4.033 27.731-3.188 39.594-5.715 5.398-10.22 6.881-18.027 6.664-5.642-.944-10.353-3.638-15.223-6.539l-.258 1.729c-1.598 9.69-4.261 19.084-6.836 28.548l-1.534 5.68q-1.61 5.962-3.227 11.92-2.026 7.462-4.04 14.928c-5.153 19.078-10.342 38.145-15.625 57.187l-.606 2.19C482.27 899.468 482.27 899.468 473 907c-3.5.875-3.5.875-7 0-15.202-12.72-18.661-43.651-23.344-61.984l-.905-3.537a2910 2910 0 0 1-4.476-17.712c-4.909-19.493-11.351-38.03-19.525-56.392q-1.25-2.84-2.497-5.683-.847-1.932-1.698-3.861a1206 1206 0 0 1-5.989-13.866l-.835-1.963a4816 4816 0 0 1-3.949-9.307l-1.419-3.332-1.24-2.928c-1.127-2.609-1.127-2.609-3.123-5.435l-1.652 1.102q-2.387 1.59-4.778 3.175a274 274 0 0 0-4.89 3.352c-6.916 4.807-12.815 8.371-21.45 6.93-5.797-1.452-9.86-3.556-13.543-8.371-7.586-12.775-7.845-32.92-4.687-47.188l-3.242-.262C300.446 675.988 247.944 664.988 219 631c-17.777-24.455-26.484-59.605-26.062-89.562l.027-2.567L193 537q1.69 1.246 3.375 2.5l2.262 1.676a83 83 0 0 1 4.383 3.617C215.224 555.459 231.392 562.934 247 567l2.082.581c30.25 8.247 64.177 4.824 91.918-9.581l3.16-1.566C354.976 550.85 364.18 543.316 373 535l2.016-1.82c18.152-17.046 30.161-41.305 33.699-65.698 1.345-7.562 1.345-7.562 4.082-10.242 2.02-1.28 4.01-2.29 6.203-3.24l2.406-1.363c12.444-5.642 25.617-3.245 37.594 2.363"/><path fill="#99c1e5" d="m631 219 3.117.227A288 288 0 0 1 651 221l2.878.382c33.797 4.635 33.797 4.635 40.997 13.618 1.898 3.163 3.228 6.412 4.125 10-5.47-.985-10.937-1.982-16.395-3.035-10.214-1.951-20.19-3.666-30.605-3.965l-3-.121c-40.96-.888-81.49 12.324-114 37.121l-2.723 2.04C506.987 296.798 489.912 321.981 477 351l-1.5 3.324C464.425 380.802 463.592 410.721 464 439q-2-.435-4-.875l-2.25-.492c-2.172-.5-4.325-1.08-6.469-1.688-4.611-1.156-9.047-1.24-13.781-1.195l-2.434-.023c-5.329.017-9.962.804-15.066 2.273q-2.249.57-4.5 1.125L412 439l-.297-3.523c-3.334-36.909-17.708-69.254-46.476-93.403C359.502 337.44 353.45 333.556 347 330l-1.802-1.015C330.95 321.043 315.24 315.84 299 314l-2.781-.332c-32.457-3.419-64.74 5.335-91.219 24.332-2.303 1.867-4.494 3.754-6.617 5.82C197 345 197 345 195 345c-1.56-13.197-2.373-26.237-2.37-39.526-.005-2.841-.042-5.68-.08-8.52-.06-9.808.525-19.26 2.223-28.93l.472-2.737c1.254-6.45 3.13-11.663 7.88-16.412 8.42-5.491 17.14-8.53 26.875-10.875l2.443-.594c24.648-5.854 49.755-8.233 74.979-9.898l2.898-.193c22.016-1.454 44.05-2.302 66.099-3.08 11.39-.401 22.78-.83 34.17-1.258l3.382-.127a4032 4032 0 0 0 59.77-2.659c10.745-.549 21.487-1.13 32.224-1.82 41.566-2.626 83.5-2.508 125.035.629"/><path fill="#e7f5fb" d="M349.855 350.05c2.817 2.224 5.49 4.537 8.145 6.95l1.574 1.425c21.721 19.922 35.18 47.343 36.531 76.87 1.116 33.696-9.395 62.754-32.41 87.53-18.787 19.345-46.507 32.743-73.586 33.476q-3.68.03-7.359.011c-1.286-.005-2.572-.01-3.897-.017-9.006-.115-17.193-.662-25.853-3.295l-1.961-.57C225.373 544.834 200.995 528.162 187 505l-1.98-3.2c-4.96-8.203-9-16.692-12.02-25.8l-.642-1.9c-6.279-19.608-6.134-45.738.642-65.1l.666-1.927C178.606 393.04 185.645 380.568 195 369l1.965-2.434c37.681-44.462 106.53-49.812 152.89-16.515"/><path fill="#99c0e4" d="m459 455 2.299.962c3.346 1.565 5.988 2.811 7.884 6.073.842 2.43 1.452 4.828 2.005 7.34q.708 2.715 1.433 5.426l.695 2.69c11.512 42.229 45.235 78.315 82.116 100.057 24.161 13.663 51.669 22.384 79.6 22.69l2.257.03c23.352.243 44.56-1.808 66.887-9.096C708 590 708 590 711 590c-.473 6.774-1.89 12.12-4.625 18.313l-1.086 2.502c-7.572 17.128-16.41 28.368-34.233 35.336C637.472 658.425 598.886 667.405 563 667c-4.513-14.441-2.787-27.543 0-42.125q.651-3.412 1.284-6.827.39-2.11.801-4.214c1.444-7.789 1.9-15.728-2.085-22.834-3.852-4.151-8.205-5.353-13.75-5.687-11.058.552-19.776 7.476-28.468 13.727-6.847 4.892-12.846 8.112-21.282 9.335-6.535 1.132-10.754 2.985-15.5 7.625l-1.973 1.746c-4.24 3.93-6.764 7.64-9.464 12.754-3.248 5.136-3.248 5.136-6.43 6.017-4.446.452-8.785.018-13.216-.428-2.453-.114-4.463.49-6.792 1.223-2.027.297-2.027.297-4.125-.312-3.077-2.98-5.643-6.186-8.262-9.566-10.22-13.13-25.284-17.918-40.742-21.873-7.454-2.063-13.497-5.398-19.784-9.867-5.232-3.6-9.826-4.896-16.212-4.694-4.472.951-7.218 2.198-10.437 5.5-6.434 10.293-2 25.868.464 36.906 1.36 6.173 2.115 12.258 2.098 18.594l.008 2.875c-.16 3.755-.627 7.4-1.133 11.125-27.735-2.77-55.19-9.017-80.437-21l-3.03-1.436c-23.043-11.419-38.548-29.092-47.004-53.306-2.679-7.982-4.853-16.002-6.529-24.258l-.621-2.844c-.885-4.152-1.477-7.894-1.379-12.156 5.085 1.483 9.35 3.748 13.938 6.313 7.817 4.223 15.448 7.393 24.062 9.687l2.1.59c30.244 8.24 64.167 4.811 91.9-9.59l3.16-1.566C354.976 550.85 364.18 543.316 373 535l2.016-1.82c18.152-17.046 30.161-41.305 33.699-65.698 1.345-7.562 1.345-7.562 4.082-10.242 2.02-1.28 4.01-2.29 6.203-3.24l2.406-1.363c12.444-5.642 25.617-3.245 37.594 2.363"/><path fill="#dcddde" d="M97 524c12.054 4.394 17.213 18.741 22.525 29.27C125.73 565.177 133.16 573.586 145 580l1.809.99c9.45 5.299 9.45 5.299 19.953 5.49 7.708-1.654 16.186-1.107 23.238 2.52 3.713 3.002 5.546 5.497 7 10 1.007 11.498-.682 23.11-2.125 34.5l-.333 2.692c-2.427 19.472-5.687 38.756-10.476 57.8l-.904 3.629c-1.457 4.238-3.333 8.019-6.99 10.738-6.358 1.876-14.331 1.385-20.672-.422-5.843-1.565-9.797-.004-14.937 2.875-12 6.187-24.493 9.31-37.688 5.688-6.11-2.01-11.743-4.753-17.407-7.77-5.927-3.131-9.557-4.328-16.03-2.332l-3.165.954L63 708.375q-3.218.984-6.437 1.96l-2.872.893c-8.38 2.404-19.28 3.853-27.441.085-3.28-2.334-4.93-3.527-6.25-7.313-.1-5.316 1.561-8.79 4.805-12.824C29.62 686.403 35.375 682.745 41 679l2.455-1.64q3.27-2.182 6.545-4.36l-2.472-.044a1405 1405 0 0 1-9.259-.218 821 821 0 0 0-5.906-.119C22.397 672.341 10.8 672 3 665c-2.353-3.416-3-5.345-3-9.5 1.511-5.29 4.463-8.413 8.855-11.52 11.448-6.16 23.54-10.16 35.883-14.167 2.2-.61 2.2-.61 3.262-1.813q-3.53-1.35-7.062-2.687c-.72-.275-1.44-.549-2.183-.83-3.577-1.347-7.15-2.635-10.806-3.749C16.71 617.29 7.016 612.611.91 602.13-.796 598.139-.84 594.226 0 590c2.682-4.271 6.979-6.267 11.625-7.875 15.556-3.525 31.707-.78 47.156 1.902 6.38 1.08 12.764 1.58 19.219 1.973l-.886-1.633a1949 1949 0 0 1-3.989-7.43l-1.395-2.568c-5.25-9.855-7.621-19.324-5.007-30.443 2.997-8.897 6.921-13.6 15.289-17.946L84 525c3.991-1.996 8.66-1.505 13-1"/><path fill="#1d4074" d="m441 0 2 1v7l1.977-.14c5.933-.246 9.382.051 14.023 4.14 2.51 2.576 3.844 4.064 4.438 7.625-.519 2.814-1.16 3.688-3.438 5.375-4.663 1.554-8.488 1.544-13.125-.125-3.464-2.259-5.39-4.587-7.875-7.875-2.335 2.034-3.819 3.496-4.875 6.438-.147 3.014.568 4.87 1.875 7.562l3.563-1c11.617-2.525 23.514-2.082 33.703 4.453C475 36 475 36 475.562 38.937 475 42 475 42 472.938 44.25 466.346 48.178 459.52 48.835 452 48c-5.704-1.502-10.302-3.459-15-7-3.077 0-4.035 1.032-6.312 3.125-2.192 3.733-1.446 5.72-.688 9.875l2.184-.437c21.75-3.76 45.65-3.84 64.816 8.437 2.51 1.963 3.413 3.12 5 6 .14 4.048-.219 6.057-2.812 9.188-12.622 7.176-28.023 8.033-42.176 5.117C446.23 79.232 437.024 73.772 429 66c-12.344 4.675-24.264 10.226-31.187 22.023-1.345 3.272-.697 5.618.187 8.977 2.333 2.834 2.333 2.834 5 5l2 2c6.573-.409 12.58-2.187 18.85-4.096 11.689-3.417 23.262-4.268 35.4-4.216l2.059.005c10.537.048 20.47.618 30.691 3.307l2.11.552c9.218 2.473 17.35 5.24 24.452 11.823C520 114 520 114 520.188 117.438c-1.633 4.9-3.705 7.044-8.187 9.562-30.406 11.739-67.49 7.232-96.875-5.437l-2.055-.997c-4.035-1.104-7.27.036-10.922 1.852-7.406 4.572-7.406 4.572-12.148 11.582-.097 3.866 1.595 6.508 4.145 9.371 4.265 3.745 10.392 8.73 16.27 8.559 3.497-1.258 6.697-2.984 9.96-4.743 24.523-12.74 54.046-11.73 80-3.875 9.718 3.135 22.23 7.34 27.781 16.622 1.357 3.323 1.388 6.572.844 10.066-2.67 4.896-6.882 7.165-12 9-12.41 3.255-24.226 4.201-37 4.188l-2.085.002c-10.092-.001-19.96-.383-29.915-2.19l1.723 1.215c7.03 5.176 12.43 10.904 16.277 18.785l3.54.031q16.804.15 33.606.308 8.631.083 17.263.158c22.233.196 44.465.396 66.693.983l2.243.059c97.714 2.592 97.714 2.592 114.89 19.406 5.447 6.34 9.111 13.372 12.265 21.055l.811 1.96c1.814 4.665 1.814 4.665.689 8.04-17.175-4.71-17.175-4.71-21.387-9.996a107 107 0 0 1-2.593-6.328c-.89-2.911-.89-2.911-3.645-5.176-18.976-8.434-40.34-9.946-60.812-11.625l-2.731-.229c-20.788-1.593-41.618-1.85-62.457-1.833h-3.926c-19.005.019-37.89.492-56.851 1.71-11.152.715-22.312 1.284-33.473 1.852l-3.638.187c-18.627.95-37.259 1.717-55.897 2.415l-3.404.127c-11.346.426-22.693.847-34.041 1.247-21.934.778-43.843 1.697-65.743 3.16l-2.775.185C248.7 229.818 248.7 229.818 201 252c-8.004 13.637-7.616 32.387-7.412 47.732.037 2.834.041 5.666.04 8.5.045 10.443.531 20.686 2.004 31.036.748 6.087.748 6.087-1.292 9.55-2.023 1.803-3.939 2.948-6.34 4.182-1.721 1.558-1.721 1.558-3 3-12.588-86.243-12.588-86.243 4.46-112.227 22.31-27.965 78.192-28.714 110.95-32.483 40.665-4.559 81.565-6.718 122.425-8.644 7.086-.34 14.124-.734 21.165-1.646-9.364-8.057-20.984-8.374-32.844-8.534-6.614-.16-12.377-1.115-17.594-5.529-2.815-3.491-2.89-6.114-2.855-10.484.616-5.156 3.468-9.216 6.293-13.453l-2.16-1.469c-8.252-5.775-15.823-11.594-18.84-21.531-.738-6.538.513-11.403 4-17 4.29-5.259 8.951-8.976 15-12l-1.242-1.574-1.633-2.114-1.617-2.074c-3.916-5.813-4.286-11.4-3.508-18.238 3.623-11.437 13.602-18.626 23.758-24.066C420.33 58 420.33 58 423 58l-1.062-2.437C420.75 51.05 420.536 47.468 422 43c1.679-2.313 3.462-4.276 5.504-6.273 1.823-1.724 1.823-1.724 1.496-4.727l-1-3c-.61-6.006.17-9.334 3.559-14.336C433 13 433 13 435.75 11.563c2.452-1.325 2.452-1.325 2.715-3.7a84 84 0 0 0 .297-4.902L439 1zm3 13c1.256 3.872 2.34 6.068 6 8 3.084.417 3.084.417 6 0l2-2c-4.45-4.887-4.45-4.887-10.625-6.062zm-1 24c2.578 3.151 5.07 4.071 9 5 5.72.456 10.638.258 16-2-2.702-3.716-6.705-4.316-11-5-5.036-.461-9.28.112-14 2m-5 25-1 2c14.273 9.287 27.072 14.27 44.477 11.434 6.508-1.365 6.508-1.365 11.523-5.434-14.56-10.483-37.78-13.613-55-8m-15 51c3.62 2.413 7.293 3.369 11.438 4.5l2.255.645c11.168 3.088 21.98 4.218 33.557 4.168l3.85-.009c11.044-.123 21.636-.9 31.9-5.304-19.624-16.924-60.501-10.473-83-4m7 48c18.512 12.341 53.253 9.645 74 6a116 116 0 0 0 6-2c-19.414-16.25-58.764-15.246-80-4m-16 10-3 4 17 1c-2.434-1.623-4.313-2.617-7-3.625l-2.062-.79c-2.08-.73-2.08-.73-4.938-.585"/><path fill="#dbdcdd" d="M768 613c4.365 3.013 8.04 6.588 11 11v2l3.07.348c17.206 2.856 34.242 14.097 46.93 25.652l2.27 2.059c10.852 10.329 14.747 22.313 15.204 37.09.102 11.031-1.499 20.412-5.165 30.812-.469 3.094.232 5.948.691 9.039 1.18 17.845-.886 29.343-11.198 43.935-3.415 5.013-5.534 10.09-7.49 15.815-3.275 9.542-6.815 19.567-16.265 24.566-3.896 1.301-6.087.918-10.047-.316-7.869-6.82-8.406-17.78-9.375-27.562-1.13-10.253-3.277-19.697-6.625-29.438l-.7 3.219c-2.455 10.83-4.936 19.063-14.3 25.781-5.096 1.699-9.91 1.672-14.875-.312C748 785 748 785 746 782c-1.133-3.815-1.012-7.402-.883-11.332.43-14.377-4.426-22.77-12.38-34.537q-1.35-2-2.7-4.003a580 580 0 0 0-2.66-3.914c-3.369-4.975-5.546-8.816-5.314-14.964-.283-3.664-.762-4.94-3.36-7.617a281 281 0 0 0-5.89-4.477c-3.656-2.802-6.946-5.886-8.813-10.156-.593-4.883-.042-7.743 2.894-11.728l1.293-1.647 1.346-1.804c2.499-3.329 5.074-6.598 7.639-9.876q1.635-2.096 3.265-4.195l1.667-2.143c4.42-5.78 8.217-11.817 11.934-18.065C754.368 607.48 754.368 607.48 768 613"/><path fill="#3c3f98" d="M471 677c.785 1.81 1.503 3.65 2.188 5.5 4.261 10.43 9.758 16.459 19.812 21.5 4.066 1.533 8.2 2.742 12.375 3.938 9.01 2.712 16.912 5.54 24.625 11.062-.583 9.008-3.094 17.497-5.453 26.164l-1.37 5.095a6108 6108 0 0 1-3.668 13.567q-1.52 5.61-3.034 11.224-4.401 16.304-8.835 32.598l-1.785 6.564C482.798 899.04 482.798 899.04 473 907c-3.5.875-3.5.875-7 0-15.202-12.72-18.661-43.651-23.344-61.984l-.905-3.537a2910 2910 0 0 1-4.476-17.712c-4.909-19.494-11.353-38.03-19.525-56.392l-1.65-3.761a4256 4256 0 0 0-3.39-7.72 2629 2629 0 0 1-7.662-17.61 1736 1736 0 0 0-2.354-5.413l-1.428-3.312-1.257-2.897c-.969-2.556-1.56-4.97-2.009-7.662l3.113-1.504C421.17 707.711 434.205 698.156 443 677c4.291-.196 8.583-.38 12.875-.562l3.707-.17 3.535-.147 3.27-.143C469 676 469 676 471 677"/><path fill="#fbce80" d="M554 587c4.9 2.404 7.337 5.293 10 10 1.915 11.344-.852 23.045-3.22 34.118-3.18 15.321-1.035 28.993 1.657 44.154 5.487 31.207 5.487 31.207-2.187 43.54-3.88 3.772-7.513 5.068-12.875 5.438-7.25-1.253-13.97-7.624-19.648-12.004-8.508-6.242-19.106-8.422-29.227-10.808-8.484-2.081-14.652-4.946-19.5-12.438-2.382-4.207-4.674-8.34-6-13a138 138 0 0 1 2-6c.34-3.75.325-7.487.313-11.25l.048-2.988c.004-5.125-.39-9.303-2.115-14.149-1.413-4.237-1.413-4.237.113-7.68l2.391-2.495 2.574-2.762L481 626l2.332-2.52c6.625-6.996 12.268-10.836 21.543-13.48 6.662-1.96 11.672-5.203 17.188-9.375C543.616 584.324 543.616 584.324 554 587"/><path fill="#629ad1" d="M209 551c5.085 1.483 9.35 3.748 13.938 6.313 7.807 4.218 15.445 7.435 24.062 9.687l2.18.574c14.485 3.661 28.931 4.222 43.82 4.426l.896 1.884c6.337 12.142 23.435 18.237 35.711 22.214 4.757 1.483 9.55 2.732 14.393 3.902l-.14 3.234c-.307 10.492.855 20.015 3.167 30.243 1.377 6.146 2.115 12.21 2.098 18.523l.008 2.875c-.16 3.755-.627 7.4-1.133 11.125-27.735-2.77-55.19-9.017-80.437-21l-3.03-1.436c-23.043-11.419-38.548-29.092-47.004-53.306-2.679-7.982-4.853-16.002-6.529-24.258l-.621-2.844c-.885-4.152-1.477-7.894-1.379-12.156"/><path fill="#020202" d="M97 524c12.054 4.394 17.213 18.741 22.525 29.27C125.73 565.177 133.16 573.586 145 580l1.809.99c9.45 5.299 9.45 5.299 19.953 5.49 7.708-1.654 16.186-1.107 23.238 2.52 3.713 3.002 5.546 5.497 7 10 1.007 11.498-.682 23.11-2.125 34.5l-.333 2.692c-2.427 19.472-5.687 38.756-10.476 57.8l-.904 3.629c-1.457 4.238-3.333 8.019-6.99 10.738-6.358 1.876-14.331 1.385-20.672-.422-5.843-1.565-9.797-.004-14.937 2.875-12 6.187-24.493 9.31-37.688 5.688-6.11-2.01-11.743-4.753-17.407-7.77-5.927-3.131-9.557-4.328-16.03-2.332l-3.165.954L63 708.375q-3.218.984-6.437 1.96l-2.872.893c-8.38 2.404-19.28 3.853-27.441.085-3.28-2.334-4.93-3.527-6.25-7.313-.1-5.316 1.561-8.79 4.805-12.824C29.62 686.403 35.375 682.745 41 679l2.455-1.64q3.27-2.182 6.545-4.36l-2.472-.044a1405 1405 0 0 1-9.259-.218 821 821 0 0 0-5.906-.119C22.397 672.341 10.8 672 3 665c-2.353-3.416-3-5.345-3-9.5 1.511-5.29 4.463-8.413 8.855-11.52 11.448-6.16 23.54-10.16 35.883-14.167 2.2-.61 2.2-.61 3.262-1.813q-3.53-1.35-7.062-2.687c-.72-.275-1.44-.549-2.183-.83-3.577-1.347-7.15-2.635-10.806-3.749C16.71 617.29 7.016 612.611.91 602.13-.796 598.139-.84 594.226 0 590c2.682-4.271 6.979-6.267 11.625-7.875 15.556-3.525 31.707-.78 47.156 1.902 6.38 1.08 12.764 1.58 19.219 1.973l-.886-1.633a1949 1949 0 0 1-3.989-7.43l-1.395-2.568c-5.25-9.855-7.621-19.324-5.007-30.443 2.997-8.897 6.921-13.6 15.289-17.946L84 525c3.991-1.996 8.66-1.505 13-1m-19.312 14.313c-3.945 6.282-5.68 12.27-4.688 19.687 2.413 7.609 6.273 14.662 10 21.688l1.578 3.01c2.177 4.136 4.365 8.243 6.758 12.259 2.378 4.348 2.63 7.21 1.664 12.043-1.2 2.924-2.482 5.802-3.781 8.684-3.493 8.404-3.2 17.344-3.219 26.316-2.713-11.236-2.824-21.155 1.125-32.125 1.243-4.083 1.89-7.67.044-11.68-2.263-3.502-3.994-5.539-8.118-6.578a132 132 0 0 0-4.739-.742q-2.677-.447-5.355-.898l-2.896-.46c-3.263-.551-6.496-1.198-9.737-1.869l-3.433-.702q-3.303-.678-6.605-1.372c-13.515-2.68-28.284-3.242-40.161 4.676C4.219 593.215 4.593 595.574 5 599c4.199 8.23 12.112 13.793 20.73 16.648q2.727.869 5.458 1.727C48.576 623.043 48.576 623.043 52 626c.382 1.656.72 3.324 1 5l-2.488 1.082a2316 2316 0 0 0-9.298 4.088q-1.995.879-3.994 1.748C20.964 644.64 20.964 644.64 8 656c-.329 2.185-.329 2.185 1 4 13.348 8.961 31.55 8.606 47 10l1 4-1.777.855C44.913 680.165 32.46 688.31 26 698c-.583 3-.583 3 0 6 2.917 3.017 5.98 3.256 10 3.438 8.048-.248 15.408-2.85 22.738-6.04 9.3-4.041 17.27-6.845 27.176-2.957 3.456 1.465 6.844 3.06 10.228 4.683 2.561 1.208 5.155 2.29 7.796 3.313l2.34.934c7.28 1.682 13.474.497 20.347-2.121l2.156-.766c2.102-.77 4.157-1.615 6.219-2.484l1.995-.707c2.863-1.228 4.696-2.54 5.89-5.449.688-2.96 1.14-5.896 1.553-8.907q.588-3.66 1.183-7.32l.315-2.016c1.323-8.448 2.947-16.84 4.536-25.241.874-4.633 1.732-9.268 2.59-13.903l.997-5.376.48-2.592q.653-3.522 1.309-7.042 1.086-5.847 2.152-11.697l.629-3.365c.943-5.216 1.61-10.083 1.371-15.385l-3.078-1.469c-19.577-9.473-31.935-19.998-43.182-38.616-6.982-12.723-6.982-12.723-17.74-21.915-8.004-.828-12.685 1.685-18.312 7.313"/><path fill="#fcce80" d="M364.258 595.098c3.432 2.017 6.735 4.065 9.8 6.613 8.855 7.181 20.168 9.284 30.942 12.289 13.936 3.923 23.494 10.254 31.563 22.625 2.2 5.168 1.746 9.287.937 14.75-.83 6.019-1.147 11.87.563 17.75 1.953 8.074-.415 13.828-4.208 20.973-5.865 9.175-14.333 12.99-24.154 16.792-14.022 5.275-14.022 5.275-26.701 13.11a479 479 0 0 1-4.937 3.313l-2.215 1.488c-3.865 2.508-7.324 2.773-11.848 2.199-5.307-2.347-7.091-5.459-9.238-10.586-1.52-4.816-1.89-9.535-1.895-14.562l-.006-3.523.014-3.704.006-3.816c.036-7.762.33-15.431.88-23.172.98-14.936-.877-27.729-4.695-42.168-4.57-18.016-4.57-18.016-1.082-25.614 4.227-5.36 9.856-7.878 16.274-4.757"/><path fill="#7370ae" d="M468.179 698.007c2.082.181 4.166.334 6.25.487 7.134.592 12.92 1.648 19.175 5.22 4.38 2.35 9.153 3.61 13.896 5.036l5.844 1.797 2.568.776C518 712 518 712 520 713c-.765 8.924-2.106 17.73-3.563 26.562-.192 1.172-.192 1.172-.39 2.368-3.852 23.133-9.513 45.853-16.226 68.319-.951 3.188-1.89 6.38-2.829 9.571-2.988 10.142-6.004 20.273-9.131 30.372A403 403 0 0 0 485 860c-2.731-2.731-3.339-5.846-4.371-9.469l-.661-2.288c-2.402-8.497-4.234-17.102-6.03-25.743A3554 3554 0 0 0 470 804l-.513-2.399a898 898 0 0 0-1.546-7.007l-.455-2.14c-.938-4.1-1.865-5.96-4.486-9.454l-1 28c-4.39 2.195-7.205 2.76-12 2-2.757-1.669-3.69-3.046-4.68-6.094-.97-3.984-1.586-7.79-1.32-11.906h9v4l-6 1c.575 3.93.575 3.93 3 7 2.323.4 4.657.74 7 1q.007-6.7-.098-13.397a323 323 0 0 1-.022-4.554c.003-2.188-.033-4.373-.075-6.56l-.032-3.984c-1.05-4.76-2.835-5.792-6.773-8.505-4.577 2.88-4.577 2.88-8 7h8c.562 1.937.562 1.937 1 4-1 1-1 1-4.813 1.312-3.092-.044-3.995-.179-6.625-2-1.688-2.498-2.231-4.334-2.562-7.312l1.46-1.242 1.915-1.633 1.898-1.617A76 76 0 0 0 446 766l-1.348-1.172-1.715-1.578-1.722-1.547C440 760 440 760 440.156 758c1.364-3.233 3.524-5.383 5.844-8l-2.313-.75c-3.035-1.412-4.132-2.304-5.687-5.25-.438-3-.438-3 0-6 1.875-2.375 1.875-2.375 4-4h2l-4.336-8.676a1611 1611 0 0 0-3.14-6.242l-1.337-2.645-1.207-2.378C432 709.898 431.598 706.586 432 702c7.084-9.614 25.649-4.937 36.179-3.993"/><path fill="#629ad1" d="M711 590c-.473 6.774-1.89 12.12-4.625 18.313l-1.086 2.502c-7.572 17.128-16.41 28.368-34.233 35.336C637.472 658.425 598.886 667.405 563 667c-4.291-13.732-3.053-26.271-.491-40.17.432-2.351.852-4.704 1.27-7.057l.81-4.492.383-2.127c.911-4.92.911-4.92 2.028-7.154 2.693-.562 2.693-.562 6.273-1l3.942-.5 4.16-.5c15.449-.515 15.449-.515 28.625-6 2.55.178 4.975.467 7.496.852 9.211 1.238 18.281 1.547 27.567 1.523l2.428-.002c19.749-.06 37.9-3.069 56.685-9.201C708 590 708 590 711 590"/><path fill="#040404" d="M768 613c4.365 3.013 8.04 6.588 11 11v2l3.07.348c17.206 2.856 34.242 14.097 46.93 25.652l2.27 2.059c10.852 10.329 14.747 22.313 15.204 37.09.102 11.031-1.499 20.412-5.165 30.812-.469 3.094.232 5.948.691 9.039 1.18 17.845-.886 29.343-11.198 43.935-3.415 5.013-5.534 10.09-7.49 15.815-3.275 9.542-6.815 19.567-16.265 24.566-3.896 1.301-6.087.918-10.047-.316-7.869-6.82-8.406-17.78-9.375-27.562-1.13-10.253-3.277-19.697-6.625-29.438l-.7 3.219c-2.455 10.83-4.936 19.063-14.3 25.781-5.096 1.699-9.91 1.672-14.875-.312C748 785 748 785 746 782c-1.133-3.815-1.012-7.402-.883-11.332.43-14.377-4.426-22.77-12.38-34.537q-1.35-2-2.7-4.003a580 580 0 0 0-2.66-3.914c-3.369-4.975-5.546-8.816-5.314-14.964-.283-3.664-.762-4.94-3.36-7.617a281 281 0 0 0-5.89-4.477c-3.656-2.802-6.946-5.886-8.813-10.156-.593-4.883-.042-7.743 2.894-11.728l1.293-1.647 1.346-1.804c2.499-3.329 5.074-6.598 7.639-9.876q1.635-2.096 3.265-4.195l1.667-2.143c4.42-5.78 8.217-11.817 11.934-18.065C754.368 607.48 754.368 607.48 768 613m11 20-1.125 3.563C771.017 656.882 761.398 673.314 748 690l-2.586 3.27c-3.296 4.112-6.515 7.876-10.476 11.355-2.493 2.46-3.381 3.954-3.442 7.473.2 5.75 2.716 9.88 5.629 14.715q1.518 2.634 3.031 5.273l1.485 2.55c1.758 3.058 3.39 6.154 4.984 9.302l1.352 2.652c1.938 4.565 2.125 8.778 2.015 13.7l-.05 3.6q-.067 3.747-.157 7.493l-.043 3.594-.067 3.283c.1 2.747.1 2.747 1.67 4.59 3.815 2.651 9.25 1.658 13.655 1.15 5.546-2.596 7.733-8.56 10-14 1.098-3.464 1.115-6.675 1.098-10.297l-.01-3.652-.025-3.801-.014-3.848q-.018-4.701-.049-9.402c3 1 3 1 4.684 3.992a226 226 0 0 1 1.754 3.883l.93 2.07c.894 2.012 1.767 4.031 2.632 6.055l1.238 2.879c4.597 11.624 6.013 24.18 6.94 36.562.507 5.876 1.493 11.23 5.822 15.559 3.255.374 5.225.5 8.02-1.3 11.471-12.872 16.875-28.444 16.164-45.43-.91-11.252-5.272-22.14-11.996-31.145C810 729 810 729 810 725l4-1 .785 2.105c1.346 3.206 2.986 6.157 4.653 9.207 5.934 11.445 6.93 23.947 7.562 36.688 3.529-3.123 5.276-6.214 7.188-10.5l1.542-3.406c4.683-11.41 3.75-29.76-.497-41.152-3.467-8.287-6.992-14.474-14.233-19.942-.937-2.875-.937-2.875-1-5 3.488.51 5.522 1.454 7.852 4.113 4.745 6.654 7.681 13.107 10.148 20.887 5.53-5.53 5.328-15.567 5.375-23-.138-13.255-3.198-24.559-12.375-34.5-10.03-9.327-21.625-15.854-34-21.5l-3.469-1.605c-5.144-2.273-8.835-3.662-14.531-3.395"/><path fill="#b7c1c6" d="M483 383h1l.044 1.822c1.361 50.895 14.032 98.248 51.491 134.744 36.395 34.265 84.125 46.929 133.02 45.59 14.398-.654 28.642-3.015 42.445-7.156l2.15-.636c15.647-4.711 30.014-11.13 43.675-20.127 3.05-1.999 5.607-3.492 9.175-4.237-7.808 10.039-18.36 18.133-29 25l-3.25 2.11C717.333 570.495 699.855 577.467 681 582l-2.11.54c-22.835 5.663-50.27 4.282-72.89-1.54l-2.48-.601C583.4 575.436 564.677 566.239 548 554l-2.488-1.793c-20.65-15.44-36.72-35.402-48.512-58.207-.32-.613-.64-1.226-.968-1.858C489.385 479.207 484.782 465.27 482 451l-.557-2.817c-1.532-8.681-1.783-17.196-1.759-25.983.003-2.367-.02-4.733-.045-7.1-.043-10.968 1.243-21.346 3.361-32.1"/><path fill="#629ad2" d="m264 233-2.234 2.055c-2.977 2.986-5.012 6.385-7.016 10.07l-1.156 2.1C240.97 270.49 230.946 295.231 230 322l2 1-3.078 1.469c-10.408 5.038-20.284 10.366-29.047 18.031C197 345 197 345 195 345c-1.56-13.197-2.373-26.237-2.37-39.526-.005-2.841-.042-5.68-.08-8.52-.06-9.808.525-19.26 2.223-28.93l.472-2.737c1.254-6.45 3.13-11.663 7.88-16.412C214.582 241.403 250.744 226.372 264 233"/><path fill="#1e4074" d="M193 537c1.884 1.402 3.76 2.81 5.625 4.238a88 88 0 0 0 4.875 3.367c6.09 4.109 6.09 4.109 7.184 7.536.133 1.646.205 3.298.23 4.949.6 20.286 9.359 45.14 22.086 60.91l1.797 2.29C247.75 635.864 268.044 645.706 287 652l2.762.969c18.843 6.239 38.711 9.705 58.238 13.031l-1 14c-43.15-2.807-94.524-13.875-125.691-46.29-20.039-23.53-28.798-62.017-28.371-92.273l.027-2.566z"/><path fill="#f8f7f7" d="M481.563 704.313c4.024.804 5.738 1.59 8.437 4.687.987 3.619 1.206 6.094.375 9.75-1.765 2.889-3.259 3.946-6.375 5.25-2.812-.312-2.812-.312-5-1 .188-1.875.188-1.875 1-4 2.563-1.25 2.563-1.25 5-2 .167-2.416.167-2.416 0-5l-2-2c-2.782.405-2.782.405-5 2-.29 4.201-.314 8.408-.35 12.618a276 276 0 0 1-.082 4.242 310 310 0 0 0-.091 6.124l-.06 3.71c.743 4.215 2.263 5.696 5.583 8.306 3.514.086 4.693-.726 7.313-3.062L492 742c-1.257-3.621-1.257-3.621-3.625-6.562C487 734 487 734 487 730c3.695.211 5.033 1.029 7.875 3.5 2.027 2.685 2.5 4.645 2.375 8-.782 4.67-3.048 6.753-6.754 9.504L489 752l5 6c-1.443 3.366-3.333 5.51-6 8l1.496 1.066c3.513 2.707 5.278 4.243 6.692 8.559-.188 3.375-.188 3.375-1.75 5.75-2.848 1.898-5.056 2.318-8.438 2.625v-4l4-2c-.398-2.886-.79-3.822-3.062-5.75L485 771c-2.468 1.152-4.048 2.048-6 4a101 101 0 0 0-.414 7.852l-.059 2.345a1333 1333 0 0 0-.152 7.428l-.117 5.031Q478.116 803.83 478 810c5.009.326 5.009.326 9.438-1.625 1.958-2.978 1.88-4.879 1.562-8.375l-7-1c-.562-1.937-.562-1.937-1-4 1-1 1-1 4.25-1.25 3.924.262 5.667.892 8.75 3.25 1.536 3.072 1.227 5.602 1 9-1.258 3.442-2.38 5.452-5.125 7.875-3.918 1.533-7.755 2.197-11.875 1.125-3.156-2.58-4.81-4.095-5.66-8.138-.015-1.147-.03-2.294-.047-3.475l-.088-3.78-.017-3.92-.077-3.978A737 737 0 0 1 472 782l-4 4c-3.875-1.875-3.875-1.875-5-3l-1 28c-4.39 2.195-7.205 2.76-12 2-2.757-1.669-3.69-3.046-4.68-6.094-.97-3.984-1.586-7.79-1.32-11.906h9v4l-6 1c.575 3.93.575 3.93 3 7 2.323.4 4.657.74 7 1q.007-6.7-.098-13.397a323 323 0 0 1-.022-4.554c.003-2.188-.033-4.373-.075-6.56l-.032-3.984c-1.05-4.76-2.835-5.792-6.773-8.505-4.577 2.88-4.577 2.88-8 7h8c.563 1.938.563 1.938 1 4-1 1-1 1-4.812 1.313-3.093-.045-3.996-.18-6.625-2-1.689-2.5-2.232-4.335-2.563-7.313l1.46-1.242 1.915-1.633 1.898-1.617A76 76 0 0 0 446 766l-1.348-1.172-1.714-1.578-1.723-1.547C440 760 440 760 440.156 758c1.364-3.233 3.524-5.383 5.844-8l-2.312-.75c-3.036-1.412-4.133-2.304-5.688-5.25-.53-3.631-.502-5.286 1.625-8.312 2.815-2 4.968-2.378 8.375-2.688v4c-2.5 1.75-2.5 1.75-5 3 .743 2.395 1.47 3.708 3.691 4.934 1.75.738 3.528 1.406 5.309 2.066l.813-1.812C454 743 454 743 455.549 741.703c2.032-2.386 1.839-4.038 1.85-7.14l.011-3.211-.035-3.352.035-3.352-.012-3.21-.01-2.942c-.2-2.522-.2-2.522-1.69-4.316-2.806-1.95-5.404-1.48-8.698-1.18l-2 2c-.059 2.02-.059 2.02 1 4a396 396 0 0 0 5 3v3c-3.613.336-5.626.195-8.875-1.5-2.432-2.861-2.849-4.785-2.625-8.531.84-3.305 2.895-4.922 5.5-6.969 3.064-1.532 5.617-1.23 9-1 4.146 1.832 6.565 4.2 9 8 .614 3.1.695 6.158.75 9.313l.09 2.533c.07 2.05.117 4.102.16 6.154l1.813-.687L468 732c1.75 1.438 1.75 1.438 3 3l-.003-2c.012-3.022.07-6.041.128-9.062l-.008-3.147c.16-6.26.882-10.014 5.253-14.612C478 705 478 705 481.562 704.313"/><path fill="#d9dadb" d="M176 591c5.614 1.6 10.227 3.408 14 8 .502 2.815.502 2.815.496 6.066l.01 3.63-.069 3.866-.046 3.991c-.205 10.43-1.151 20.273-3.391 30.447l-.749 3.443C176.29 695.71 176.29 695.71 171 701c-1.85.154-3.707.222-5.562.25l-3.067.078c-4.23-.412-7.448-1.71-11.371-3.328-.995-20.4 2.534-40.67 6.285-60.664.99-5.64 1.57-11.335 2.215-17.024 2.758-23.94 2.758-23.94 5.84-28.136 3.25-2.302 6.865-1.706 10.66-1.176"/><path fill="#b08b4a" d="m362 594-1.75.813L358 596l-2.312 1.063c-2.12 1.998-2.12 1.998-1.633 5.832.815 6.145 3.584 11.268 6.382 16.73q1.506 2.985 2.997 5.977l1.345 2.635c6.135 13.884 2.966 28.155-.216 42.326q-.737 3.393-1.468 6.788a799 799 0 0 1-.914 4.17c-2.03 9.155-4.096 19.1-.868 28.167 1.644 2.533 1.644 2.533 4.687 4.312 10.26 1.303 17.8-3.756 26-9.437 5.089-3.37 10.31-5.179 16.063-7.063 11.77-3.903 19.785-8.354 25.937-19.5 1.248-2.497.952-3.813.625-6.562l-.273-2.442c-.154-1.99-.154-1.99-1.352-2.996a153 153 0 0 0-6.562-.062l-3.63.027L420 666l1-4-2.016-.028a916 916 0 0 1-9.109-.222l-3.172-.043c-6.075-.192-10.207-.41-14.703-4.707-1.11-2.786-.872-5.148 0-8 3.91-3.72 7.759-4.76 13-5l3.102-.227c9.992-.42 18.515 1.639 26.898 7.227l.375-2.375C436 646 436 646 438 644l-.219 2.055c-1.327 11.615-1.327 11.615.281 23.07 1.954 8.074-.414 13.828-4.207 20.973-5.865 9.175-14.333 12.99-24.154 16.792-14.022 5.275-14.022 5.275-26.701 13.11a479 479 0 0 1-4.937 3.313l-2.215 1.488c-3.865 2.508-7.324 2.773-11.848 2.199-5.307-2.347-7.091-5.459-9.238-10.586-1.52-4.816-1.89-9.535-1.895-14.562l-.006-3.523.014-3.704.006-3.816c.036-7.762.33-15.431.88-23.172.98-14.936-.877-27.729-4.695-42.168-4.57-18.016-4.57-18.016-1.082-25.614 4.024-5.103 7.767-6.139 14.016-5.855"/><path fill="#dbdcdd" d="M766 619c3.754 1.765 7.38 3.725 10 7 2.764 11.72-4.703 25.626-10.379 35.488-5.296 8.206-12.035 15.339-18.621 22.512q-1.515 1.671-3.027 3.344l-3.16 3.468-1.476 1.635c-3.229 3.52-6.405 6.819-10.337 9.553-4.34.086-6.82-2.111-10.062-4.812l-2.536-2.083L714 693l-2.371-1.887C710 689 710 689 710.205 686.181c.837-3.348 1.928-5.376 3.893-8.193l1.917-2.779 2.048-2.896 2.08-2.995c3.924-5.629 7.886-11.23 11.966-16.748a553 553 0 0 0 5.643-7.847c4.274-6.025 8.623-11.96 13.248-17.723l1.398-1.773c6.656-8.27 6.656-8.27 13.602-6.227"/><path fill="#afb1b3" d="M96 531c8.92 5.285 14.058 15.232 18.938 24 10.295 18.412 25.704 30.189 45.062 38 .291 6.44-.82 12.432-2 18.75l-.66 3.613q-.945 5.154-1.906 10.304-.69 3.706-1.375 7.414l-.494 2.66-1.01 5.46q-1.29 6.976-2.62 13.947c-1.546 8.117-3.04 16.209-4.138 24.399-.182 1.247-.364 2.494-.55 3.779a162 162 0 0 0-.821 6.733c-.456 3.057-.91 5.243-2.426 7.941-3.743 2.754-7.657 4.404-12 6l-3.294 1.283C114.802 709.776 107.5 708.023 96 703l-3.523-1.668c-8.552-3.974-15.54-6.641-24.818-3.553-4.37 1.622-8.652 3.412-12.925 5.276-6.02 2.57-11.877 4.229-18.484 4.258l-2.734.05C30.572 706.938 29.2 705.95 27 704l2.422-.043c14.862-.645 26.189-7.744 38.776-15.005 5.513-2.912 11.61-2.746 17.552-1.268 7.73 2.646 14.34 6.82 21.188 11.191 6.989 2.568 13.545 1.637 20.437-.875 5.743-2.705 8.408-5.063 10.625-11 4.315-12.368 6.28-25.033 8.105-37.969 1.46-10.165 3.778-20.139 6.02-30.156l.84-3.766Q153.98 610.555 155 606l-2.74-.398c-2.756-.509-4.894-1.115-7.432-2.239l-2.248-.99-2.33-1.06-2.42-1.098c-14.2-6.538-23.446-13.15-29.455-28.106-1.99-5.627-3.346-11.447-4.64-17.268-1.34-5.913-2.459-10.323-7.735-13.841-4.918-.728-8.91-.545-13.375 1.688-5.41 4.766-7.213 8.368-8.625 15.312h-1c-.46-7.138.357-12.744 4-19 4.965-5.587 11.262-9.79 19-8"/><path fill="#1f4174" d="M727 583c-4.654 22.575-12.446 50.746-32.598 64.516L692 649l-2.996 1.86c-23.899 14.064-52.987 19.005-80.004 23.39l-2.334.379c-8.296 1.334-16.6 2.537-24.943 3.535l-2.106.254A96 96 0 0 1 565 679c-1.305-4.16-2.12-7.65-2-12q5-.69 10-1.375l2.773-.383c5.634-.771 11.27-1.492 16.914-2.176 8.473-1.044 16.897-2.33 25.313-3.754l2.289-.387c13.564-2.325 26.66-5.514 39.711-9.925l2.36-.781c18.696-6.266 30.94-14.594 39.812-32.371 4.23-8.775 7.584-17.01 7.828-26.848q3.403-1.51 6.813-3l1.947-.867c2.918-1.27 5.023-2.133 8.24-2.133"/><path fill="#ae8a4b" d="M486 621c1.686 3.371-.311 6.72-1.437 10.125l-.737 2.285A1021 1021 0 0 1 482 639l1.836-1.172C496.52 629.944 508.91 625.58 524 627c3.39.926 5.09 1.889 8 4 1.25 2.5 1.25 2.5 1 5-2.984 4.612-7.94 5.711-13 7q-3.281.596-6.562 1.188c-6.626 1.33-12.058 3.808-17.932 7.031-3.856 2.095-7.13 3.335-11.506 3.781v3h9l1 4-6.152.684c-1.86.135-1.86.135-2.848 1.316-.53 7.548.823 13.464 5.438 19.563 8.081 8.586 19.177 11.976 30.113 15.421 8.864 2.867 16.22 7.104 23.511 12.891 4.878 3.517 8.028 3.792 13.938 3.125l.902-1.812a386 386 0 0 1 2.66-5.188c2.193-5.06 2.179-10.561 2.438-16h1c.597 18.22.597 18.22-4.75 26.813-3.88 3.771-7.513 5.067-12.875 5.437-7.25-1.253-13.97-7.624-19.648-12.004-8.508-6.242-19.106-8.422-29.227-10.808-8.484-2.081-14.652-4.946-19.5-12.438-2.382-4.207-4.674-8.34-6-13a138 138 0 0 1 2-6c.34-3.75.325-7.487.313-11.25l.048-2.988c.004-5.129-.39-9.289-2.13-14.133-1.417-4.232-1.417-4.232.269-7.836l2.5-2.606 2.438-2.644L481 626l2.813-2.824z"/><path fill="#464788" d="M462 782c4.66 4.66 5.886 6.495 7.027 12.45l.468 2.187c.498 2.347.97 4.698 1.442 7.05q.514 2.44 1.033 4.88 1.04 4.898 2.059 9.802c1.334 6.394 2.763 12.764 4.221 19.131l.672 3.026c1.317 5.795 1.317 5.795 3.295 11.39 3.043 7.356 2.802 11.565-.176 18.941l-1.478 3.33-1.374 3.366c-2.657 6.393-5.664 12.49-9.189 18.447-3.602-2.747-4.541-6.74-5.867-10.879l-.784-2.404c-2.998-9.426-5.246-19.023-7.474-28.654q-.63-2.672-1.262-5.342A1675 1675 0 0 1 451 833l-.617-2.722q-.888-3.951-1.75-7.907l-.547-2.423c-1.201-5.602-1.201-5.602-.086-8.948l2 1c4.446.143 7.663.084 12-1z"/><path fill="#474887" d="M471 677c.785 1.81 1.503 3.65 2.188 5.5 2.763 6.892 6.58 12.268 11.812 17.5-7.019.29-13.846-.238-20.812-1-15.792-1.942-15.792-1.942-31.188 1-.926 11.116 3.914 19.816 9.863 28.941C444 731 444 731 444 734l-5 2c-.63 5.973-.63 5.973 2.375 10.938 2.42 2.043 2.42 2.043 4.625 3.062-1.019 2.273-1.809 3.83-3.687 5.5-1.512 1.395-1.512 1.395-1.313 3.313 1.476 3.228 3.647 5.532 6 8.187a363303841.584 363303841.584 0 0 1-6.836 5.371C438 774 438 774 436 775l-.959-3.016c-6.002-18.846-12.075-37.602-19.292-56.027A120 120 0 0 1 414 711l2.125-1.25c13.55-8.247 20.821-18.188 26.875-32.75 4.291-.196 8.583-.38 12.875-.562l3.707-.17 3.535-.147 3.27-.143C469 676 469 676 471 677"/><path fill="#030303" d="M529 432c6.085 3.308 10.226 8.49 12.406 15.031 1.846 9.23 2.016 18.694-2.914 26.98-3.231 4.306-7.14 7.773-12.492 8.989-5.74.348-9.894-.398-14.375-4.125-6.45-6.345-8.75-12.61-8.937-21.562.086-9.23 2.767-15.026 8.75-21.903 4.992-4.506 11.187-4.562 17.562-3.41"/><path fill="#020202" d="M370.176 433.586c4.81 3.728 7.61 8.475 8.824 14.414.787 10.323.838 19.287-5.75 27.813-3.913 4.231-8.007 5.86-13.687 6.687-6.2-.87-10.68-3.964-14.438-8.937-5.282-7.666-4.803-16.69-4.125-25.563 1.418-6.937 4.548-11.198 9.902-15.723 6.62-4.03 13.188-2.841 19.274 1.309"/><path fill="#b5bfc4" d="M170 422h1l.088 2.237c1.635 37.266 12.812 68.94 40.162 94.95 27.824 24.381 60.5 31.798 96.75 29.813 5.456-.567 10.67-1.716 16-3a319 319 0 0 1 7-1c-4.34 2.893-9.097 4.288-14 6l-2.336.855c-10.497 3.733-20.828 4.508-31.914 4.457-1.286-.005-2.572-.01-3.897-.017-9.006-.115-17.193-.662-25.853-3.295l-1.961-.57C225.373 544.834 200.995 528.162 187 505l-1.98-3.2c-4.96-8.203-9-16.692-12.02-25.8l-.642-1.9c-4.606-14.383-6.884-37.38-2.358-52.1"/><path fill="#6398ce" d="m411 610 2.24.076c24.582.823 49.17 1.395 73.76 1.924l-2.865 3.352-1.612 1.885c-2.494 2.887-5.098 5.673-7.687 8.474-1.807 2.252-2.68 4.207-3.774 6.851-1.136 1.977-1.136 1.977-3.062 3.438-4.368.534-8.457.444-12.836.164-3.322-.211-5.84.16-9.039 1.149-2.027.296-2.027.296-4.125-.313-3.074-2.978-5.633-6.176-8.242-9.559-6.014-7.735-13.9-12.521-22.758-16.441z"/><path fill="#afb1b3" d="m778 634 1 3c2.015.733 2.015.733 4 1-.508 5.61-2.013 9.726-4.625 14.688l-1.099 2.127A596 596 0 0 1 774 661l-1.629 3.074c-3.934 7.07-8.605 13.534-13.377 20.051a422 422 0 0 0-10.682 15.25l-1.241 1.855c-3.692 5.58-5.563 8.63-4.632 15.295.993 4.381 2.916 8.265 4.874 12.288q1.233 2.657 2.457 5.32l1.178 2.555c3.92 8.61 5.521 16.223 5.726 25.615.094 3.758.188 5.49 2.326 8.697 5.743-.469 9.089-2.015 14-5h2c-.644 6.442-2.99 11.487-7 16.5-4.733 2.366-9.811 2.32-15 1.5-1.66-1.16-1.66-1.16-3-3-.293-2.676-.293-2.676-.187-5.883l.07-3.539.234-7.336c.14-7.06-.218-12.767-3.117-19.242l-1.543-3.45-1.644-3.237-.893-1.78a133 133 0 0 0-5.154-9.228c-7.175-11.7-7.175-11.7-6.614-17.235 1.532-3.74 4.408-6.11 7.36-8.78 4.015-3.695 7.18-7.967 10.488-12.29q1.425-1.815 2.852-3.629C763.712 670.116 774.085 653.185 778 634"/><path fill="#f7a01b" d="m456.813 638.625 2.736-.113c4.535-.06 6.755-.012 10.525 2.699 3.781 5.476 3.172 11.916 3.238 18.351l.088 2.866c.036 3.874.02 6.735-1.732 10.228-4.431 2.232-8.812 1.61-13.668 1.282l-3.023-.124c-8.327-.463-8.327-.463-11.977-3.814-1.663-4.67-1.222-10.087-1.25-15l-.062-2.695c-.03-4.905.037-8.362 3.312-12.305 3.624-1.812 7.821-1.313 11.813-1.375"/><path fill="#b1b3b5" d="M787.375 734c4.511 1.244 6.304 3.123 8.625 7 7.493 13.795 10.828 28.37 9 44-1.012 2.86-1.012 2.86-2 5-.288 4.154-.288 4.154 1 8l2.063-.437c3.3-.632 6.608-1.106 9.937-1.563-2.459 5.485-4.884 10.552-10 14-3.187.563-3.187.563-6 0-4.64-3.618-5.048-9.508-6-15-.354-3.412-.61-6.83-.875-10.25-1.124-13.922-5.4-26.028-11.125-38.75l-1.625-3.625c-1.296-2.641-1.296-2.641-4.375-4.375l2.313-.875c7.465-3.125 7.465-3.125 9.062-3.125"/><path fill="#afb1b3" d="M181 593c6.923 3.23 6.923 3.23 9 6 .388 2.701.388 2.701.398 5.969l.02 3.638-.043 3.893-.015 1.995c-.099 11.112-.972 21.657-3.36 32.505l-.749 3.443C176.29 695.71 176.29 695.71 171 701c-7.36.612-13.295.094-20-3v-3l2.23-.297 2.958-.453 2.917-.422c4.58-1.31 7.066-3.457 9.52-7.515 7.742-18.652 9.424-39.337 11.688-59.25l.264-2.295c2.28-15.99 2.28-15.99.423-31.768M49.5 586.25l6.824 1.398 3.392.703c3.074.607 6.147 1.134 9.241 1.626l2.754.463q2.524.423 5.059.776c4.3.756 6.576 1.644 9.242 5.202 2.321 3.61 2.592 6.281 1.988 10.582a266 266 0 0 1-2.2 5.469c-1.777 5.619-2.153 11.687-2.8 17.531-2.43-3.646-2.023-4.915-1.687-9.187.024-4.484-.034-7.52-2.813-11.125-5.656-5.47-13.39-8.537-20.5-11.688l-1.922-.854c-10.947-4.783-24.706-6.464-36.328-2.896-5.106 2.1-8.657 5.192-11.75 9.75-2.967-4.08-3.639-6.983-3-12 2.944-4.608 7.96-5.688 13-7 10.61-2.202 21.019-.956 31.5 1.25"/><path fill="#ae8a4b" d="M408.102 643.773c9.992-.42 18.515 1.639 26.898 7.227l.375-2.375C436 646 436 646 438 644l-.219 2.055c-.875 8.777-1.297 17.228.219 25.945l-2 1-3-7h-13l1-4-2.016-.028a916 916 0 0 1-9.109-.222l-3.172-.043c-6.075-.192-10.207-.41-14.703-4.707-1.11-2.786-.872-5.148 0-8 4.883-4.645 9.775-4.764 16.102-5.227"/><path fill="#0b0c0c" d="m576.063 367.75 2.968-.028 2.692.012 2.305.007C586 368 586 368 589 370c.375 3.5.375 3.5 0 7-3.615 2.41-6.152 2.234-10.317 2.135l-2.248-.028c-2.451-.034-4.902-.082-7.353-.13q-2.55-.04-5.099-.076c-4.473-.067-8.947-.146-13.42-.227-4.564-.081-9.13-.15-13.694-.22Q523.435 378.242 510 378c-1.125-3.75-1.125-3.75 0-6a78 78 0 0 1 6.969-1.055l2.167-.25c8.103-.897 16.225-1.396 24.364-1.82l2.348-.126c10.068-.537 20.13-.947 30.215-.999"/><path fill="#aeb0b2" d="M771 622c2.5 1.313 2.5 1.313 5 4 2.92 11.578-4.766 25.735-10.379 35.488-5.296 8.206-12.035 15.339-18.621 22.512q-1.515 1.671-3.027 3.344l-3.16 3.468-1.476 1.635c-3.229 3.52-6.405 6.819-10.337 9.553-4.34.086-6.82-2.111-10.062-4.812l-2.536-2.083c-4.483-3.928-4.483-3.928-6.402-6.105 0-4.989 2.096-8.066 5-12 1 2 1 2 .563 4.688.6 4.548 2.738 5.975 6.101 8.894 3.003 1.823 4.797 2.484 8.336 2.418 2.453-1.859 4.268-3.51 6.313-5.75l1.726-1.815c4.94-5.255 9.534-10.743 13.961-16.435l3.16-3.902c5.515-6.891 10.614-13.791 14.653-21.66.33-.63.662-1.26 1.004-1.91 2.823-5.85 2.962-10.802 1.183-17.028z"/><path fill="#080808" d="m296.346 374.741 1.971-.01a895 895 0 0 1 6.464.003l4.484-.005q4.701-.005 9.402.01c4.022.012 8.043.005 12.065-.007q4.63-.009 9.26 0 2.224.003 4.45-.005a793 793 0 0 1 6.212.014l3.575.005C357 375 357 375 359 377c-.375 2.125-.375 2.125-1 4l-1.826.06c-11.01.378-21.933.888-32.873 2.205-9.51 1.141-19.036 1.754-28.613 1.985l-3.176.078L289 385c-2-3-2-3-1.75-5.563 1.578-5.129 4.254-4.69 9.096-4.696"/><path fill="#afb1b3" d="m54 628 2 2-.875 1.563c-1.283 2.516-1.283 2.516-1.75 5.812-2.11 5.56-6.44 8.24-11.744 10.743a225 225 0 0 1-7.506 2.82c-6.832 2.552-12.584 5.158-18.152 10.007C14 662 14 662 11.309 661.43 9 660 9 660 8.188 657.875L8 656c8.594-8.976 19.266-13.494 30.445-18.398l2.765-1.22a451 451 0 0 1 5.403-2.325l2.477-1.077 2.214-.94c2.04-1.001 2.04-1.001 2.696-4.04"/><path fill="#4a4a87" d="M450 770c3.32 1.89 4.907 2.889 7 6 .905 5.475.66 10.847.438 16.375q-.054 2.271-.096 4.543A607 607 0 0 1 457 808c-6.687.281-6.687.281-9.5-2.25-1.5-2.75-1.5-2.75-1.25-5.062L447 799h6v-4h-9l-1 3-4-17 3 1c1.394.067 2.792.085 4.188.063L450 782v-3l-8-1c1.502-4.206 4.286-5.739 8-8"/><path fill="#a46b2f" d="m451.57 638.902 2.715.01 2.84.025 2.863.014q3.507.018 7.012.049v1l-17 1c-2.055 12.466-2.055 12.466 1 24 2.918 1.087 5.72 1.135 8.813 1.125l2.457.008c3.261-.159 6.497-.671 9.73-1.133v-16h1c.116 3.416.187 6.832.25 10.25l.102 2.934c.054 3.948.092 6.922-1.68 10.492-4.44 2.2-8.82 1.59-13.672 1.261l-3.023-.123c-8.327-.463-8.327-.463-11.977-3.814-1.663-4.67-1.222-10.087-1.25-15l-.062-2.695c-.03-4.905.037-8.362 3.312-12.305 2.4-1.2 3.894-1.115 6.57-1.098"/><path d="M414 539c15.134-.067 30.246.123 45.375.5l6.059.145q7.282.173 14.566.355c.563 1.938.563 1.938 1 4-1.799 1.799-4.516 1.128-6.94 1.13l-3.854.009-4.198-.006q-2.14 0-4.279.003-4.492.001-8.983-.006-5.76-.006-11.518.004-4.42.005-8.843 0-2.122 0-4.246.002-2.97.003-5.94-.007l-3.415-.002C416 545 416 545 413 544z"/><path fill="#dcb92e" d="M478 776v34c6.518.647 6.518.647 9.438-1.625 1.958-2.978 1.88-4.879 1.562-8.375l-7-1c-.562-1.937-.562-1.937-1-4 1-1 1-1 4.25-1.25 3.924.262 5.667.892 8.75 3.25 1.536 3.072 1.227 5.602 1 9-1.258 3.442-2.38 5.452-5.125 7.875-3.918 1.533-7.755 2.197-11.875 1.125-3.242-2.622-4.827-4.108-5.631-8.258l.002-3.652-.006-3.998.038-2.067a242 242 0 0 0 .001-6.254c.075-10.13.075-10.13 2.569-13.195C477 776 477 776 478 776"/><path fill="#b0b2b4" d="M812 719c2.625-.5 2.625-.5 6 0 8 6.585 12.901 21.964 14 32 .132 3.342.126 6.658 0 10l2 1q-1.463 2.504-2.937 5l-1.653 2.813L828 772h-1l-.332-3.7c-1.32-14.024-2.98-26.256-10.145-38.62C815 727 815 727 814 724h-3z"/><path fill="#ddb92f" d="M481.563 704.313c4.024.804 5.738 1.59 8.437 4.687.987 3.619 1.206 6.094.375 9.75-1.765 2.889-3.259 3.946-6.375 5.25-2.812-.312-2.812-.312-5-1 .188-1.875.188-1.875 1-4 2.563-1.25 2.563-1.25 5-2 .167-2.416.167-2.416 0-5l-2-2c-2.782.405-2.782.405-5 2a148 148 0 0 0-.316 6.441l-.127 3.955-.12 4.167-.13 4.177q-.16 5.13-.307 10.26c-4.806-3.227-4.806-3.227-5.663-6.638-.04-3.227-.067-6.447-.024-9.674l-.084-3.381c.019-6.439.587-10.447 5.135-15.155C478 705 478 705 481.563 704.312"/><path fill="#ddba2c" d="M454 707c4.154 1.836 6.566 4.189 9 8 .772 3.344.967 6.641 1.125 10.063l.242 2.72c.137 2.553.18 4.719-.367 7.217-3.008 2.621-3.008 2.621-6 4l-.044-2.064c-.075-3.083-.171-6.166-.269-9.249l-.068-3.248-.107-3.115-.08-2.872c-.504-2.859-1.072-3.795-3.432-5.452-3.542-.417-3.542-.417-7 0l-2 2c-.059 2.02-.059 2.02 1 4a396 396 0 0 0 5 3v3c-3.613.336-5.626.195-8.875-1.5-2.432-2.861-2.849-4.785-2.625-8.531.84-3.305 2.895-4.922 5.5-6.969 3.064-1.532 5.617-1.23 9-1"/><path fill="#aeb0b2" d="m94 599 1 2h6c1.01 2.568 1.253 4.34.255 6.942a154 154 0 0 1-3.63 6.62q-1.267 2.249-2.523 4.504l-1.146 1.999c-3.61 7.31-2.257 15.457.044 22.935.125 3.438.125 3.438 0 6l-4.395-3.809c-1.712-1.4-1.712-1.4-4.605-2.191l1-2c.081-1.346.108-2.695.105-4.043.137-10.243 1.073-18.318 5.52-27.598C93.228 606.444 93.633 603.2 94 599"/><path fill="#b0b1b3" d="M824 680c7.056 2.215 9.791 8.14 13.3 14.273 2.79 5.618 3.985 11.446 3.7 17.727-.992 2.828-.992 2.828-2 5-2-1-2-1-2.71-2.785-.22-.752-.44-1.503-.665-2.278-2.333-7.35-5.608-16.229-12.781-20.101L821 691c.114-1.46.242-2.917.375-4.375.07-.812.14-1.624.21-2.46C822 682 822 682 824 680"/><path fill="#d7b42e" d="M457 777c5 4 5 4 5.568 7.208l-.08 3.745-.021 2c-.028 2.1-.09 4.198-.154 6.297a1319 1319 0 0 0-.069 4.281c-.055 3.49-.141 6.98-.244 10.469-4.153 2.169-7.342 2.738-12 2-2.757-1.669-3.69-3.046-4.68-6.094-.97-3.984-1.586-7.79-1.32-11.906h9v4l-6 1c.575 3.93.575 3.93 3 7l7 1z"/><path fill="#b4adc3" d="M451 754c1.57.217 3.137.446 4.697.722 2.88.348 5.668.295 8.569.235l3.445-.064q3.563-.082 7.125-.196l3.43-.052 3.118-.083c2.616.438 2.616.438 4.474 2.46L487 759c-2.187 2.563-2.187 2.563-5 5-1.678-.273-3.342-.624-5-1-3.146-.163-6.288-.14-9.437-.125l-2.526-.012c-3.634.006-6.878.105-10.455.828-2.582.309-2.582.309-4.262-.906L447 758c1.563-2.062 1.563-2.062 4-4"/><path fill="#234071" d="M471 677c.73 2.314 1.401 4.648 2 7-1 1-1 1-3.96 1.114l-3.919-.016-2.08-.005a2051 2051 0 0 1-6.603-.03q-2.234-.008-4.467-.014-5.486-.017-10.971-.049c.875-5.75.875-5.75 2-8 4.291-.196 8.583-.38 12.875-.562l3.707-.17 3.535-.147 3.27-.143C469 676 469 676 471 677"/><path fill="#886231" d="m517 634 1 5c-5.876 2.829-11.802 4.954-18 6.938-5.89 1.887-11.242 3.886-16.469 7.277L482 654l-2-1c11.896-11 11.896-11 17-11v-2l-7 2c2.722-3.556 6.58-4.44 10.688-5.687l2.068-.682c4.902-1.523 9.116-1.844 14.244-1.631"/><path fill="#060606" d="M557.676 586.027c4.968 2.936 7.398 5.898 8.984 11.434 1.02 7.62-.208 14.561-1.66 22.039l-.578 3.07q-.702 3.717-1.422 7.43l-2-1q.215-2.344.438-4.687c.08-.87.162-1.74.246-2.637.316-2.676.316-2.676.832-4.98.668-3.719.747-7.363.797-11.134l.087-2.236c.061-5.256-.965-8.137-4.4-12.326-3.425-2.936-6.77-3.704-11.285-3.54-10.283 2.043-19.643 9.198-27.715 15.54 0-3 0-3 2.094-5.426 2.992-2.65 5.987-4.697 9.406-6.761l3.344-2.043c7.265-4.074 14.76-5.841 22.832-2.743"/><path fill="#342613" d="m418.75 649.938 2.984.027L424 650l-2 2c4.531.934 4.531.934 9 0l2 2c-.375 2.125-.375 2.125-1 4l-1.709-.016q-3.896-.029-7.791-.047l-2.687-.025c-4.173-.015-8.209.072-12.344.654C404 659 404 659 402 658c1.458-3.845 3.365-5.182 7-7 3.29-1.054 6.308-1.103 9.75-1.062"/><path fill="#7573b0" d="M466 739c2.468 1.152 4.048 2.048 6 4 .195 2.164.195 2.164.125 4.625l-.055 2.477L472 752q-2.594.04-5.187.063l-2.918.035c-2.75-.093-5.22-.477-7.895-1.098 1.477-3.452 3.438-5.65 6.125-8.25l2.195-2.14z"/><path fill="#7875af" d="M462 766h11c.313 3.188.313 3.188 0 7-2.5 2.938-2.5 2.938-5 5-2.468-1.152-4.048-2.048-6-4-.27-2.688-.087-5.291 0-8"/><path fill="#e3e3e4" d="M365.563 437.188C368 438 368 438 370 440c.337 3.164.5 5.185-1.187 7.938C367 449 367 449 364.438 448.875 362 448 362 448 360 445c-.361-2.892-.384-4.393 1.188-6.875C363 437 363 437 365.563 437.188"/><path fill="#f1f2f2" d="M527.5 438.75c2.5.25 2.5.25 4.5 2.25.25 3.5.25 3.5 0 7-2 2-2 2-4.5 2.313L525 450c-2.302-3.452-2.345-4.947-2-9 2-2 2-2 4.5-2.25"/><path fill="#54528c" d="m454.75 754.25 3.25.75v8c-2.687.875-2.687.875-6 1-2.135-1.793-3.39-3.678-5-6 2.598-3.43 3.32-4.045 7.75-3.75"/><path fill="#040404" d="M513.25 633.875 517 634l1 5c-5.522 2.616-11.1 4.832-16.875 6.813l-1.983.7c-4.787 1.605-4.787 1.605-8.142.487 7.588-4.268 15.696-6.541 24-9v-2h-10c3.611-1.806 4.545-2.249 8.25-2.125"/><path fill="#7b77b0" d="M484 755c1.813 2 1.813 2 3 4-2.187 2.563-2.187 2.563-5 5-2.812-.187-2.812-.187-5-1v-7c2.575-1.287 4.147-1.348 7-1"/><path fill="#0d0d0d" d="m538 587 2 1v2c-1.765 1.159-3.59 2.226-5.437 3.25A206 206 0 0 0 519 603c2.565-5.984 7.22-9.013 12.625-12.312l1.773-1.127c1.495-.92 3.046-1.75 4.602-2.561"/><path fill="#976f37" d="M515 635v4c-5.823 1.968-10.834 3.402-17 3 2.222-2.222 4.085-2.926 7-4v-2c3.406-.778 6.508-1.1 10-1"/><path fill="#010102" d="M439.992 551.77C442 552 442 552 445 554v3h-13c1.467-5.868 2.185-5.113 7.992-5.23"/><path fill="#262729" d="M587 510c4.033.537 5.945 2.542 8.75 5.375l2.422 2.398C600 520 600 520 600 523c-3.822-.539-5.235-2.052-7.625-5-2.32-2.956-2.32-2.956-5.375-5z"/><path fill="#664924" d="m493 658 1 4-3.875.375c-3.473.315-3.473.315-6.125 2.625h-3c.25-2.375.25-2.375 1-5 3.296-2.662 6.933-2.156 11-2"/><path fill="#151616" d="M593 505c3.738.553 5.263 1.978 7.688 4.813l1.824 2.082c1.482 2.096 2.065 3.597 2.488 6.105-3.372-1.466-5.65-3.352-8.25-5.937l-2.14-2.09C593 508 593 508 593 505"/><path fill="#50508e" d="M444 738c1.813.188 1.813.188 4 1 2.142 2.907 3 4.355 3 8-4.314-.48-6.166-1.746-9-5z"/><path fill="#664b27" d="m428.688 661.938 2.449.027L433 662v4h-13l1-3c2.882-.96 4.699-1.106 7.688-1.062"/><path fill="#dfba26" d="M444 795h9v4l-6 1-1 5h-1z"/><path fill="#6a5534" d="M413 650h11c-2 3-2 3-4.383 3.512l-2.742.176-2.758.199L412 654v2l-8 1c2.834-3.254 4.686-4.52 9-5z"/><path fill="#6c5837" d="M505 636v2l3 1-11 3v-2l-7 2c2.137-2.377 3.938-3.6 6.938-4.687l2.027-.762C501 636 501 636 505 636"/><path fill="#7471ac" d="M462 757h10v4h-10z"/><path fill="#232425" d="M302 538c-.472 4.252-2.85 6.3-6 9h-3c.553-4.976 3.933-9 9-9"/><path fill="#cfb356" d="M463 743v9l-7-1c1.157-2.7 3.614-8 7-8"/><path fill="#846d46" d="M497 640v2l-11 6v-2l-2-1c3.91-3.309 7.845-5 13-5"/><path fill="#a3a5a7" d="M771 622c2.5 1.313 2.5 1.313 5 4 .8 5.188.949 9.577-2 14l-.148-2.414c-.552-7.968-.552-7.968-2.852-15.586"/><path fill="#d7b94f" d="M472 744c2.5 1.813 2.5 1.813 5 4v3l-5 1z"/><path fill="#070707" d="M296 533c-.54 3.785-2.076 5.592-5 8h-3c1.517-3.54 3.753-8 8-8"/><path fill="#86693f" d="m429 652 4 2-1 4h-5z"/><path fill="#907950" d="m362 594-1.742.84c-2.213 1.137-4.285 2.386-6.383 3.722-1.94 1.234-3.818 2.41-5.875 3.438 2.274-6.366 7.588-8.61 14-8"/><path fill="#e4c028" d="M473 756h4v6h-4z"/><path fill="#e4bf23" d="M458 756h4v6h-4z"/><path fill="#624a2a" d="M491 649a432 432 0 0 1-4.375 2.563l-2.46 1.44L482 654l-2-1c3.082-3.539 6.299-6.35 11-4"/><path fill="#e0bd2b" d="M458 767h4v6l-5-5z"/><path fill="#ae894a" d="M497 640v2a101 101 0 0 1-6 3l-2-1c2.701-2.824 3.944-4 8-4"/><path fill="#785d3a" d="M510 635h5v4l-5 1 2-3z"/></svg>