<svg xmlns="http://www.w3.org/2000/svg" width="695" height="786"><path fill="#cda6cd" d="M254.188 4.75 257 7l1.602 1.25c8.206 7.195 13.36 18.398 16.773 28.563 1.572 4.093 1.572 4.093 5.125 6.414q2.871.71 5.781 1.234c4.134.82 6.875 2.447 9.719 5.539 6.51 9.757 10.333 22.651 13 34l2.292.335c3.445.508 6.889 1.024 10.333 1.54l3.605.527 3.497.528 3.205.476c3.146.61 6.054 1.516 9.068 2.594l-.875-2.098c-3.3-8.694-5.172-18.17-2.395-27.304 1.956-3.775 4.356-6.066 8.27-7.598 9.306-2.387 17.846.224 26.133 4.688 4.44 2.747 8.263 5.516 11.867 9.312l.883-2.309C389.459 53.165 395.4 42.503 406.375 36c6.07-1.674 11.274-2.176 17 .688C430.245 42.74 434.201 50.812 435 60c.281 5.811-.403 10.41-2 16l2.492.078c9.683.492 17.773 1.518 24.57 8.922 3.95 4.758 4.34 8.879 3.938 15-1.946 9.765-7.952 17.188-16.031 22.781-5.87 3.634-10.229 4.574-16.969 4.219q1.33 2.352 2.688 4.688l1.511 2.636c2.006 2.981 4.188 5.208 6.801 7.676l1.677 1.592c1.87 1.769 3.752 3.527 5.635 5.283l2.029 1.894c3.256 3.03 6.526 6.028 9.909 8.918 7.876 6.796 15.02 14.396 21.75 22.313q1.546 1.77 3.094 3.535l3.344 3.84 1.652 1.878c3.91 4.52 3.91 4.52 3.91 6.747 10.085-3.152 17.296-6.181 22.375-15.812C521 174.23 522.177 166.638 523 158h3c3.272 12.27 3.2 23.944-3.187 35.188-4.154 6.18-9.9 11.014-16.813 13.812h-2l1.094 1.68 1.406 2.195 1.406 2.18C509 215 509 215 509 217c15.25-3.08 25.91-7.664 35-21l1.594-2.805L547 191h2c-.244 10.432-3.867 18.548-10.988 26.18-6.252 5.656-12.762 8.49-21.012 9.82l1.313 2.555 1.687 3.32 1.688 3.305C523 239 523 239 523 241c10.267-2.001 19.136-4.58 28.34-9.61C554 230 554 230 556 230c-.115 3.789-1.42 5.778-3.937 8.438-6.786 6.368-14.291 9.818-23.063 12.562l.807 1.93c37.74 90.822 28.541 187.425-10.654 290.178-18.671 44.877-41.844 87.557-74.958 123.486a167 167 0 0 0-3.606 4.058c-4.905 5.73-10.164 11.075-15.504 16.394q-2.278 2.272-4.548 4.554c-5.34 5.343-10.768 10.518-16.537 15.4q-1.515 1.316-3.027 2.633c-8.73 7.476-17.765 14.491-26.973 21.367l-2.176 1.634c-29.302 21.915-77.46 57.589-116.469 52.917-3.233-.756-5.137-2.111-7.355-4.551-2.081-4.162-1.472-8.398-.2-12.715 2.223-5.934 4.822-11.668 7.467-17.421 16.292-35.517 20.009-71.23 6.424-108.59-6.56-17.068-16.37-32.989-27.691-47.274l-2.145-2.73c-11.32-14.136-24.026-27.808-37.843-39.54-2.495-2.145-4.904-4.376-7.324-6.605a230 230 0 0 0-11.063-9.5C161.465 525.168 148.227 512.343 137 498l-2.395-2.984C110.143 464.246 93.152 428.18 81 391l-2.05.484c-9.502 1.661-18.983 1.06-27.95-2.484v-3l3.402-.332c12.66-.582 12.66-.582 23.598-5.668-.418-2.2-.91-4.386-1.437-6.562l-.872-3.63L75 367l-2.457.105C61.229 367.382 52.229 365.718 43 359l-2.937-2c-2.393-2.32-2.79-3.726-3.063-7 5.628 1.825 5.628 1.825 8.18 3.023 9.077 3.988 18.112 3.34 27.82 2.977l-1-14-3.875-.187C59.034 340.769 51.636 336.097 46 329c-4.391-6.115-6.802-11.572-8-19h3c1.762 2.195 1.762 2.195 3.688 5.125C51.426 324.745 59.642 329.455 71 332l-.487-1.702C63.599 299.315 75.448 260.474 87 232l1.026-2.54C104.471 189.44 133.163 152.68 168 127q2.694-2.085 5.375-4.187L177 120l-1.645-2.93c-10.9-19.705-10.9-19.705-9.355-31.07 1.683-5.313 3.998-8.208 8-12 1.335-4.004.003-6.579-1.375-10.375-3.801-10.694-6.124-23.121-2-34.125C176.715 16.764 186.011 9.98 199 5c17.072-5.57 38.746-9.277 55.188-.25"/><path fill="#040404" d="M254.188 4.75 257 7l1.602 1.25c8.206 7.195 13.36 18.398 16.773 28.563 1.572 4.093 1.572 4.093 5.125 6.414q2.871.71 5.781 1.234c4.134.82 6.875 2.447 9.719 5.539 6.51 9.757 10.333 22.651 13 34l2.292.335c3.445.508 6.889 1.024 10.333 1.54l3.605.527 3.497.528 3.205.476c3.146.61 6.054 1.516 9.068 2.594l-.875-2.098c-3.3-8.694-5.172-18.17-2.395-27.304 1.956-3.775 4.356-6.066 8.27-7.598 9.306-2.387 17.846.224 26.133 4.688 4.44 2.747 8.263 5.516 11.867 9.312l.883-2.309C389.459 53.165 395.4 42.503 406.375 36c6.07-1.674 11.274-2.176 17 .688C430.245 42.74 434.201 50.812 435 60c.281 5.811-.403 10.41-2 16l2.492.078c9.683.492 17.773 1.518 24.57 8.922 3.95 4.758 4.34 8.879 3.938 15-1.946 9.765-7.952 17.188-16.031 22.781-5.87 3.634-10.229 4.574-16.969 4.219q1.33 2.352 2.688 4.688l1.511 2.636c2.006 2.981 4.188 5.208 6.801 7.676l1.677 1.592c1.87 1.769 3.752 3.527 5.635 5.283l2.029 1.894c3.256 3.03 6.526 6.028 9.909 8.918 7.876 6.796 15.02 14.396 21.75 22.313q1.546 1.77 3.094 3.535l3.344 3.84 1.652 1.878c3.91 4.52 3.91 4.52 3.91 6.747 10.085-3.152 17.296-6.181 22.375-15.812C521 174.23 522.177 166.638 523 158h3c3.272 12.27 3.2 23.944-3.187 35.188-4.154 6.18-9.9 11.014-16.813 13.812h-2l1.094 1.68 1.406 2.195 1.406 2.18C509 215 509 215 509 217c15.25-3.08 25.91-7.664 35-21l1.594-2.805L547 191h2c-.244 10.432-3.867 18.548-10.988 26.18-6.252 5.656-12.762 8.49-21.012 9.82l1.313 2.555 1.687 3.32 1.688 3.305C523 239 523 239 523 241c10.267-2.001 19.136-4.58 28.34-9.61C554 230 554 230 556 230c-.115 3.789-1.42 5.778-3.937 8.438-6.786 6.368-14.291 9.818-23.063 12.562l.807 1.93c37.74 90.822 28.541 187.425-10.654 290.178-18.671 44.877-41.844 87.557-74.958 123.486a167 167 0 0 0-3.606 4.058c-4.905 5.73-10.164 11.075-15.504 16.394q-2.278 2.272-4.548 4.554c-5.34 5.343-10.768 10.518-16.537 15.4q-1.515 1.316-3.027 2.633c-8.73 7.476-17.765 14.491-26.973 21.367l-2.176 1.634c-29.302 21.915-77.46 57.589-116.469 52.917-3.233-.756-5.137-2.111-7.355-4.551-2.081-4.162-1.472-8.398-.2-12.715 2.223-5.934 4.822-11.668 7.467-17.421 16.292-35.517 20.009-71.23 6.424-108.59-6.56-17.068-16.37-32.989-27.691-47.274l-2.145-2.73c-11.32-14.136-24.026-27.808-37.843-39.54-2.495-2.145-4.904-4.376-7.324-6.605a230 230 0 0 0-11.063-9.5C161.465 525.168 148.227 512.343 137 498l-2.395-2.984C110.143 464.246 93.152 428.18 81 391l-2.05.484c-9.502 1.661-18.983 1.06-27.95-2.484v-3l3.402-.332c12.66-.582 12.66-.582 23.598-5.668-.418-2.2-.91-4.386-1.437-6.562l-.872-3.63L75 367l-2.457.105C61.229 367.382 52.229 365.718 43 359l-2.937-2c-2.393-2.32-2.79-3.726-3.063-7 5.628 1.825 5.628 1.825 8.18 3.023 9.077 3.988 18.112 3.34 27.82 2.977l-1-14-3.875-.187C59.034 340.769 51.636 336.097 46 329c-4.391-6.115-6.802-11.572-8-19h3c1.762 2.195 1.762 2.195 3.688 5.125C51.426 324.745 59.642 329.455 71 332l-.487-1.702C63.599 299.315 75.448 260.474 87 232l1.026-2.54C104.471 189.44 133.163 152.68 168 127q2.694-2.085 5.375-4.187L177 120l-1.645-2.93c-10.9-19.705-10.9-19.705-9.355-31.07 1.683-5.313 3.998-8.208 8-12 1.335-4.004.003-6.579-1.375-10.375-3.801-10.694-6.124-23.121-2-34.125C176.715 16.764 186.011 9.98 199 5c17.072-5.57 38.746-9.277 55.188-.25M220 121l-2.852 2.203c-26.707 21.272-47.186 47.444-63.585 77.235l-1.505 2.725c-3.084 5.71-6.248 11.578-8.058 17.837l1 2 2.688-1.437c10.043-4.738 20.557-2.939 30.695.562 2.473.98 2.473.98 4.617.875v2l-2.094.313c-10.028 2.372-19.108 8.93-27.36 14.867-4.035 2.885-6.211 2.931-11.171 2.882l-3.602-.027L136 243c-5.698 19.688-5.698 19.688-7 40 3.263-1.438 5.487-3.237 8.063-5.687 4.954-4.47 10.165-7.982 15.937-11.313l3.11-1.816c20.221-10.99 43.607-13.731 65.89-8.059 11.098 3.68 21.386 10.05 30 17.875l2.703 2.422C266.61 287.662 274.102 300.854 280 316l.797 1.996c8.648 22.176 8.877 52.398-.598 74.367A111 111 0 0 1 267 414l-1.418 1.914C256.694 427.217 241.106 435.141 227 437c-20.989 1.62-40.418-2.794-57.312-15.812-8.736-7.515-16.483-15.426-22.688-25.188-1.27 3.807-.524 4.67 1.14 8.242l1.479 3.199 1.631 3.434 1.667 3.542A1273 1273 0 0 0 158 425l1.427 2.94C166.19 441.72 174.155 454.465 183 467l1.567 2.231C191.918 479.608 200.124 488.909 209 498l1.709 1.771c6.21 6.427 12.52 12.418 19.533 17.979 4.073 3.323 7.893 6.895 11.738 10.477 2.229 2.07 4.512 4.066 6.817 6.05 4.619 4.026 8.945 8.318 13.266 12.66l2.314 2.303c33.994 34.052 59.767 76.941 59.935 126.135l.017 3.528c-.088 10.697-1.715 20.823-4.642 31.097l-.667 2.35c-3.282 11.267-8.371 21.634-13.454 32.179A1073 1073 0 0 0 302 752l-.965 2.037c-1.465 3.226-2.41 5.842-2.223 9.4L299 767c3.573 1.29 4.96 1.016 8.54-.45a193 193 0 0 0 4.085-2.237l2.245-1.232c15.884-8.846 30.687-19.063 45.13-30.081l1.949-1.48c9.346-7.128 18.272-14.708 27.051-22.52l1.603-1.423c7.499-6.695 14.651-13.733 21.772-20.827l2.56-2.545c4.895-4.908 9.567-9.932 14.065-15.205q1.46-1.677 2.922-3.352c56.983-65.776 95.128-149.715 110.765-235.148l.458-2.468c3.628-19.727 5.243-39.102 5.168-59.157l-.005-2.97c-.06-22.111-2.094-43.381-7.308-64.905l-.538-2.312c-3.036-12.97-7.24-25.431-12.462-37.688l-1.141-2.788c-2.259-5.41-2.259-5.41-6.91-8.59l-3.261-.185-3.239-.253L509 249a402 402 0 0 1-8-1l.84 3.621 1.098 4.816.552 2.374c1.61 7.113 2.659 14.193 2.635 21.502l.008 2.425c-.13 2.21-.521 4.14-1.133 6.262l-.664-3.375C500.142 265.11 493.035 245.906 479 230l-2.082-2.48C462.579 210.856 441.978 196.79 420 193c2.885 2.244 5.861 4.132 9 6 24.859 15.834 38.518 41.38 44.875 69.5 4.501 27.062 1.02 54.644-14.75 77.438C446.862 361.653 431.063 372.463 411 375c-21.836 1.163-42.975-4.194-59.704-18.958C330.555 337.03 316.89 312.276 314 284c-.16-4.084-.185-8.163-.187-12.25l-.038-3.238c-.042-23.291 8.523-46.067 24.604-63.02 19.093-18.081 45.06-24.01 70.644-23.719 7.178.22 13.994 1.66 20.977 3.227l2.43.363C444.41 187.24 456.176 195.355 466 202c3.847 2.565 5.75 2.093 10.313 1.75l3.925-.266c3.505-.45 6.467-1.237 9.762-2.484-3.985-5.535-8.237-10.624-12.937-15.562l-1.96-2.071C459.639 165.724 459.639 165.724 441 152l-.48 1.977c-1.568 5.872-3.09 9.803-7.52 14.023-7.17 3.693-16.666 3.037-24.363 1.195-9.526-3.583-17.288-9.563-21.637-18.882a147 147 0 0 1-2-5.313l-1.312-3.687L383 139l-1.54 1.172C368.956 149.633 359.874 152.946 344 152c-7.713-1.247-14.295-4.554-19.348-10.617-3.862-5.565-4.456-10.795-3.652-17.383 2.594-8.062 7.903-14.942 15.188-19.312a83 83 0 0 1 4.05-1.899c2.043-.856 2.043-.856 4.762-2.789a789 789 0 0 0-7-2l-3.8-1.07c-12.755-3.142-25.454-3.343-38.512-3.368l-2.727-.017c-29.396-.13-50.018 9.648-72.961 27.455"/><path fill="#030304" d="m524 157 2 1c3.34 11.32 3.1 22.441-2.031 33.152-4.077 7.175-10.301 12.744-17.969 15.848h-2l1.094 1.68 1.406 2.195 1.406 2.18C509 215 509 215 509 217c15.25-3.08 25.91-7.664 35-21l1.594-2.805L547 191h2c-.244 10.432-3.867 18.548-10.988 26.18-6.252 5.656-12.762 8.49-21.012 9.82l1.313 2.555 1.687 3.32 1.688 3.305C523 239 523 239 523 241c10.267-2.001 19.136-4.58 28.34-9.61C554 230 554 230 556 230c-.115 3.789-1.42 5.778-3.937 8.438-6.786 6.368-14.291 9.818-23.063 12.562l.807 1.93c37.74 90.822 28.541 187.425-10.654 290.178-18.671 44.877-41.844 87.557-74.958 123.486a167 167 0 0 0-3.606 4.058c-4.905 5.73-10.164 11.075-15.504 16.394q-2.278 2.272-4.548 4.554c-5.34 5.343-10.768 10.518-16.537 15.4q-1.515 1.316-3.027 2.633c-8.73 7.476-17.765 14.491-26.973 21.367l-2.176 1.634c-29.302 21.915-77.46 57.589-116.469 52.917-3.233-.756-5.137-2.111-7.355-4.551-2.081-4.162-1.472-8.398-.2-12.715 2.223-5.934 4.822-11.668 7.467-17.421 16.292-35.517 20.009-71.23 6.424-108.59-6.56-17.068-16.37-32.989-27.691-47.274l-2.145-2.73c-11.32-14.136-24.026-27.808-37.843-39.54-2.495-2.145-4.904-4.376-7.324-6.605a230 230 0 0 0-11.063-9.5C161.465 525.168 148.227 512.343 137 498l-2.395-2.984C110.222 464.344 90.735 426.963 81 389a978 978 0 0 1 5.813-3l3.269-1.687C93 383 93 383 96 383l.5 1.594c16.305 51.553 44.669 102.062 87.637 136.054 10.198 8.376 19.496 17.884 28.857 27.171q2.1 2.08 4.204 4.152c6.038 6.03 11.504 12.345 16.802 19.029q1.447 1.77 2.898 3.54c28.379 35.36 46.525 77.695 41.602 123.718-2.278 17.974-7.997 33.369-15.797 49.625l-2.58 5.415a564 564 0 0 1-1.768 3.664c-3.448 7.09-6.116 13.102-6.355 21.038 5.73 3.82 13.124 2.54 19.664 1.313 32.378-8.18 61.098-27.298 87.336-47.313l1.949-1.48c9.345-7.128 18.274-14.706 27.051-22.52l1.619-1.439c7.312-6.538 14.306-13.39 21.256-20.311l2.415-2.4A262 262 0 0 0 427 669q1.46-1.677 2.922-3.352c56.983-65.776 95.128-149.715 110.765-235.148l.458-2.468c3.628-19.727 5.243-39.102 5.168-59.157l-.005-2.97c-.06-22.111-2.094-43.381-7.308-64.905l-.538-2.312c-2.842-12.14-6.741-23.757-11.487-35.288a124 124 0 0 1-1.892-4.966c-.88-2.308-1.733-4.364-3.083-6.434-2.927-1.43-2.927-1.43-6.25-1.437l-3.465-.301L509 250c-2.71-.56-5.33-1.267-8-2l.805 2.352C506.43 264.5 508.182 278.272 506 293c-2.286-3.81-2.9-7.955-3.75-12.25-3.974-18.722-11.517-36.289-24.25-50.75l-2.012-2.445C461.943 210.99 443.3 200.884 423 194l1.617 1.031c27.015 17.574 43.114 41.972 50.195 73.282 4.815 25.917 1.051 52.351-12.722 74.8-11.82 17.158-27.67 28.255-48.031 32.5-20.862 2.638-40.771-2.67-58.059-14.613-4.233-3.419-8.108-7.204-12-11l-1.957-1.734C325.033 332.809 315.309 306.402 313 284c-.16-4.084-.185-8.163-.187-12.25l-.038-3.238c-.044-24.133 9.196-46.427 25.413-64.2 19.642-18.473 47.227-24.26 73.358-23.461 6.273.382 12.338 1.777 18.454 3.149l2.43.363C444.41 186.24 456.176 194.355 466 201c3.784 2.523 5.455 2.102 9.938 1.75l2-.154c6.08-.51 12.07-1.447 18.062-2.596v-2l1.906-.664c8.897-3.296 14.946-6.55 19.469-15.149 3.37-7.396 4.694-14.391 5.379-22.437C523 158 523 158 524 157"/><path fill="#401a4a" d="M254.188 4.75 257 7l1.602 1.25c8.206 7.195 13.36 18.398 16.773 28.563 1.572 4.093 1.572 4.093 5.125 6.414q2.871.71 5.781 1.234c4.134.82 6.875 2.447 9.719 5.539 6.51 9.757 10.333 22.651 13 34l2.292.335c3.445.508 6.889 1.024 10.333 1.54l3.605.527 3.497.528 3.205.476c3.146.61 6.054 1.516 9.068 2.594l-.875-2.098c-3.3-8.694-5.172-18.17-2.395-27.304 1.956-3.775 4.356-6.066 8.27-7.598 9.306-2.387 17.846.224 26.133 4.688 4.44 2.747 8.263 5.516 11.867 9.312l.883-2.309C389.459 53.165 395.4 42.503 406.375 36c6.07-1.674 11.274-2.176 17 .688C430.245 42.74 434.201 50.812 435 60c.281 5.811-.403 10.41-2 16l2.492.078c9.683.492 17.773 1.518 24.57 8.922 3.95 4.758 4.34 8.879 3.938 15-1.946 9.765-7.952 17.188-16.031 22.781-5.87 3.634-10.229 4.574-16.969 4.219q1.33 2.352 2.688 4.688l1.511 2.636c2.006 2.981 4.188 5.208 6.801 7.676l1.677 1.592c1.87 1.769 3.752 3.527 5.635 5.283l2.029 1.894c3.256 3.03 6.526 6.028 9.909 8.918 7.081 6.11 13.728 12.881 19.785 20.004a403 403 0 0 0 5.024 5.774l3.316 3.785 1.627 1.827 1.521 1.751 1.373 1.56c1.26 1.84 1.687 3.436 2.104 5.612-2.629.871-2.629.871-6 1-2.332-1.938-4.033-3.638-5.937-5.937l-1.475-1.69A493 493 0 0 1 478 188c-4.87-5.704-9.945-11.137-15.25-16.437l-2.24-2.243A186 186 0 0 0 443 154l-1-1-.629 2.195c-2.12 6.654-4.293 11.11-10.371 14.805-8.974 2.991-19.876 1.737-28.25-2.336C391.457 160.83 386.713 151.958 382 140l-1.652 1.61c-10.103 9.464-19.095 11.745-32.809 11.6-10.02-.596-17.147-4.47-23.914-11.773-3.76-5.64-4.542-10.744-3.625-17.437 2.678-8.501 8.67-16.108 16.53-20.373A317 317 0 0 1 344 100c-28.986-7.342-61.945-8.66-91-1q-2.177.528-4.355 1.05c-6.387 1.586-12.515 3.577-18.645 5.95l-1.938.735c-24.436 9.342-46.588 23.462-65.804 41.195-2.023 1.854-4.093 3.62-6.196 5.382-40.159 35.26-66.88 92.64-70.894 145.458-.311 5.992-.271 11.981-.23 17.98l.013 3.883q.018 4.683.049 9.367c-5.075 1.756-8.68 2.183-14 2-8.716-30.45 4.588-71.87 16-100l1.026-2.54C104.471 189.44 133.163 152.68 168 127q2.694-2.085 5.375-4.187L177 120l-1.645-2.93c-10.9-19.705-10.9-19.705-9.355-31.07 1.683-5.313 3.998-8.208 8-12 1.335-4.004.003-6.579-1.375-10.375-3.801-10.694-6.124-23.121-2-34.125C176.715 16.764 186.011 9.98 199 5c17.072-5.57 38.746-9.277 55.188-.25"/><path fill="#9e64a9" d="m140 288 1 2c-.855 2.074-.855 2.074-2.187 4.688-11.56 24.376-10.859 54.67-1.954 79.73 2.342 6.306 4.838 12.463 8.293 18.246 1.708 3.084 2.18 4.971 2.848 8.336a96 96 0 0 0 2.117 5l1.322 2.905 1.436 3.095 1.497 3.23c8.54 18.264 17.994 35.281 29.628 51.77l1.567 2.231c7.35 10.377 15.56 19.675 24.433 28.769l1.61 1.673c5.884 6.106 11.95 11.757 18.597 17.042 4.081 3.339 7.916 6.918 11.773 10.512 2.218 2.06 4.49 4.045 6.786 6.02 4.807 4.19 9.3 8.672 13.797 13.19l2.458 2.448c34.13 34.185 60.122 77.06 60.291 126.49l.017 3.528c-.088 10.697-1.715 20.823-4.642 31.097l-.667 2.35c-3.282 11.267-8.371 21.634-13.454 32.179-5.49 10.724-5.49 10.724-6.566 22.471l2 2c-6.619 3.295-13.37 5.919-20.375 8.25l-2.341.782c-6.038 1.974-11.452 3.13-17.846 3.218l-3.38.078C255 781 255 781 252.536 780.047 251 778 251 778 250.797 774.293c1.201-7.468 5.133-14.263 8.453-20.98 19.612-40.008 24.043-78.814 10.047-121.455-12.189-35.051-37.197-63.728-62.914-89.65a2064 2064 0 0 1-4.202-4.254 200 200 0 0 0-16.62-14.872c-3.656-2.972-7.086-6.15-10.499-9.394l-2.057-1.95A1970 1970 0 0 1 167 506l-1.71-1.623C131.608 472.324 107.255 426.536 95 382l9-9c2.193 3.29 3.082 6.165 4.25 9.938 3.38 10.484 8.002 19.356 14.75 28.062l-.703-2.029c-1.065-3.091-2.119-6.187-3.172-9.284l-1.105-3.189c-9.613-28.401-7.24-58.637 5.958-85.537 4.336-8.318 9.637-16.085 16.022-22.961"/><path fill="#040404" d="M673 236c3.704 2.027 5.654 3.48 8 7 2.734 16.522-9.73 35.044-19 48l3.29.516q2.168.365 4.335.734l2.16.332c5.52.962 10.182 2.56 13.582 7.34.772 2.535.828 4.682.758 7.328l-.055 2.703L686 312l1.863.816c3.928 2.176 5.756 6.04 7.137 10.184.932 10.171-.74 17.308-7.25 25.188-2.48 2.72-4.998 4.725-8.062 6.75-2.304 1.625-3.48 2.474-4.426 5.152a173 173 0 0 0-.715 4.601c-.992 4.19-3.768 7.126-6.547 10.309l-1.937 2.375c-5.149 4.056-11.782 4.27-18.063 3.625-4.374-.853-8.688-1.88-13-3l.473 2.262c1.663 8.637 1.663 8.637-.637 12.89C630.61 398.97 626.197 403.401 619 405c-5.685.732-10.405.971-15.187-2.5A114 114 0 0 1 600 399l-1.848-1.617c-18.048-16.677-37.083-46.36-40.222-71.094.128-4.175 1.429-7.087 4.07-10.289 6.042-5.64 11.465-8.294 19.813-8.125l3.519.055L588 308l-.11-3.469c.005-4.528.78-8.648 1.86-13.031.181-.744.362-1.488.55-2.254 3.131-12.336 3.131-12.336 7.954-15.922 3.16-1.524 5.255-1.694 8.746-1.637l3.063.012c2.937.301 2.937.301 5.562 1.383 2.27 1.065 2.27 1.065 4.422.8 2.661-1.202 4.203-2.885 6.203-5.007a152 152 0 0 1 10.457-9.863c2.389-2.096 4.71-4.253 7.03-6.423C662.657 234.91 662.657 234.91 673 236"/><path fill="#592b6c" d="M420 234c4.25 3.413 8.146 7.151 12 11l2.031 1.996c16.356 17.285 21.693 41.24 21.278 64.262-.755 19.011-8.665 34.785-22.426 47.734-10.84 9.251-22.913 11.273-36.712 10.247-16.273-1.793-30.6-12.97-40.679-25.31-14.747-20.345-21.212-44.373-18.192-69.42 2.887-17.395 11.064-32.107 25.192-42.822 17.346-11.672 40.754-9.636 57.508 2.313"/><path fill="#592b6d" d="m229 288 2.902 1.332C250.505 298.988 261.997 316.785 269 336c6.337 20.942 6.122 43.25-4 63-7.655 12.876-16.607 19.766-30.375 25.375-15.966 2.753-30.264-1.222-43.477-10.344-19.24-14.958-29.368-35.746-32.609-59.523-2.203-17.673 1.02-36.948 11.899-51.445q1.754-2.056 3.562-4.063l1.508-1.855c12.968-14.76 36.34-17.27 53.492-9.145"/><path fill="#3f1a4a" d="M512 250h16c39.915 78.094 31.048 174.037 5.145 254.86-19.03 58.64-46.898 116.107-88.95 161.734a167 167 0 0 0-3.606 4.058c-4.905 5.73-10.164 11.075-15.504 16.394q-2.278 2.272-4.548 4.554c-5.34 5.343-10.768 10.518-16.537 15.4q-1.515 1.316-3.027 2.633c-8.73 7.476-17.765 14.491-26.973 21.367l-2.176 1.634c-29.302 21.915-77.46 57.589-116.469 52.917-3.233-.756-5.137-2.111-7.355-4.551-2.081-4.162-1.472-8.398-.2-12.715 2.223-5.934 4.822-11.668 7.467-17.421 16.292-35.517 20.009-71.23 6.424-108.59-6.56-17.068-16.37-32.989-27.691-47.274l-2.145-2.73c-11.32-14.136-24.026-27.808-37.843-39.54-2.495-2.145-4.904-4.376-7.324-6.605a230 230 0 0 0-11.063-9.5C161.465 525.168 148.227 512.343 137 498l-2.395-2.984C110.222 464.344 90.735 426.963 81 389a978 978 0 0 1 5.813-3l3.269-1.687C93 383 93 383 96 383l.5 1.594c16.305 51.553 44.669 102.062 87.637 136.054 10.198 8.376 19.496 17.884 28.857 27.171q2.1 2.08 4.204 4.152c6.038 6.03 11.504 12.345 16.802 19.029q1.447 1.77 2.898 3.54c28.379 35.36 46.525 77.695 41.602 123.718-2.278 17.974-7.997 33.369-15.797 49.625l-2.58 5.415a564 564 0 0 1-1.768 3.664c-3.448 7.09-6.116 13.102-6.355 21.038 5.73 3.82 13.124 2.54 19.664 1.313 32.378-8.18 61.098-27.298 87.336-47.313l1.949-1.48c9.345-7.128 18.274-14.706 27.051-22.52l1.619-1.439c7.312-6.538 14.306-13.39 21.256-20.311l2.415-2.4A262 262 0 0 0 427 669q1.46-1.677 2.922-3.352c56.983-65.776 95.128-149.715 110.765-235.148l.458-2.468c3.628-19.727 5.243-39.102 5.168-59.157l-.005-2.97c-.06-22.111-2.094-43.381-7.308-64.905l-.538-2.312c-3.793-16.203-9.62-31.54-16.462-46.688l-10-1z"/><path fill="#dbdcdd" d="M90.355 475.977c5.149 5.028 9.758 10.438 14.243 16.058 2.18 2.69 4.419 5.305 6.696 7.912 8.865 10.165 17.137 20.819 24.519 32.115l1.957 2.973c1.579 3.805 1.287 6.019.23 9.965-1.348 1.82-1.348 1.82-3.062 3.125l-1.907 1.457L131 551l-2.031 1.45c-3.948 2.649-7.12 4.186-11.969 4.55l-.332 1.723c-1.679 8.174-3.3 13.907-10.438 18.722-6.276 4.375-9.13 7.428-11.793 14.555-2.045 5.395-3.876 9.189-8.437 13-3 1.063-3 1.063-6 1-4.925-2.462-6.406-6.457-8.219-11.383-1.064-3.564-1.507-6.912-1.781-10.617-4.45 3.698-8.622 7.595-12.656 11.738C42.692 610.764 42.692 610.764 33 614c-3.045-.145-4.495-.596-6.875-2.5-1.794-3.986-1.214-7.412-.125-11.5 1.804-4.436 3.84-8.727 6-13l-2.387.438c-20.847 3.552-20.847 3.552-27.425.062C0 585 0 585-.75 581.25c.397-5.213 3.415-8.454 6.75-12.25q1.44-1.749 2.875-3.5L11 563l-2.312-.75C5.672 560.848 4.635 559.86 3 557c-1.113-3.1-1.275-4.39.09-7.418 2.4-3.245 4.798-4.55 8.348-6.457l3.792-2.09q1.884-1.02 3.77-2.035c11.002-5.959 19.723-12.584 27.227-22.676C51.729 509.113 58.005 502.756 65 497l-.973-1.797c-1.544-3.311-1.45-5.576-1.027-9.203 2.618-6.404 6.835-10.075 13-13 5.553-2.031 9.968-.705 14.355 2.977"/><path fill="#ea9c25" d="M419 42c5.324 3.276 7.719 7.265 10 13l1.102 2.73c1.096 3.989 1.12 7.537 1.023 11.645l-.027 2.23c-.024 1.799-.06 3.597-.098 5.395l-2.492.629C416.54 80.93 407.59 86.232 401 97c-1.074 2.31-2.04 4.639-3 7l2.02-2.379C408.738 91.582 417.195 84.077 431 83l2.785-.246c7.383-.343 13.974 1.017 19.95 5.566 2.62 2.694 3.283 4.803 3.827 8.493-.557 7.914-5.083 15.614-10.562 21.187-5.252 4.036-12.116 8.476-19 8-2.234-1.22-3.984-2.665-5.906-4.332-6.117-4.873-13.488-6.177-21.094-6.668l2.527.848c11.939 4.253 20.728 10.073 26.692 21.484 3.338 7.189 5.274 14.102 2.719 21.918-2.462 3.493-4.868 4.832-8.938 5.75-9.998 1.208-18.855-1.516-26.969-7.344-6.013-4.903-10.54-11.26-13.031-18.656.48-4.441 3.052-8.547 4.941-12.54 1.19-2.32 1.19-2.32 1.059-4.46l-1.066 1.688A259 259 0 0 1 384 131l-1.465 2.133c-5.302 6.881-13.127 11.88-21.773 13.212-10.35.866-21.339.436-29.762-6.22-3.839-3.685-4.81-6.524-5.437-11.812.173-7.036 4.56-14.436 9.437-19.313a113 113 0 0 1 9-6l2.031-1.238c2.496-.966 3.502-.75 5.969.238a79 79 0 0 1 4 2.813c10.382 7.005 20.83 8.073 33 7.187l2-1v-2l-4-2v2c-5.626-1.768-8.778-5.168-12-10 2.656 5.313 4.72 7.967 10 11l3 2c-12.657-1.172-25.578-5.3-34.437-14.883-6.8-9.214-9.702-18.965-10.024-30.25.6-3.73 1.684-5.32 4.461-7.867 10.342-2.472 19.913 1.477 29 6l2.688 1.242c2.431 1.398 3.778 2.402 5.312 4.758.631 3.453.752 6.734.8 10.242.367 6.913 2.346 13.977 6.2 19.758l-.656-2.387c-3.97-15.531-3.21-28.927 4.844-42.96C401.678 47.617 408.517 40.076 419 42"/><path fill="#451f4e" d="M379.191 397.941c4.147 2.51 7.588 5.425 10.809 9.059.544.59 1.088 1.18 1.648 1.79 5.673 6.613 8.555 14.086 11.352 22.21l.816 2.332c4.493 15.928.83 34.153-6.753 48.371-6.485 10.366-16.234 17.43-27.992 20.86-16.412 3.465-32.344-1-46.294-9.688-15.444-10.427-26.16-24.478-30.777-42.687-1.775-9.388-2.373-17.878 3-26.188 4.283-4.079 6.902-5.114 12.715-5.21 1.162-.03 2.324-.058 3.521-.087q3.649-.077 7.297-.133c16.826-.443 28.636-5.827 41.378-16.468l1.866-1.555 1.664-1.411c4.401-3.207 10.864-3.294 15.75-1.195"/><path fill="#9e64a9" d="m255 99-1.598.927C241.782 106.7 230.612 113.728 220 122l-2.84 2.195c-26.353 20.974-46.365 46.832-62.597 76.18l-1.505 2.7c-3.32 6.122-5.851 12.323-8.058 18.925l2.688-1.437c10.018-4.726 20.55-2.93 30.695.464C181 222 181 222 183 223v2l-2.64 1.031c-9.334 3.798-17.433 8.472-25.497 14.59-5.412 3.875-10.306 4.152-16.863 3.379l-2-1q-1.22 6.062-2.437 12.125l-.698 3.46-.674 3.36-.618 3.079c-1.294 6.719-1.294 6.719-.948 13.476.09 6.067-3.405 9.53-7.132 13.887-6.273 7.444-10.038 16.023-13.93 24.886C105.332 324.656 94.773 327.706 87 330h-2c-7.546-52.822 14.91-107.815 45.914-149.465 4.701-6.186 9.74-11.896 15.086-17.535a566 566 0 0 0 3.25-3.875C175.122 129.487 211.615 109.675 249 99l2.313-.691C253 98 253 98 255 99"/><path fill="#fafafa" d="m385.313 191.75 2.974-.023c9.787.025 18.269 1.553 27.088 5.835l2.213 1.066c22.584 11.237 39.036 31.926 47.174 55.588 8.64 26.74 7.862 55.231-5.012 80.471-4.623 8.258-10.188 15.569-17.75 21.313 1.452-3.021 3.106-5.842 4.875-8.687 7.762-12.938 10.692-25.4 10.563-40.5l-.03-3.873c-.462-24.69-9.842-45.756-26.783-63.752-13.06-12.497-29.295-18.783-47.195-18.461-13.415.581-25.403 7.254-34.52 16.914-6.152 7.599-10.789 16.111-13.91 25.359l-1.187 3.375c-2.939 13.11-3.752 29.645.187 42.625l.59 2.484c3.302 13.52 9.163 24.489 17.41 35.516l1.77 2.367L355 351c-10.47-4.312-17.44-17.699-23-27l-2.066-3.418C317.786 299.116 315.496 270.763 321 247c5.173-18.333 15.739-35.552 32-46 10.792-6.016 19.883-9.347 32.313-9.25"/><path fill="#f8f8f9" d="M243.813 273.75C262.586 288.617 274.568 309.854 280 333l.684 2.875c3.706 18.404 1.692 38.866-5.684 56.125l-2 2 1.367-6.055L275 385l.503-2.088c3.609-15.989 3.337-34.535-2.503-49.912l-1.098-3.105c-8.082-21.18-22.129-36.875-42.535-46.52-11.117-4.54-25.494-5.529-36.898-1.48-15.727 7.042-24.931 17.198-31.781 33.043-6.232 17.31-6.586 35.392-1.688 53.062l.586 2.516c3.07 12.043 9.807 23.769 17.414 33.484l1.535 2.066C183.611 412.44 190.191 416.693 197 421l2.125 1.352c11.138 6.289 25.216 7.25 37.375 4.086l2.969-.88C242 425 242 425 245 426a1913 1913 0 0 1-5.75 2.438l-3.234 1.37c-13.622 5.382-32.35 3.26-45.524-2.285-7.685-3.536-15.147-7.89-21.492-13.523v-2l-1.672-.64c-3.147-1.838-5.267-4.35-7.578-7.11l-1.46-1.738c-4.95-6.065-8.722-12.564-12.29-19.512l-1.46-2.8c-3.634-7.432-5.657-15.19-7.54-23.2l-.691-2.7c-5.063-22.55-.132-46.925 11.742-66.448 10.012-14.648 24.14-25.919 41.77-29.41 20.04-2.783 38.073 3.274 53.992 15.308"/><path fill="#040404" d="M90.355 475.977c5.149 5.028 9.758 10.438 14.243 16.058 2.18 2.69 4.419 5.305 6.696 7.912 8.865 10.165 17.137 20.819 24.519 32.115l1.957 2.973c1.579 3.805 1.287 6.019.23 9.965-1.348 1.82-1.348 1.82-3.062 3.125l-1.907 1.457L131 551l-2.031 1.45c-3.948 2.649-7.12 4.186-11.969 4.55l-.332 1.723c-1.679 8.174-3.3 13.907-10.438 18.722-6.276 4.375-9.13 7.428-11.793 14.555-2.045 5.395-3.876 9.189-8.437 13-3 1.063-3 1.063-6 1-4.925-2.462-6.406-6.457-8.219-11.383-1.064-3.564-1.507-6.912-1.781-10.617-4.45 3.698-8.622 7.595-12.656 11.738C42.692 610.764 42.692 610.764 33 614c-3.045-.145-4.495-.596-6.875-2.5-1.794-3.986-1.214-7.412-.125-11.5 1.804-4.436 3.84-8.727 6-13l-2.387.438c-20.847 3.552-20.847 3.552-27.425.062C0 585 0 585-.75 581.25c.397-5.213 3.415-8.454 6.75-12.25q1.44-1.749 2.875-3.5L11 563l-2.312-.75C5.672 560.848 4.635 559.86 3 557c-1.113-3.1-1.275-4.39.09-7.418 2.4-3.245 4.798-4.55 8.348-6.457l3.792-2.09q1.884-1.02 3.77-2.035c11.002-5.959 19.723-12.584 27.227-22.676C51.729 509.113 58.005 502.756 65 497l-.973-1.797c-1.544-3.311-1.45-5.576-1.027-9.203 2.618-6.404 6.835-10.075 13-13 5.553-2.031 9.968-.705 14.355 2.977M58 510l-1.898 1.734c-3.629 3.442-6.5 7.138-9.414 11.204-7.495 10.067-16.705 15.436-27.644 21.207C14.682 546.453 10.726 548.71 7 552c.331 3.09 1.003 4.003 3.313 6.188 4.879 3.29 9.948 3.33 15.687 2.812 3.725-.826 7.36-1.857 11-3-3.256 3.416-5.353 4.881-10 6-.733-.015-1.467-.03-2.223-.047-5.46-.034-8.295 1.04-12.304 4.9C9.361 572.068 6.491 575.264 4 579c.086 2.093.086 2.093 1 4 4.06 2.706 7.306 2.526 12 2 4.705-1.008 9.343-2.197 13.985-3.46 3.327-.892 6.671-1.712 10.015-2.54-1.542 3.736-3.15 7.366-5.043 10.938l-1.064 2.023a347 347 0 0 1-2.196 4.078C30.307 600.634 29.59 603.821 30 609c11.735-1.147 21.164-13.95 29.063-22.062q3.04-3.12 6.097-6.223l2.676-2.746C70 576 70 576 72 576l.7 3.438c1.717 8.057 3.194 14.896 8.3 21.562 1.92-.076 1.92-.076 4-1 1.67-2.485 1.67-2.485 3-5.562l1.57-3.293c.83-1.826 1.646-3.66 2.422-5.508C94.457 580.019 97.95 577.353 103 574c6.18-4.16 8.273-8.928 10-16 .464-2.558.464-2.558 0-5-1.644-2.175-1.644-2.175-3.937-4.125-4.292-4.057-7.996-8.324-11.684-12.93a345 345 0 0 0-6.42-7.69c-6.743-7.872-13.559-15.871-19.12-24.634L70 501c-4.531 0-8.835 6.036-12 9"/><path fill="#e08837" d="M288.78 49.073c5.134 4.168 7.321 8.547 9.595 14.677l1.035 2.555c2.277 5.884 3.276 11.402 3.59 17.695l-3.785.113C262.995 85.395 229.065 92.683 197 110l-3.863 2.055Q188.554 114.5 184 117c-7.873-7.714-11.957-16.638-13.348-27.55.526-3.7 2.036-6.577 4.348-9.45 2.42-1.642 4.441-2.823 7.062-4l2.038-.937c16.204-7.321 32.964-12.248 50.118-16.835q5.511-1.477 11.016-2.974a12559 12559 0 0 1 10.395-2.807c26.851-7.172 26.851-7.172 33.151-3.374"/><path fill="#482f1c" d="M423.375 36.688C430.245 42.74 434.201 50.812 435 60c.281 5.811-.403 10.41-2 16l2.492.078c9.683.492 17.773 1.518 24.57 8.922 3.95 4.758 4.34 8.879 3.938 15-1.946 9.765-7.952 17.188-16.031 22.781-5.87 3.634-10.229 4.574-16.969 4.219q1.33 2.352 2.688 4.688l1.511 2.636c2.006 2.981 4.188 5.208 6.801 7.676l1.677 1.592c1.87 1.769 3.752 3.527 5.635 5.283l2.029 1.894c3.256 3.03 6.526 6.028 9.909 8.918 7.081 6.11 13.728 12.881 19.785 20.004a403 403 0 0 0 5.024 5.774l3.316 3.785 1.627 1.827 1.521 1.751 1.373 1.56c1.26 1.84 1.687 3.436 2.104 5.612-2.629.871-2.629.871-6 1-2.332-1.938-4.033-3.638-5.937-5.937l-1.475-1.69A493 493 0 0 1 478 188c-4.87-5.704-9.945-11.137-15.25-16.437l-2.24-2.243A186 186 0 0 0 443 154l-1-1-.629 2.195c-2.12 6.654-4.293 11.11-10.371 14.805-8.974 2.991-19.876 1.737-28.25-2.336C391.457 160.83 386.713 151.958 382 140l-1.652 1.61c-10.103 9.464-19.095 11.745-32.809 11.6-10.02-.596-17.147-4.47-23.914-11.773-3.76-5.64-4.542-10.744-3.625-17.437 2.687-8.53 8.657-15.571 16.148-20.379 3.798-1.972 7.753-3.391 11.852-4.621-.459-.51-.918-1.02-1.39-1.547-7.952-9.42-10.36-18.822-9.997-31.082.64-5.574 2.261-8.495 6.512-12.246C352.23 50.562 360.172 52.274 369 56c5.652 3.044 10.57 6.335 15 11l.883-2.309C389.459 53.165 395.4 42.503 406.375 36c6.07-1.674 11.274-2.176 17 .688M405 46l-1.68 1.367c-8.787 7.85-13.702 18.989-14.53 30.582-.265 8.406 1.163 15.922 3.21 24.051q-1.222-3.123-2.437-6.25l-1.372-3.516c-1.846-5.012-2.213-8.74-2.253-14.109-.293-4.848-.293-4.848-2.254-9.164-2.133-1.723-4.192-2.81-6.684-3.961l-3.375-1.68c-8.06-3.763-16.69-6.455-25.625-4.32-2.666 2.476-3.825 4.115-4.531 7.691.135 12.463 3.88 22.912 12.238 32.207C363.285 106.205 373.66 110.523 384 112c2.18-.415 2.18-.415 4-1l-1.61-.7c-4.559-2.104-7.628-3.926-10.39-8.3v-2l1.688 2.813c2.276 3.137 3.81 4.62 7.312 6.187l2-1c1 0 1 0 4 1v2c-6.506 3.253-17.781 1.445-24.437-.625-4.67-1.772-8.633-4.119-12.625-7.105-2.09-1.37-3.449-2.035-5.938-2.27-9.609 3.61-16.53 11.692-21.375 20.5-1.234 4.935-1.17 8.954.5 13.688 3.816 5.724 8.132 8.596 14.719 10.292 13.11 2.158 24.057 1.462 35.156-6.48 5.82-5.219 10.126-11.251 14-18q-1.182 2.909-2.375 5.813l-1.336 3.269C386 133 386 133 384 136c.731 7.871 5.672 15.163 11.313 20.438 8.522 7.013 17.774 9.481 28.687 8.562 4.07-.894 6.483-2.266 8.938-5.75 2.628-8.041.351-15.472-3.192-22.867-6.395-11.465-16.264-17.77-28.746-21.383 8.841.57 16.263 2.48 23.063 8.375 2.158 1.704 3.322 2.582 6.082 2.773 10.336-1.846 17.403-8.011 23.261-16.367C456.44 104.487 458.13 99.071 457 93c-3.015-5.227-6.627-7.309-12.262-9.312-4.657-1.17-8.98-1.108-13.738-.688l-2.754.215C415.424 84.838 406.466 93.44 398.5 103l-1.5 2c4.903-11.29 11.613-19.814 23-25a104 104 0 0 1 11-3c.679-11.885.068-21.923-7.687-31.687-3.033-3.033-3.712-3.263-8.063-3.626-4.47.081-6.771 1.426-10.25 4.313"/><path fill="#fab953" d="m236.938 5.563 2.365-.068c6.615.026 11.557 2.01 16.728 6.118C262.732 19.366 273 34.451 273 45l-2.94.456c-42.525 6.583-42.525 6.583-82.212 22.696C186 69 186 69 183 69c-5.05-11.392-10.157-23.731-5.902-36.223C181.949 22.337 188.528 17.347 199 13c12.323-4.487 24.83-7.228 37.938-7.437"/><path fill="#dadbdc" d="M607.566 274.5c9.729 1.999 17.492 9.9 24.434 16.5a506 506 0 0 0 4.063 3.5c15.293 13.433 15.293 13.433 17.562 23.188-.797 2.95-2.221 4.618-4.68 6.414-4.085 1.886-7.741 1.13-11.945-.102-4.831-2.006-9.424-4.475-14-7 3.066 3.24 5.856 5.746 9.813 7.813l2.394 1.269L637 327l-.14 2.887-.11 3.8-.14 3.762c.456 4.15 1.365 5.722 4.39 8.551 1.972.682 1.972.682 4 .75 2.102.39 2.102.39 4 1.25 1.46 2.238 2.335 4.386 3.21 6.906.693 2.271.693 2.271 2.79 4.094 2.032.463 2.032.463 4.313.625l2.421.223c2.43.163 4.832.23 7.266.152-1.3 5.923-4.53 9.173-9 13-4.712 2.356-10.883 1.28-16 1l-3.617-.121c-5.253-.755-8.735-1.75-12.001-5.97-3.44-5.476-6.209-11.282-8.996-17.11-1.96-3.96-4.203-7.697-6.573-11.424l-1.231-1.943c-5.081-7.897-10.515-15.38-17.144-22.057-2.721-3.03-3.979-4.959-4.125-9.062.226-2.512.226-2.512.687-5.313l.523-3.395c1.356-7.358 3.235-14.346 7.477-20.605 3.072-2.048 4.9-2.608 8.566-2.5"/><path fill="#f9d01e" d="M352 102a79 79 0 0 1 4 2.813c9.24 6.28 19.005 7.832 30 8.187-1 3-1 3-3.18 4.281l-2.695 1.219c-3.285 1.494-5.73 2.772-8.125 5.5l1 3c5.96-.298 9.72-3.103 14-7a87 87 0 0 0 3-4c4.75.875 4.75.875 7 2a117 117 0 0 1 2.875 6.063l1.602 3.554L403 131c2.422 5.381 2.422 5.381 6 10 2.57.648 2.57.648 5 1-1.657-7.87-4.13-13.308-10-19-1.737-2.29-3.363-4.636-5-7 10.34.574 19.066 5.336 26 13 5.76 7.758 10.137 17.15 9 27-1.346 4.118-2.349 5.601-6.062 7.875-7.939 2.802-16.36 1.34-23.938-1.875-9.493-5.061-16.527-12.686-20-23 .48-4.441 3.052-8.547 4.941-12.54 1.19-2.32 1.19-2.32 1.059-4.46l-1.066 1.688A259 259 0 0 1 384 131l-1.465 2.133c-5.302 6.881-13.127 11.88-21.773 13.212-10.35.866-21.339.436-29.762-6.22-3.839-3.685-4.81-6.524-5.437-11.812.173-7.036 4.56-14.436 9.437-19.313a113 113 0 0 1 9-6l2.031-1.238c2.496-.966 3.502-.75 5.969.238"/><path fill="#dadbdc" d="M589.996 310.973C609.1 325.866 626.72 360.587 632 384c.186 5.66-1.712 8.453-5.332 12.52-4.382 3.89-8.878 4.242-14.59 4.07-7.396-1.417-10.981-7.952-14.996-13.762-3.493-5.194-6.799-10.5-10.082-15.828l-1.92-3.104C577.467 355.536 570.166 343.15 564 330l-1-2c-.354-3.514-.365-5.405 1.504-8.45 6.6-7.175 15.507-13.443 25.492-8.577"/><path fill="#b1b3b5" d="M671.723 238.488C674 239 674 239 677.125 241c2.34 3.744 2.29 6.737 1.875 11-3.884 14.536-13.129 27.882-22.758 39.238-1.36 1.928-1.732 3.482-2.242 5.762l3.945-.105q2.59-.043 5.18-.082l2.594-.077c6.107-.07 10.578.65 15.156 5.077 1.833 3.564 1.603 6.269.645 10.117-4.323 11.98-18.859 25.935-30.204 31.351-2.884.895-4.47.692-7.316-.281-1.633-1.234-1.633-1.234-3-3-.328-2.41-.328-2.41-.25-5.062.015-.878.03-1.756.047-2.66C641 330 641 330 642 328c1.926-.527 1.926-.527 4.313-.937 4.967-.91 4.967-.91 8.687-4.063 1.717-5.035 1.316-9.131-.875-13.937C647.413 297.146 635.469 286.306 624 279c2.449-4.632 5.678-7.968 9.355-11.621l1.88-1.886q1.968-1.97 3.942-3.93c1.993-1.984 3.976-3.977 5.958-5.971q1.922-1.92 3.845-3.838l1.77-1.781c12.225-12.091 12.225-12.091 20.973-11.485"/><path fill="#521028" d="M382 406c8.268 6.284 12.89 14.153 16 24v3l-3.516.227c-12.451.972-22.54 2.828-31.046 12.773l-2.153 2.61c-3.153 3.299-6.669 5.017-10.71 7.046-10.671 5.57-15.267 15.41-18.813 26.485-.783 2.939-1.313 5.852-1.762 8.859-12.31-4.441-22.206-15.575-28-27-3.697-8.094-6.143-14.504-6.187-23.437l-.043-3.934c.214-3.384.758-5.61 2.23-8.629 2.206 2.206 2.573 3.435 3.438 6.375 1.076 3.365 2.012 6.075 4.562 8.625 11.484 3.828 27.667 1.713 39-2l2.66-.809c10.266-3.401 21.805-8.476 30.34-15.191 1.097-2.263 1.097-2.263 1.313-4.75l.39-2.637L380 415l.297-2.395.265-2.168C381 407 381 407 382 406"/><path d="M254.188 4.75 257 7l1.602 1.25c8.206 7.195 13.36 18.398 16.773 28.563 1.572 4.093 1.572 4.093 5.125 6.414q2.871.71 5.781 1.234c4.134.82 6.875 2.447 9.719 5.539 6.58 9.86 10.927 23.391 13 35-2.375-.187-2.375-.187-5-1-1.712-3.54-2.715-7.295-3.812-11.062C296.514 58.948 296.514 58.948 287 49c-8.865-2.052-16.811.539-25.375 2.813l-4.763 1.23A1421 1421 0 0 0 242 57l-2.436.66a1831 1831 0 0 0-16.314 4.528l-2.139.598c-13.302 3.74-26.51 8.079-38.923 14.214l-2.018.922c-4.541 2.231-6.517 4.299-8.17 9.078-.866 8.143 2.719 17.474 7.441 23.988A361 361 0 0 0 183 115v3l-6 2c-12.576-22.404-12.576-22.404-11-34 1.683-5.313 3.998-8.208 8-12 1.335-4.004.003-6.579-1.375-10.375-3.801-10.694-6.124-23.121-2-34.125C176.715 16.764 186.011 9.98 199 5c17.072-5.57 38.746-9.277 55.188-.25M183 23c-5.997 8.33-7.67 14.804-7 25 1.26 7.448 3.642 14.25 7 21 3.21-.624 6.012-1.857 8.97-3.221C217.823 53.899 245.05 49.203 273 45c-3.904-12.564-9.913-29.517-21.812-36.5L248 7l-2-1c-20.008-1.529-48.392 1.687-63 17"/><path fill="#9b64a6" d="M337 279c2.01 3.015 2.508 4.77 3.25 8.25 5.244 21.549 16.73 40.736 35.75 52.75 13.672 7.708 27.103 10.259 42.621 7.313 17.11-5.34 26.317-16.046 34.379-31.313h1c.557 13.184-5.949 26.818-14.32 36.754-8.406 8.84-18.78 15.964-31.293 16.68q-2.35.035-4.7.003l-2.513-.025c-16.515-.451-30.528-9.233-41.794-20.895-14.697-16.153-22.643-38.262-22.442-59.892l.013-2.809q.018-3.408.049-6.816"/><path fill="#da266c" d="m391.813 445.938 2.388.013q2.9.02 5.799.049c.964 15.1-1.746 28.218-12 40-6.673 7.13-16.721 12.457-26.48 13.3-7.921.026-15.066-.457-22.52-3.3-1-1-1-1-1.09-3.187.397-7.336 2.176-12.29 7.09-17.813 3.44-2.996 5.43-3.312 10-3l.805 2.371 1.07 3.067 1.055 3.058c.81 2.644.81 2.644 3.07 3.504l-.973-1.68c-2.23-5.037-1.85-10.817-.152-15.98 4.006-8.527 9.51-15.351 18.125-19.34 4.578-1.258 9.105-1.114 13.813-1.062"/><path fill="#dadbdc" d="M84 477c7.414 5.219 12.654 13.778 18 21l1.667 2.252q4.51 6.1 8.997 12.217c2.732 3.718 5.493 7.412 8.273 11.093l2.083 2.79a474 474 0 0 0 4.117 5.421l1.988 2.664 1.758 2.31C132 539 132 539 131.91 541.554c-1.076 2.89-2.254 4.146-4.597 6.133l-2.012 1.761c-2.66 1.793-5.232 2.66-8.301 3.551-6.027-5.77-11.442-11.806-16.647-18.322-2.114-2.621-4.267-5.21-6.416-7.803-6.35-7.669-12.63-15.387-18.7-23.28a352 352 0 0 0-3.73-4.697L69.25 496l-1.984-2.5c-1.687-3.332-1.408-4.98-.266-8.5 1.777-2.082 1.777-2.082 3.938-3.812l2.152-1.77c3.737-2.774 6.253-3.094 10.91-2.418"/><path fill="#f2e9f2" d="M529 351c2.145 1.605 2.901 2.641 3.616 5.239l.333 2.644.383 2.998.356 3.244.379 3.375c3.157 30.548-.22 62.076-9.067 91.5q-.563 2.005-1.121 4.012C521.456 472.63 518.62 480.8 515 489q-1.02 2.42-2.035 4.844c-5.875 13.987-12.314 27.504-19.653 40.781l-1.08 1.974c-2.368 4.208-5.044 7.772-8.232 11.401l-4-1c-.652-1.762-.652-1.762-1-4 .934-1.832.934-1.832 2.438-3.812C489.91 527.152 495.592 513.617 501 500l1.172-2.948c7.541-19.266 14.74-39.534 17.828-60.052l.44-2.896c3.345-22.953 4.64-46.936.01-69.827-.809-4.095-1.435-8.525.675-12.277 2.773-1.479 4.787-1.386 7.875-1"/><path fill="#e265a1" d="M266 455c4.019 2.754 7.15 5.41 9 10 .858 4.802.453 8.88-2 13.125-5.965 8.387-13.478 13.082-23.441 15.457-9.585 1.566-17.268.585-25.375-4.785-4.115-3.133-5.701-5.781-6.504-10.797-.457-5.72 1.024-9.363 4.43-13.93 10.61-11.62 29.582-16.572 43.89-9.07"/><path fill="#e264a1" d="M482 375c4.35 3.028 7.37 5.872 8.441 11.191.399 7.798-2.429 12.953-7.441 18.809-9.099 8.328-19.532 11.784-31.758 11.383-6.134-.724-9.582-3-14.242-6.883-2.797-3.78-2.757-7.846-2.531-12.406 1.335-7.778 5.609-12.725 11.719-17.469C456.878 372.489 470.1 368.099 482 375"/><path fill="#9b64a6" d="M159 346c2.18 3.27 2.999 6.053 4.125 9.813 6.114 19.097 18.483 35.182 36.14 45.003 6.78 3.334 13.207 5.502 20.735 6.184l3.082.285c11.562.545 22.195-2.872 30.973-10.5L256 395l1.82-1.441c6.538-5.614 9.636-13.892 13.18-21.559h1c.461 13.977-5.342 26.88-14.375 37.313-8.083 8.514-17.633 15.091-29.691 15.89-17.727.238-32.067-5.96-44.934-18.203-15.368-15.893-24.429-36.326-24.07-58.508z"/><path fill="#afb1b3" d="M622.813 307.688c4.721.892 7.253 3.901 10.328 7.402 2.954 3.035 4.836 3.848 9.093 4.105l3.516-.07 3.547-.055L652 319l1-4c.375 2.188.375 2.188 0 5-2.553 3.09-4.152 4.709-8.133 5.336-8.08-.293-14.953-4.52-21.867-8.336 3.066 3.24 5.856 5.746 9.813 7.813l2.394 1.269L637 327l-.14 2.887-.11 3.8-.14 3.762c.456 4.15 1.365 5.722 4.39 8.551 1.972.682 1.972.682 4 .75 2.102.39 2.102.39 4 1.25 1.46 2.238 2.335 4.386 3.21 6.906.693 2.271.693 2.271 2.79 4.094 2.032.463 2.032.463 4.313.625l2.421.223c2.43.163 4.832.23 7.266.152-1.3 5.923-4.53 9.173-9 13-4.712 2.356-10.883 1.28-16 1l-3.617-.121c-5.253-.755-8.735-1.75-12.001-5.97-3.433-5.465-6.19-11.258-8.97-17.074-2.07-4.154-4.473-8.055-6.975-11.96l-1.229-1.95c-1.58-2.484-3.187-4.898-4.985-7.23C605 328 605 328 605 326c2.875-1.437 4.819-1.382 8-1 4.755 4.824 7.32 11.357 10.201 17.402l1.264 2.52 1.113 2.3c1.333 2.014 1.333 2.014 3.955 2.533 2.386.278 2.386.278 4.467.245.2-3.716.152-4.772-2-8-.02-2.104.007-4.209.063-6.312-.076-3.5-.076-3.5-1.063-6.688-3.307-2.853-7.024-4.272-11-6-2.902-2.066-4.649-4.22-6.125-7.5.125-2.5.125-2.5 2.063-5.375C619 308 619 308 622.813 307.688"/><path fill="#fdfcfd" d="M376 402c1 1 1 1 1.133 2.75-.009 2.42-.055 4.832-.133 7.25l-.05 2.422-.137 2.328-.106 2.11c-1.42 4.299-4.365 6.39-8.173 8.519-3.004 1.486-6.037 2.877-9.096 4.246l-3.096 1.445c-12.278 5.578-24.59 8.065-38.03 8.368l-2.548.138c-2.398.044-4.437.01-6.764-.576-2.504-2.871-2.504-2.871-4-6l-1.25-2.5c-.877-2.925-.8-5.46-.75-8.5l2.212-.044c3.367-.076 6.734-.172 10.1-.269l3.479-.068c17.63-.55 31.809-7.011 44.88-18.58 4.169-3.65 6.939-3.21 12.329-3.039"/><path fill="#472e1b" d="M398 114c10.778-.599 19.19 2.917 28 9l2 2 2 .875c2.91 1.637 3.557 4.048 4.797 7.063 3.231 6.991 8.485 11.035 14.297 15.808 11.328 9.315 22.293 19.7 31.836 30.84a515 515 0 0 0 5.14 5.89l3.305 3.774 1.626 1.827 1.522 1.751 1.373 1.56c1.26 1.84 1.687 3.436 2.104 5.612-2.629.871-2.629.871-6 1-2.332-1.938-4.033-3.638-5.937-5.937l-1.475-1.69A493 493 0 0 1 478 188c-4.87-5.704-9.945-11.137-15.25-16.437l-2.24-2.243A186 186 0 0 0 443 154l-1-1-.629 2.195c-2.12 6.654-4.293 11.11-10.371 14.805-8.981 2.994-19.848 1.72-28.242-2.316-7.22-4.408-13.322-9.874-16.758-17.684v-3h3c1.29 1.54 1.29 1.54 2.625 3.625 5.492 7.643 13.203 11.687 22.375 13.375 6.346.684 11.482.334 17-3 2.825-4.422 2.542-9.293 1.535-14.32-2.84-10.723-8.22-19.427-17.887-25.047-5.366-2.808-10.848-4.91-16.648-6.633z"/><path fill="#b0b2b4" d="m571 313 2 1-1.562 1.063c-1.767 1.948-1.767 1.948-1.266 5.015.773 4.551 2.633 8.483 4.64 12.61l1.192 2.474c6.52 13.252 13.915 26.944 23.996 37.838l1.809 2.145c4.034 4.252 7.056 5.339 12.941 5.543 3.791-.059 5.591-.17 8.594-2.528 2.06-2.686 2.353-4.828 2.656-8.16 4.384 4.384 5.927 11.775 6.125 17.813-1.703 4.824-4.604 8.606-8.969 11.343-4.675 1.83-9.27 1.78-14.156.844-9.902-5.566-16.25-19.668-22-29l-1.92-3.104C577.467 355.536 570.166 343.15 564 330l-1-2c-.41-3.709-.387-5.435 1.75-8.555l2.25-2.32 2.25-2.367z"/><path fill="#ac7b2e" d="m207 12-2.195 1.398c-7.367 4.97-13.067 10.15-15.446 18.98-1.159 8.455-.52 17.2.641 25.622l2.824-1.39 3.863-1.86 1.838-.91c10.436-4.98 21.624-7.508 32.931-9.65 1.979-.377 3.954-.77 5.929-1.165 22.907-4.412 22.907-4.412 27.59-2.013 1.4 1.363 1.4 1.363 3.025 3.988v1l-2.48.364c-26.796 3.983-53.621 8.596-77.672 21.788C186 69 186 69 183 69c-5.05-11.392-10.157-23.731-5.902-36.223 5.48-11.793 13.607-16.518 25.402-21.152C205 11 205 11 207 12"/><path fill="#fcf2d0" d="M352 102a78 78 0 0 1 4.625 2.938l2.352 1.59C361 108 361 108 363 110l-3.25 1.125c-4.016 1.707-5.665 4.025-7.75 7.875-1.45 4.348-1.645 8.46-1 13 2.816 3.862 5.507 5.574 10 7 3.584.24 3.584.24 7.313.125l3.8-.055L375 139c-4.574 4.882-9.566 6.955-16.242 7.36-9.966.297-19.621.195-27.758-6.235-3.839-3.685-4.81-6.524-5.437-11.812.173-7.036 4.56-14.436 9.437-19.313a113 113 0 0 1 9-6l2.031-1.238c2.51-.971 3.483-.748 5.969.238"/><path fill="#925324" d="M239 59c-6.73 2.857-13.44 5.063-20.5 6.938C206.283 69.075 206.283 69.075 196 76c-1.26 8.029.563 14.646 3.71 21.992 1.27 2.963 2.31 5.94 3.29 9.008-2.765 1.51-5.538 3.006-8.312 4.5l-2.381 1.3-2.295 1.231-2.11 1.143C186 116 186 116 183 116c-7.465-7.14-11.055-16.403-12.348-26.55.526-3.7 2.036-6.577 4.348-9.45 2.42-1.643 4.441-2.82 7.063-4l2.129-1.004c12.69-5.845 25.831-10.147 39.245-13.996l3.287-.955 3.085-.858 2.743-.769c2.535-.433 4.039-.244 6.448.582"/><path fill="#d9dadb" d="m669.5 238.625 2.594.164L674 239v3l-1.875.188L670 243a83 83 0 0 0-2 5c-1.819 4.068-3.723 8.095-5.625 12.125l-1.504 3.266C655.975 273.73 649.58 282.474 642 291c-4.1-.562-6.454-2.761-9.562-5.375l-2.88-2.398A98 98 0 0 1 624 278c5.58-6.661 11.63-12.817 17.77-18.955 1.666-1.669 3.324-3.345 4.982-5.022 15.878-15.97 15.878-15.97 22.748-15.398"/><path fill="#fbf2d0" d="M358.059 58.45c6.89.962 12.751 3.459 18.941 6.55l2.723 1.313c2.37 1.404 3.77 2.376 5.277 4.687.634 4.088.477 7.902 0 12-.918-.36-1.836-.722-2.781-1.094-9.34-3.69-9.34-3.69-19.219-3.906-2.244 1.165-2.244 1.165-4 3-2.134 8.552 2.242 16.586 6 24-9.915-4.751-15.188-12.182-19.09-22.3-1.46-4.332-2.112-8.043-2.223-12.638l-.113-3.09c1.25-8.725 7.013-8.795 14.485-8.523"/><path fill="#afb1b3" d="M84 477c7.414 5.219 12.654 13.778 18 21l1.667 2.252q4.51 6.1 8.997 12.217c2.732 3.718 5.493 7.412 8.273 11.093l2.083 2.79a474 474 0 0 0 4.117 5.421l1.988 2.664 1.758 2.31C132 539 132 539 131.91 541.554c-1.628 4.374-5.182 6.81-8.91 9.445-3.5 1.438-3.5 1.438-6 2l-8-8 3-2c1.854-1.103 1.854-1.103 3-3-.14-6.724-3.183-11.265-6.75-16.812l-1.753-2.775C93.592 500.175 93.592 500.175 78 482a90 90 0 0 0-6-1c3.815-3.988 6.373-4.817 12-4"/><path fill="#fcf2d1" d="M419 42c5.324 3.276 7.719 7.265 10 13l1.102 2.73c1.096 3.989 1.12 7.537 1.023 11.645l-.027 2.23c-.024 1.799-.06 3.597-.098 5.395l-13 3-.25-4.125c-.507-4.535-1.738-7.347-4.75-10.875-2.32-1.701-3.971-1.995-6.812-2.5-4.664.732-7.135 2.986-10.188 6.5-1.88 2.906-3.497 5.884-5 9h-1c-.686-10.75 4.067-20.307 11.027-28.34 5.378-5.537 9.81-9.157 17.973-7.66"/><path fill="#fbf1cf" d="M388 129c1.489 1.966 2.956 3.936 4.36 5.965 3.937 5.586 7.98 9.815 14.64 12.035 2.122.146 4.249.22 6.375.25l3.398.078c3.571-.363 5.41-1.135 8.227-3.328.96-2.882 1.106-4.699 1.063-7.687l-.028-2.45L426 132c5.756 5.164 7.708 12.985 8.25 20.438-.286 4.07-.899 6.225-3.25 9.562-6.212 3.804-12.488 3.83-19.547 2.531-10.468-2.73-18.44-8.822-23.965-18.058-3.59-6.697-3.59-6.697-3.215-9.57 1.046-2.739 2.37-5.308 3.727-7.903"/><path fill="#fbf2d0" d="M433.625 82.8c7.485-.308 14.035.896 20.11 5.52 2.62 2.694 3.283 4.803 3.827 8.493-.557 7.914-5.083 15.614-10.562 21.187-5.295 4.068-12.074 8.33-19 8-2.587-1.37-3.97-2.814-6-5a214 214 0 0 1 6.035-4.43c4.615-3.29 7.657-6.003 9.652-11.445.908-6.107.908-6.107-1.316-11.672-2.72-2.815-4.98-3.88-8.621-5.266l-3.266-1.269L422 86l1-2c3.556-.658 7.025-.926 10.625-1.2"/><path fill="#411d4c" d="m344.313 158.5 2.066-.056c3.51.044 5.568.524 8.594 2.341C357 163 357 163 357.125 166.938c-.82 4.237-2.766 6.343-6.125 9.062-3.211 2.14-5.086 2.528-8.848 3.148l-3.525.61q-3.648.61-7.297 1.21c-6.514 1.132-12.387 2.55-18.437 5.25C311 187 311 187 309 187c2.477-9.98 8.43-18.246 17-24 5.892-3.515 11.573-4.385 18.313-4.5"/><path fill="#401c4c" d="M183 223v2l-2.64 1.031c-9.334 3.798-17.433 8.472-25.497 14.59-4.709 3.372-8.566 4.099-14.363 3.793-3.595-.595-5.317-1.478-7.5-4.414-.792-4.275-.438-6.276 1.813-10 13.111-13.896 31.557-15.315 48.187-7"/><path fill="#f7d01f" d="M409 62c4.317 2.285 7.203 4.408 9 9 .82 3.573 1.059 6.46 0 10-2.27 2.149-4.643 3.611-7.32 5.219-5.269 3.502-8.67 8.607-11.305 14.281L398 103c-2.586.656-2.586.656-5 1-2.83-9.843-4.638-18.652-4-29l2 1 1.102-1.793C400.842 60.47 400.842 60.47 409 62"/><path fill="#f8cf1e" d="M430 88c3.771 2.125 6.99 4.093 9 8 .78 6.89-1.32 11.62-5.25 17.188-3.215 3.288-5.538 4.965-9.75 6.812-4.27-.09-7.696-1.672-11.633-3.234-4.657-1.507-9.532-2.081-14.367-2.766l1-3c2.338-1.169 3.55-1.063 6.14-.957l2.497.064q2.59.08 5.18.196c5.755.12 8.728-.598 13.183-4.303-.575-3.93-.575-3.93-3-7-8.371-.913-15.653 2.19-23 6 0-4.281 2.064-5.787 4.86-8.867C413.275 87.747 418.584 83.437 430 88"/><path fill="#aeb0b2" d="M684 315c3.265 1.804 4.89 2.834 7 6 1.203 5.271.738 9.535-1.695 14.367-5.61 8.88-13.065 16.525-23.305 19.633-3.136.524-5.892.755-9 0-2.625-2.812-2.625-2.812-4-6 1.153-3.459 2.181-3.805 5.128-5.657 4.083-2.93 7.48-6.71 10.997-10.28l2.418-2.42c7.217-7.088 7.217-7.088 12.457-15.643"/><path fill="#f3eaf3" d="M514.5 306.875c4.114.791 6.612 1.99 9.5 5.125 3.552 5.393 5.184 9.354 5.313 15.813l.113 3.707c-.5 4.091-1.428 5.69-4.426 8.48-3.78 1.25-7.46.773-11-1.004-5.914-4.473-8.38-10.688-9.414-17.875-.228-4.407-.15-8.12 2.351-11.871 3.219-2.365 3.803-2.614 7.563-2.375"/><path fill="#d7d8d9" d="m665.438 296.75 3.87-.078c4.766.423 8.12 1.808 11.567 5.14 1.833 3.565 1.603 6.27.645 10.118-4.328 11.995-18.87 25.933-30.223 31.363-2.56.788-3.816.626-6.297-.293l1.758-1.309c7.86-5.93 12.819-11.845 17.242-20.691.794-6.469-.529-9.771-4.332-15.02-1.982-2.353-4.194-4.161-6.668-5.98v-2c4.173-.993 8.153-1.198 12.438-1.25"/><path fill="#f8cf1e" d="M377.813 79.063c5.849 2.43 5.849 2.43 8.187 5.937q.517 1.996 1 4a502 502 0 0 0 2.625 6.625c1.484 3.788 2.703 7.359 3.375 11.375-3.315-.948-4.72-1.579-6.66-4.496l-1.402-2.942C383.099 95.739 381.753 93.13 378 91c-3.667-.25-3.667-.25-7 0-.486 5.804-.486 5.804 1.875 10.938 1.951 2.1 1.951 2.1 4.125 3.062v2l2.125.313c3.266.78 5.922 2.108 8.875 3.687-5.953 2.089-12.5-.686-18.164-2.812-6.019-2.97-8.487-8.234-11.149-14.063-.975-4.433-1.42-8.62-.687-13.125 5.214-6.843 12.79-4.297 19.813-1.937"/><path fill="#fbfafb" d="M401 231c3.68 2.179 6.27 4.762 8.438 8.438 1.074 4.895 1.214 8.822-1.125 13.312-2.342 3.29-3.593 4.78-7.313 6.25-5.04.54-7.954.062-12-3-3.34-2.969-4.741-4.94-5.309-9.453-.238-5.168-.272-8.619 3.184-12.672 4.42-4.462 8.172-4.46 14.125-2.875"/><path fill="#fcfbfc" d="M215 293c4.08 1.889 5.63 3.358 7.875 7.25 1.702 5.674 2.233 9.687-.687 15.125-2.275 2.73-3.879 4.41-7.458 4.996-7.715.202-7.715.202-11.23-2.558-4.145-4.664-4.957-8.473-4.824-14.594.506-3.465 2.086-5.598 4.324-8.219 4.056-2.704 7.24-2.643 12-2"/><path fill="#401b4a" d="M438 140c4.583 2.883 8.455 6.089 12.375 9.813a3177 3177 0 0 0 5.115 4.79c1.839 1.701 3.728 3.336 5.635 4.96a187 187 0 0 1 19.91 20.128 403 403 0 0 0 5.024 5.774l3.316 3.785 1.627 1.827 1.521 1.751 1.373 1.56c1.26 1.84 1.687 3.436 2.104 5.612-2.629.871-2.629.871-6 1-2.332-1.938-4.033-3.638-5.937-5.937l-1.475-1.69A493 493 0 0 1 478 188c-4.87-5.704-9.945-11.137-15.25-16.437l-2.24-2.243A186 186 0 0 0 443 154l-1-1-2 3-.184-2.23-.253-2.958-.247-2.917c-.293-2.681-.743-5.261-1.316-7.895"/><path fill="#b0b2b4" d="M108 549c2.563 1.5 2.563 1.5 5 4 .105 6.193-1.867 11.676-5 17-2.166 2.106-4.378 3.607-6.922 5.215C95.146 579.24 92.792 583.495 90 590a331 331 0 0 1-2.562 5.563l-1.13 2.503C85 600 85 600 82.849 600.777L81 601c-3.157-4.59-5.572-8.294-6-14h7l.918-1.836q1.326-2.652 2.664-5.297c.906-1.832 1.782-3.68 2.617-5.547 3.315-7.245 7.177-11.229 14.051-15.195 3.803-2.939 4.384-5.57 5.75-10.125"/><path fill="#b1b3b5" d="m69 563 3 1c.219 1.682.373 3.372.5 5.063l.281 2.847c-1.05 4.156-3.133 5.48-6.401 8.115-2.564 2.128-4.86 4.402-7.185 6.788l-2.52 2.57q-2.544 2.61-5.077 5.234C46.265 600.04 40.774 605.404 34 609h-4v-7l1 3c8.085-6.91 15.07-13.934 21.577-22.362C57.809 575.884 63.39 569.442 69 563"/><path fill="#8d1940" d="M400 439v7l-3.402.113c-15.168.492-15.168.492-27.961 8.004-5.153 5.928-8.77 12.346-8.824 20.258l-.043 2.836c.243 2.95.999 5.113 2.23 7.789-1.937-.625-1.937-.625-4-2-.75-2.437-.75-2.437-1-6l-.191-2.453c-.457-10.32 2.637-18.657 9.28-26.543 8.455-8.869 22.03-15.136 33.911-9.004"/><path fill="#3e1c49" d="m103 333 2 1c-1.254 5.852-4.244 8.71-9 12-7.356 4.71-14.203 8.787-23 10-.847-5.08-1.09-9.848-1-15l2.79-.262c9.983-1.108 19.144-3.205 28.21-7.738"/><path fill="#3f1c49" d="M103 353c0 7.528-4.181 12.504-9 18-4.612 4.319-9.01 7.862-15 10-1.56-3.587-2.475-6.958-3.125-10.812l-.508-2.958L75 365l3.148-1.102c7.47-2.672 14.37-5.393 21.032-9.796C101 353 101 353 103 353"/><path fill="#d5d6d7" d="M688 319h2c2.082 4.163 1.835 8.508 1 13-4.785 9.537-11.918 17.103-21.5 21.938-4.288 1.301-8.06 1.334-12.5 1.062v-2l1.617-.559c10.394-4.046 19.518-12.714 25.07-22.378 1.565-3.65 2.961-7.33 4.313-11.063"/><path fill="#acaeb0" d="M45 574c-.724 3.344-1.817 5.343-4 8v-3l-3.727 1.059-4.898 1.379-2.45.697C22.715 584.158 15.537 585.858 8 585c-2.562-1.5-2.562-1.5-4-3l1-4 3.563-.312c4.253-.452 8.328-1.314 12.5-2.25C29.104 573.758 36.817 573.71 45 574"/><path fill="#8d1940" d="M355 457c1.472 2.944.85 5.374.563 8.625l-.31 3.602L355 472l-3.187.688c-4.913 1.409-7.389 4.519-10.5 8.437-2.021 4.427-2.6 9.085-3.313 13.875l-4-1c-.723-11.092 4.021-20.408 10.313-29.25 3.227-3.303 6.68-5.503 10.687-7.75"/><path fill="#e69b29" d="M423 98c2.563 1.688 2.563 1.688 4 4 .125 2.5.125 2.5-1 5-3.316 2.828-5.75 4.285-10.086 4.172a139 139 0 0 1-4.289-.422l-2.23-.2c-1.8-.163-3.598-.354-5.395-.55l2-2-8 2c3.156-4.67 5.864-6.123 11-8l-1-2c5.224-1.741 9.481-2.543 15-2"/><path fill="#c3a0c3" d="M492 229c16.2-1.375 16.2-1.375 20.531 1.934C514.455 233.88 516 236.423 516 240c-7.79.692-15.548-1.722-21.687-6.625C492 231 492 231 492 229"/><path fill="#95639f" d="m103 333 2 1c-1.44 6.717-5.437 9.682-10.945 13.266C89.452 350 89.452 350 87 350l-1-10 7.316-2.906c2.256-.92 4.469-1.895 6.684-2.906z"/><path fill="#c19ec1" d="M498 210c1.387 1.46 1.387 1.46 2.688 3.375l1.324 1.898C503 217 503 217 503 219c-2.897.135-5.788.234-8.687.313l-2.475.126c-4.57.093-6.245.045-9.92-2.959L480 214c2.69-2.69 4.703-2.6 8.438-3.125l3.496-.508C495 210 495 210 498 210"/><path fill="#be9cbf" d="m140 288 1 2c-.855 2.074-.855 2.074-2.187 4.688-2.734 5.764-4.379 11.576-5.918 17.734L132 316l-.487 1.975c-.443 1.692-.972 3.361-1.513 5.025l-2 1c-.99-12.27-1.185-20.755 6.738-30.566 1.721-1.852 3.44-3.682 5.262-5.434"/><path fill="#ea9c27" d="M397 118c4.01 3.676 6.453 7.19 9 12v-4c4.223 1.408 4.964 3.832 6.992 7.633 1.239 2.909 1.409 5.241 1.008 8.367-2.187.375-2.187.375-5 0-6.389-5.57-10.294-15.835-12-24"/><path fill="#94639f" d="M103 353c0 7.415-4.213 12.586-9 18h-2c-2.622-7.047-2.622-7.047-2-11 2.336-2.02 2.336-2.02 5.375-3.812l3.023-1.833C101 353 101 353 103 353"/><path fill="#43224c" d="M517 228c1.703 2.434 1.703 2.434 3.25 5.438l1.578 2.996C523 239 523 239 523 241h-9l2-1q-1.433-2.44-2.875-4.875l-1.617-2.742c-1.428-2.449-1.428-2.449-3.508-4.383 3.366-.841 5.764-1.381 9 0"/><path fill="#a6a8aa" d="m7 554 2.055.656c8.897 2.662 16.114 3.555 24.945.344 3.375-.125 3.375-.125 6 0l-2 4-2.625-.125c-3.342-.045-3.342-.045-6.187 1.125-5.414 1.698-10.725 1.815-16.063-.25-3.074-1.722-4.18-2.932-6.125-5.75"/><path fill="#86542d" d="M239 59c-6.828 2.89-13.662 5.18-20.812 7.125-6.66 1.781-6.66 1.781-13.149 4.078-2.657 1.038-4.344.567-7.039-.203 2.795-1.863 4.769-2.67 7.938-3.621l2.964-.897 3.098-.92 3.004-.908c2.994-.9 5.994-1.778 8.996-2.654l3.063-.926 2.937-.86 2.625-.78c2.507-.458 3.986-.25 6.375.566"/><path fill="#401f4a" d="M502 207c3.68 3.382 5.979 6.425 8 11-1 1-1 1-3.687 1.625C503 219 503 219 501.27 216.992A112 112 0 0 1 497 210c3-2 3-2 5-3"/><path fill="#a1a2a4" d="M278 354h1c1.315 13.572 1.718 25.382-4 38l-2 2 1.367-6.055L275 385l.495-2.16c1.38-6.337 1.912-12.492 2.13-18.965l.117-2.898q.14-3.489.258-6.977"/><path fill="#584730" d="M374 97c2.275 2.167 4.236 4.396 6 7v2l6 2v-3c4.875 3.625 4.875 3.625 6 7-2.187.75-2.187.75-5 1-2.5-1.625-2.5-1.625-5-4l-2.625-2.437C374 100.763 374 100.763 374 97"/><path fill="#373025" d="M416 101v1l-1.977.297c-5.657.968-9.507 2.138-14.023 5.703 1.974.095 1.974.095 3.688-.5 3.122-.675 6.128-.561 9.312-.5v1l-5.75 1.438-3.234.808-5.407 1.352L397 112l-1-2c5.695-7.538 10.611-9.563 20-9"/><path fill="#1a1816" d="M395 115c5.151 1.364 8.35 4.493 11 9 .737 3.015.986 5.902 1 9-1.724-2.585-3.304-5.196-4.875-7.875-2.15-3.605-4.367-6.943-7.125-10.125"/><path fill="#acadaf" d="m242 425 3 1c-13.483 6-13.483 6-19 6-2.187-1.5-2.187-1.5-4-3l3.867-.621 5.008-.817 2.55-.408 2.442-.4 2.254-.365c1.958-.321 1.958-.321 3.879-1.389"/><path fill="#151516" d="M599 320c3.856 3.636 6.867 7.417 9.813 11.813l1.232 1.81A966 966 0 0 1 613 338l-3 1-1.39-2.195-1.86-2.93-1.926-3.035a229 229 0 0 0-4.261-6.402C599 322 599 322 599 320"/><path fill="#614521" d="M391 118c1.194 3.582.738 4.6-.562 8.063l-.942 2.66c-2.017 3.07-4.01 3.43-7.496 4.277l1.46-2.266c.633-.984 1.264-1.97 1.915-2.984l1.898-2.953c1.378-2.232 2.61-4.428 3.727-6.797"/><path fill="#161717" d="M677 254h3q-.423 2.221-.875 4.438l-.492 2.496L678 263l-2 1c-1.467-3.815-.433-6.29 1-10"/><path fill="#5b3f1e" d="M398 114c8.571-.286 8.571-.286 12 2l-1 2-11-3z"/><path fill="#614738" d="M382 138c3 1 3 1 4.688 3.938C388 145 388 145 388 147l-3 1z"/><path fill="#afb0b1" d="m448 346 3 1a975 975 0 0 1-3.375 3.938l-1.898 2.214C444 355 444 355 442 356c1.652-3.579 3.783-6.748 6-10"/><path fill="#9b9c9d" d="M346 340c3.595 3.329 6.224 6.99 9 11-3.83-1.56-6.322-3.876-9-7z"/><path fill="#a38ca5" d="m140 288 1 2c-1.125 3.063-1.125 3.063-3 6-2.687.875-2.687.875-5 1q1.468-1.97 2.938-3.937l1.652-2.215C139 289 139 289 140 288"/><path fill="#563b2d" d="m347 100-1 3c-3.562 1.688-3.562 1.688-7 3v-4c5.75-2 5.75-2 8-2"/><path fill="#895e93" d="M271 372h1c.082 4.161-.018 7.947-1 12l-3-3z"/><path fill="#981a47" d="M358 473h1l.402 1.863.536 2.45.527 2.425c.534 2.407.534 2.407 1.535 5.262-1.937-.812-1.937-.812-4-2-1.231-3.694-.644-6.206 0-10"/><path fill="#6d5022" d="M390 92h1l2 12c-2.712-3.616-3.567-4.776-4-9z"/><path fill="#5a3d1d" d="m399 99 3 1-5 7-1-2a101 101 0 0 1 3-6"/></svg>