<svg xmlns="http://www.w3.org/2000/svg" width="950" height="800"><path fill="#5c2313" d="M498.938 8.938a372 372 0 0 0 7.777 3.101l2.66 1.024 2.398.91C514 15 514 15 515.852 16.683c3.226 1.978 5.482.993 9.148.317 33.288-2.442 67.42 12.67 92.5 34.063 11.34 9.952 22.408 21.78 23.816 37.46.65 21.308-6.92 40.062-20.316 56.477l-2 2 1.8 1.25c2.74 1.908 5.47 3.828 8.2 5.75l2.656 1.86C669.116 182.521 694.208 220.445 708 264l.718 2.244c15.417 49 14.622 106.918-4.718 154.756l2.031.23c3.92 1.016 7.076 2.946 10.469 5.082l2.125 1.336c7.22 4.683 13.35 10.24 19.375 16.352l2.266 2.234c16.695 17.484 23.293 41.208 23.085 64.91-.649 24.87-8.78 47.17-25.351 65.856l-1.86 2.113c-41.237 43.969-118.523 53.958-175.353 58.645-1.887.158-1.887.158-3.787 1.242l.656 1.652c2.911 7.885 3.552 15.018.578 23.012-4.749 8.987-11.789 14.188-21.234 17.336-10.846.993-18.561.006-28-6l-.516 2.195c-1.714 6.84-3.364 12.27-9.027 16.871-3.376 4.032-3.439 7.384-3.894 12.496-3.56 29.855-17.16 58.575-36.563 81.438l-1.324 1.727c-3.15 4.08-7.056 7.913-11.676 10.273-2.246-.34-2.246-.34-4-1l-.594-3.023c-2.393-11.67-5.746-22.935-9.328-34.29-1.696-5.39-3.258-10.81-4.78-16.251C424.318 734.834 420.823 724.91 416 715l-1.41-3.36c-1.317-2.787-1.317-2.787-3.79-3.523l-2.488-.242c-8.651-1.319-13.87-4.576-19.546-11.281-2.861-4.203-4.385-8.732-5.766-13.594l-3.187 2.375c-7.02 5.23-15.172 6.388-23.758 5.227-8.34-1.975-15.394-6.252-20.055-13.602-3.115-8.41-2.432-15.847 1-24 2.793-4.56 6.22-8.245 10-12-7.535-1.036-15.068-2.027-22.629-2.86-26.25-2.915-52.066-7.377-77.371-15.14l-2.47-.751c-26.56-8.25-50.593-20.804-70.53-40.249l-1.941-1.754c-17.608-16.3-27.818-41.688-29.182-65.379C141.875 487.314 149.1 462.677 168 442c9.657-9.935 21.45-17.246 34-23-.615-3.78-1.742-7.268-3.019-10.874-5.406-15.33-8.397-30.97-9.981-47.126l-.34-3.379c-4.963-59.759 7.997-121.983 47.062-168.68 8.877-10.256 18.88-18.554 29.84-26.504l1.844-1.34C271.759 158 271.759 158 274 158v-2l-2.133-.684c-3.466-1.59-5.996-3.794-8.742-6.379l-1.603-1.503c-14.34-13.688-23.146-32.147-23.991-52.047-.223-15.806 6.904-27.691 17.531-38.95 22.809-21.51 55.239-38.62 87-39.874 5.492-.248 8.305-.966 12.653-4.168C389.096-8.587 463.173-5.708 498.938 8.938"/><path fill="#f69443" d="M482 170c1.23 3.693.322 4.974-1.349 8.342l-1.089 2.095-1.116 2.174C460.363 217.182 428.801 238.483 395 256c35.834-4.16 72.897-12.817 101-37l2.617-2.238A286 286 0 0 0 506 210l2.305-2.11c10.489-9.944 19.1-23.104 23.695-36.89 40.221-1.484 82.798 24.122 111.657 50.516 31.097 28.923 42.241 67.1 46.155 108.297q.325 3.252.655 6.505A3006 3006 0 0 1 692 352c2.063.225 2.063.225 3.367-1.25 6.515-7.561 9.292-15.102 11.633-24.75h1c.314 22.88-.607 44.727-4.937 67.25l-.386 2.007c-1.499 7.72-3.22 15.27-5.677 22.743l-3.648-1.094-4.727-1.406-2.406-.723-2.305-.683-2.126-.635c-1.803-.542-1.803-.542-3.788-.459v2l2.754 1.031C710.297 427.324 734.758 445.587 748 475c1.638 4.276 2.885 8.561 4 13l.902 3.219c4.829 19.047 3.033 39.905-4.902 57.781l-1.156 2.684c-3.032 6.565-7.1 11.89-11.844 17.316l-1.953 2.418c-5.904 6.726-12.741 9.293-21.03 11.928-1.828.593-3.633 1.252-5.435 1.92-42.81 15.567-91.79 18.53-136.894 21.984l-3.28.251c-10.96.831-21.921 1.572-32.9 2.104l-2.524.123c-7.33.332-14.647.373-21.984.272 2.946-2.946 6.68-3.668 10.563-4.937 39.61-13.245 39.61-13.245 71.437-39.063l.883-2.586c1.67-3.608 4.702-5.058 7.992-7.039 7.503-4.76 13.843-10.112 20.125-16.375l2.273-2.203c8.17-8.452 14.8-21.011 15.727-32.797l.234-2.777c.749-16.823-6.442-32.125-17.484-44.536-8.54-9.166-20.878-17.1-33.722-17.864-3.968-.07-7.935-.122-11.903-.135l-2.246-.008c-25.649-.01-51.845 2.677-76.879 8.32l-3.462.778c-3.769.863-7.53 1.754-11.288 2.66l-3.538.837c-7.843 1.961-14.82 4.616-21.66 8.963-2.866 1.808-4.523 2.801-7.962 2.547-3.187-.81-5.074-1.895-7.777-3.723-5.05-2.848-9.338-3.738-15.002-4.237l-2.517-.24c-9.023-.798-18.024-.875-27.075-.85l-5.375-.006q-5.59-.005-11.183.01c-4.691.012-9.383.005-14.074-.007-16.6-.034-33.18-.05-49.743 1.15l-3.205.232c-15.417 1.305-27.517 7.237-37.889 18.886-9.777 12.603-14.64 28.126-13.25 44 2.705 15.388 9.65 27.487 20 39l1.79 2.04c3.129 3.35 6.442 6.171 10.163 8.839l2.166 1.56a195 195 0 0 0 4.334 2.998c4.421 3.124 6.373 5.544 7.948 10.73 2.153 6.59 9.056 11.213 14.599 14.833-9.146 4.573-34.815-6.588-44.25-9.687C244.044 577.999 211.775 560.005 194 528c-12.962-26.22-18.016-59.463-8.687-87.625 2.918-8.32 8.039-11.945 15.593-15.895 8.079-3.865 16.308-6.762 25.047-8.707L228 415l1-3-2.852.621-3.773.817-3.727.808c-3.209.663-6.415 1.226-9.648 1.754-14.587-89.407-14.587-89.407-6-127h1l.41 3.523c2.394 18.514 7.917 37.938 22.89 50.235 1.687 1.305 1.687 1.305 3.7 2.242l-.219-2.203c-.673-7.29-.898-14.48-.781-21.797l-5-2v-2l6 1-.105-1.879c-.546-17.835 5.478-33.9 14.785-48.828 1.486-2.14 1.486-2.14 1.32-4.293a375 375 0 0 0-6-4l-1-2 10 3 2.02-2.457c17.414-21.007 37.88-37.237 62.73-48.668l3.547-1.633L321 206a313 313 0 0 1-3.516 8.54c-3.317 7.776-6.31 15.582-8.859 23.648l-.759 2.39c-1.271 4.123-2.278 8.135-2.866 12.422l.76-1.842c5.236-12.608 10.696-24.753 18.06-36.27 1.152-1.843 2.22-3.715 3.282-5.61 5.005-8.552 10.77-11.933 19.957-14.688 1.84-.56 3.656-1.198 5.468-1.84C393.707 178.19 438.5 171.758 482 170"/><path fill="#381e14" d="M498.938 8.938a372 372 0 0 0 7.777 3.101l2.66 1.024 2.398.91C514 15 514 15 515.852 16.683c3.226 1.978 5.482.993 9.148.317 28.522-2.092 54.075 8.592 77.938 23.375l2.1 1.3c4.834 3.069 4.834 3.069 5.962 5.325l-3.664.445c-13.81 1.83-25.742 4.761-36.566 14.137C569 63 569 63 566 64a71 71 0 0 0-2 4q-1.561 1.964-3.187 3.875c-11.187 14.152-16.216 31.663-16.188 49.5l.003 3.054c.138 8.68 1.42 15.738 6.009 23.25C552 150 552 150 552 152c25.8 8.93 25.8 8.93 52 4a103 103 0 0 0 3.938-2.375C611 152 611 152 613.34 152.703c12.364 6.028 23.304 13.893 33.383 23.207a144 144 0 0 0 5.965 5.153c3.863 3.306 7.09 7.012 10.312 10.937l2.242 2.664C688.705 223.674 699.605 259.63 705 296l.36 2.387c2.374 16.224 4.745 33.97-5.298 48.113A39.9 39.9 0 0 1 692 354c-1.104-2.207-1.256-3.711-1.477-6.16l-.246-2.62-.257-2.853a4882 4882 0 0 0-.888-9.235c-2.534-26.457-2.534-26.457-9.132-52.132l-.902-2.635c-14.99-42.441-46.835-71.294-86.883-90.455-7.922-3.661-16.07-6.786-24.215-9.91l-3.363-1.32c-10.745-4.104-21.22-5.102-32.637-5.68l-.316 2.094c-5.196 22.09-27.049 42.6-45.43 54.526C459.263 244.145 425.17 257.613 393 257a54.7 54.7 0 0 1 8.238-5.348l2.463-1.318 2.611-1.397C437.984 231.723 468.735 207.677 482 173v-2c-48.167 1.56-96.865 10.776-142.09 27.355-1.91.645-1.91.645-4.03.981-2.041.497-2.041.497-2.971 2.477L332 204a177 177 0 0 1-2.54 3.984C319.074 224.007 309.868 240.742 304 259c-1.697-4.119-.25-7.81.938-11.875l.671-2.353c1.922-6.546 4.138-12.98 6.454-19.397l.993-2.761A131.5 131.5 0 0 1 320 207q-2.94 1.43-5.875 2.875l-3.305 1.617c-2.859 1.353-2.859 1.353-4.82 3.508l-2.145.836c-3.779 1.54-7.095 3.62-10.543 5.789l-2.152 1.353C275.289 233.096 261.498 246.157 250 261l-9-3 8 5-1.54 2.535c-9.947 16.687-15.28 32.9-16.46 52.465l-6-1v2l6 1-.035 2.387c-.066 7.924.312 15.723 1.035 23.613-12.744-6.106-18.794-18.216-23.512-30.988-9.619-27.383-2.898-57.548 9.326-83.189 1.648-3.32 3.396-6.578 5.186-9.823l1.059-1.941C229.383 210.404 235.675 202.21 243 194l1.867-2.27c7.857-9.53 18.344-16.726 28.512-23.618a145 145 0 0 0 4.183-3.007c7.007-4.615 13.997-4.846 22.148-5.345 7.202-.488 13.073-1.96 19.708-4.737C322 154 322 154 325 154l.883-1.8c.93-1.832 1.95-3.617 2.992-5.387 3.422-6.73 4.56-14.485 6.125-21.813l2.3 1.059 3.012 1.379 2.989 1.37c2.715 1.25 2.715 1.25 5.699 2.192.09 3.832-.121 7.266-1 11l7-4c-.586-4.6-2.564-8.156-4.812-12.125C336.435 100.763 331.983 64.926 339 37c2.055-6.39 4.419-12.31 8-18-11.902 5.006-11.902 5.006-19.55 14.684C322.644 47.218 322.402 61.8 322 76a99 99 0 0 1-7.187-7.812c-11.875-13.532-27.012-18.773-44.504-20.04L268 48c1.312-3.937 3.698-5.088 7.063-7.187l1.886-1.191c19.55-12.096 41.447-21.667 64.593-22.676 5.59-.35 8.987-1.516 13.576-4.71 32.844-21.582 109.305-17.432 143.82-3.299"/><path fill="#911e1e" d="M571.403 438.703q2.257-.015 4.513-.044c18.124-.204 31.389 4.9 44.428 17.626 10.983 11.226 18.638 26.492 18.969 42.34-.547 19.339-10.36 34.377-24.012 47.438a107.6 107.6 0 0 1-20.133 14.515c-2.7 1.77-3.016 3.544-4.122 6.474-3.959 7.374-12.963 12.046-20.046 15.948l-2.788 1.558c-20.529 11.344-42.494 20.869-65.186 26.893a273 273 0 0 0-6.327 1.815c-54.47 16.011-121.615 15.355-172.406-12.332-8.475-4.977-16.22-10.822-19.48-20.434-2.396-4.625-5.6-6.5-9.84-9.406-17.33-12.206-29.664-28.876-34.555-49.555-2.665-16.186 2.566-31 11.465-44.367C280.12 466.299 290.59 458.992 304 456c21.13-2.743 42.624-2.313 63.882-2.26 4.7.01 9.4.004 14.1-.008q5.542-.009 11.083 0 2.598.003 5.195-.005c9.031-.019 17.992.225 26.988 1.06l2.335.191c6.55.688 11.158 2.996 16.655 6.659 3.499 1.727 5.067 1.496 8.762.363 2.5-1.412 2.5-1.412 5-3.187 20.837-12.533 50.557-14.825 74.3-17.504 2.54-.29 5.075-.61 7.61-.934 10.482-1.253 20.946-1.598 31.493-1.672"/><path fill="#dcddde" d="M841.441 300.668c5 2.603 7.586 6.254 9.934 11.27 1.465 7.178.317 13.758-1.187 20.812l-.546 2.644c-1.377 6.58-2.9 13.112-4.642 19.606l2.973-1.906C892.508 324.736 892.508 324.736 916 327c4.455 2.11 7.158 4.395 9 9 1.302 7.294-.935 12.99-5 19-3.466 4.207-7.176 8.119-11 12l-1.448 1.49c-8.011 8.24-8.011 8.24-10.552 9.51l2.586-.437c8.98-1.334 17.834-1.809 26.914-1.875l3.36-.053c6.422.004 11.343.52 17.14 3.365 2.239 2.765 3.046 4.531 2.934 8.11-1.81 11.05-10.321 17.629-18.934 23.89-4.243 2.818-8.618 5.405-13 8l-3 2 3.805.113c22.58.819 22.58.819 28.383 6.575 1.849 3.379 2.429 5.424 1.636 9.234-3.582 9.03-12.553 13.79-20.992 17.453-8.679 3.237-17.222 4.471-26.4 5.536-16.278 1.937-27.79 6.427-39.78 17.71-6.537 5.863-12.132 8.594-20.906 8.645-2.938-.285-5.04-1.12-7.746-2.266-2.463-.944-2.463-.944-5-1-2.827 1.595-4.97 3.525-7.363 5.715-2.768 2.399-5.461 4.082-8.7 5.785l-2.785 1.469c-4.189 1.37-7.797 1.9-12.152 1.031-2.766-1.54-4.811-3.544-7-5.812l-1.821-1.793c-5.14-5.142-9.762-10.624-14.179-16.395l-2.453-3.047c-4.508-5.632-8.623-11.404-12.36-17.578l-1.056-1.735c-5.25-8.915-8.926-18.273-11.756-28.202l-.905-3.15c-2.522-9.027-4.38-17.982-5.47-27.288-.15-1.09-.3-2.181-.453-3.305-.315-3.875-.386-6.476 1.86-9.738 7.448-7.16 17.628-11.13 27.843-11.02l3.266.028L775 368l.664-2.344c4.321-14.194 13.388-22.886 25.04-31.699 5.604-4.776 7.365-9.502 9.296-16.394 3.637-12.92 3.637-12.92 8.86-17.024 8.071-3.902 14.39-3.086 22.581.129"/><path fill="#521328" d="M573 443c17.18-.748 31.4 3.591 44.313 15.25 7.431 6.993 13.835 15.236 17.687 24.75l1.074 2.598c2.885 10.601 2.424 24.061-2.511 33.89-2.559 4.113-5.414 7.839-8.563 11.512l-1.937 2.625C616.84 540.789 607.062 549.979 598 553l-1.434-2.93c-7.49-14.905-16.648-25.475-32.246-31.992-9.8-3.182-19.407-3.44-29.633-3.39l-2.317.005c-26.958.107-56.637 1.611-81.37 13.307l-2.234 1.051C435.9 535.194 424.622 541.18 419 555c-1.094 3.542-1.304 7.062-1.562 10.75l-.254 3.547L417 572l3.875-.375c7.004-.022 12.498 3.851 17.418 8.578L440 582c5.245-1.974 10.093-4.626 15.04-7.246 8.853-4.186 17.629-5.285 27.335-5.192l3.333.023c12.142.247 21.117 3.392 31.733 9.34 2.415 1.227 2.415 1.227 4.63.993 2.583-1.229 4.213-2.9 6.241-4.918 13.332-12.291 26.928-17.291 44.926-17.398 4.24.449 6.962 1.54 10.762 3.398-1.678 2.076-2.508 2.935-5.201 3.293l-2.553-.106-2.842-.07-5.851-.234C550.725 563.47 538.25 572.158 526 583a143 143 0 0 0-3 3c-3.067-1-6.104-2.04-9.121-3.184-18.777-7.1-36.054-9.282-55.063-2.09-5.412 2.448-11.414 5.542-15.378 10.051C442 592 442 592 440.016 591.988c-2.795-1.37-3.668-3.151-5.266-5.8-3.308-4.879-5.922-7.807-11.75-9.188-11.925-1.45-31.789-.046-42 7-5.259 5.4-6.765 10.604-7 18-26.679-1.84-54.157-16.971-75-33l-3.621-2.723C280.132 554.69 266.239 541.457 262 522c-.956-18.713 3.03-32.95 15.313-47.437 8.4-8.79 19.754-15.643 32.097-15.989q3.327.026 6.652.113l3.452.03c8.317.114 8.317.114 9.486 1.283a393 393 0 0 1-.219 5.98c-.34 8.916.137 15.042 6.219 22.02l1.945 2.316c11.86 12.932 29.104 20.96 46.553 21.805 12.278.434 23.324.643 34.428-5.137l2.131-1.105q2.077-1.099 4.112-2.274c5.954-3.255 9.833-2.681 16.37-.921l2.086.753 2.102.747q2.495.896 4.988 1.798c11.163 3.459 23.317 3.422 34.91 3.393h2.24c11.621-.027 22.622-.956 33.93-3.82 2.16-.544 4.325-1.029 6.502-1.5 14.86-3.318 32.053-8.447 41.703-21.055 4.335-7.897 6.18-14.468 6.188-23.437l.037-2.276c.01-4.278-.413-7.34-2.225-11.287z"/><path fill="#2b2525" d="M397 260c19.401 15.533 28.38 34.853 32 59l.559 3.418c3.208 26.038-2.667 53.171-17.758 74.723C402.984 408.404 391.484 417.093 377 419c-12.402 1.017-22.891-3.462-32.527-10.969-17.594-14.964-27.473-37.025-29.348-59.894-.72-12.364-1.042-25.027 1.875-37.137l-2.238 1.793C308.19 317.911 301.906 322.142 294 325l-2.157.785c-6.532 2.19-12.483 2.685-19.343 2.59l-3.16-.024c-15.367-.279-30.305-2.944-44.34-9.351v-2l6 1-.105-1.879c-.546-17.835 5.478-33.9 14.785-48.828 1.486-2.14 1.486-2.14 1.32-4.293a375 375 0 0 0-6-4l-1-2c4.509 1.459 8.985 2.964 13.402 4.684 23.852 9.265 46.14 11.544 71.598 9.316l3.47-.23c7.437-.74 11.275-2.502 16.528-7.81 2.843-2.783 5.664-4.188 9.252-5.897l3.516-1.715c12.413-5.172 28.128-2.738 39.234 4.652"/><path fill="#dbdcdd" d="M120 505c3.812 3.107 5.372 6.667 6.977 11.191l.775 2.13c2.489 7.026 4.342 14.18 6.091 21.418 3.052 12.612 6.417 25.006 10.682 37.27C148.62 589.053 148.62 589.053 148 595c-4.512 5.643-14.115 10.237-21.176 11.34-2.043.526-2.043.526-3.133 2.77l-1.129 2.64c-2.93 6.82-7.991 10.753-13.812 15.125l-1.723 1.313a900 900 0 0 1-7.699 5.804c-9.53 7.196-13.408 14.565-16.766 25.82-1.35 4.106-3.025 6.556-6.562 9.188-4.609 1.676-8.358.816-12.816-.883C59.31 666.136 56.99 663.88 55 660c-2.817-9.151-1.804-17.745 0-27-6.834 8.963-12.273 17.988-17.114 28.156C33.974 669.294 30.624 675.917 23 681c-4.272.564-6.418.33-10.187-1.812-6.038-5.667-7.539-15.486-7.918-23.377q-.072-2.387-.135-4.775c-.207-7.256-.718-13.821-2.822-20.786-4.193-14.228-2.394-26.731 4.472-39.969 3.35-6.485 4.045-11.78 4.292-18.946.551-15.209 6.314-29.266 17.005-40.226 16.442-15.125 40.502-17.863 61.85-19.176 7.155-.547 11.802-1.942 17.966-5.652 3.964-2.05 8.167-2.484 12.477-1.281"/><path fill="#2b2525" d="M564 262q1.362 1.548 2.703 3.113c3.91 4.022 8.35 4.242 13.735 4.762l3.042.34c28.733 2.928 53.927-1.45 80.31-12.895C667 256 667 256 669 256v2c-19.813 14.68-43.684 22.436-68.187 22.188l-3.694-.002c-6.128-.03-12.062-.243-18.119-1.186l1.531 2.773 1.969 3.602 1.012 1.828C586 291.773 586 291.773 586 294c.558.235 1.116.47 1.691.71 2.871 1.604 4.888 3.624 7.246 5.915 15.623 14.414 30.49 18.574 51.125 18.563l3.613.001c7.79-.046 15.306-.51 22.993-1.752 3.836-.503 7.466-.505 11.332-.437-4.398 3.544-8.57 4.643-14 6l-2 .521c-21.202 5.396-43.762 7.003-63.312-3.896A133 133 0 0 1 591 310l.938 3.438c6.29 25.654.385 55.026-12.938 77.562-2.463 3.541-5.114 6.798-8 10l-1.71 1.957c-7.839 8.445-18.887 14.3-30.384 15.316-13.125.392-23.223-3.458-32.906-12.273l-2.047-1.77C489.868 391.264 482.764 371.51 480 353l-.395-2.3c-3.731-25.624 1.081-53.01 15.395-74.7 8.384-11.236 19.573-21.007 33.656-23.684 13.248-1.788 24.517 1.972 35.344 9.684"/><path fill="#cb6234" d="m188 432 1 2a121 121 0 0 1-2.312 6.188c-10.332 27.416-4.093 59.75 7.312 85.812 14.723 30.847 46.654 49.009 77.56 60.217 12.967 4.554 26.149 8.8 39.789 10.732 8.37 1.206 15.17 3.863 22.787 7.5C379.886 625.964 437.71 627.431 486 615l2.086-.537c7.586-1.942 7.586-1.942 15.094-4.158 4.275-1.303 8.208-1.362 12.675-1.305 7.51.05 14.962-.271 22.457-.75l2.056-.13A2843 2843 0 0 0 557 607l2.787-.191c79.088-5.095 79.088-5.095 155.156-25.893 3.335-1.323 6.511-2.345 10.057-2.916-23.098 24.717-65.835 34.849-97.625 41.063l-3.637.736C539.628 636.47 449.688 633.572 205 589c-27.204-18.595-43.1-43.626-50.871-75.582-3.923-21.507-.482-42.194 11.855-60.336 6.284-8.106 13.443-15.427 22.016-21.082"/><path fill="#0b0c0d" d="M841.441 300.668c5 2.603 7.586 6.254 9.934 11.27 1.465 7.178.317 13.758-1.187 20.812l-.546 2.644c-1.377 6.58-2.9 13.112-4.642 19.606l2.973-1.906C892.508 324.736 892.508 324.736 916 327c4.455 2.11 7.158 4.395 9 9 1.302 7.294-.935 12.99-5 19-3.466 4.207-7.176 8.119-11 12l-1.448 1.49c-8.011 8.24-8.011 8.24-10.552 9.51l2.586-.437c8.98-1.334 17.834-1.809 26.914-1.875l3.36-.053c6.422.004 11.343.52 17.14 3.365 2.239 2.765 3.046 4.531 2.934 8.11-1.81 11.05-10.321 17.629-18.934 23.89-4.243 2.818-8.618 5.405-13 8l-3 2 3.805.113c22.58.819 22.58.819 28.383 6.575 1.849 3.379 2.429 5.424 1.636 9.234-3.582 9.03-12.553 13.79-20.992 17.453-8.679 3.237-17.222 4.471-26.4 5.536-16.278 1.937-27.79 6.427-39.78 17.71-6.537 5.863-12.132 8.594-20.906 8.645-2.938-.285-5.04-1.12-7.746-2.266-2.463-.944-2.463-.944-5-1-2.827 1.595-4.97 3.525-7.363 5.715-2.768 2.399-5.461 4.082-8.7 5.785l-2.785 1.469c-4.189 1.37-7.797 1.9-12.152 1.031-2.766-1.54-4.811-3.544-7-5.812l-1.821-1.793c-5.14-5.142-9.762-10.624-14.179-16.395l-2.453-3.047c-4.508-5.632-8.623-11.404-12.36-17.578l-1.056-1.735c-5.25-8.915-8.926-18.273-11.756-28.202l-.905-3.15c-2.522-9.027-4.38-17.982-5.47-27.288-.15-1.09-.3-2.181-.453-3.305-.315-3.875-.386-6.476 1.86-9.738 7.448-7.16 17.628-11.13 27.843-11.02l3.266.028L775 368l.664-2.344c4.321-14.194 13.388-22.886 25.04-31.699 5.604-4.776 7.365-9.502 9.296-16.394 3.637-12.92 3.637-12.92 8.86-17.024 8.071-3.902 14.39-3.086 22.581.129m-22.101 4.46c-4.053 5.661-6.036 12.614-7.903 19.247-2.906 9.883-10.181 15.083-18.277 20.96-7.48 5.597-11.335 14.744-13.16 23.665l-.422 2.055c-.467 4.478.853 6.872 3.524 10.422 4.126 5.715 7.515 11.722 10.898 17.898q1.749 3.17 3.5 6.336l1.754 3.188c1.664 2.956 3.412 5.845 5.176 8.742 4.192 7.152 7.416 14.687 10.66 22.303 1.032 2.424 2.077 4.842 3.125 7.26 5.466 12.7 5.466 12.7 7.214 18.008l.651 1.967a299 299 0 0 1 1.615 5.218c1.089 2.788 1.089 2.788 3.766 3.95 7.203 1.852 14.358 1.755 20.976-1.784A183 183 0 0 0 858 471a2692 2692 0 0 1 9.015-5.877c10.924-7.027 22.524-7.978 35.287-9.06 11.524-1.01 21.6-2.038 31.698-8.063l2.273-1.324c3.596-2.327 6.048-4.724 7.727-8.676.667-2.587.667-2.587 0-5-4.02-3.146-7.19-3.365-12.207-3.328l-2.073.006q-2.166.01-4.33.04c-2.185.032-4.37.042-6.556.048-6.7.043-13.193.354-19.834 1.234-2 .061-4 .087-6 .063l-2.875-.028L888 431v-3l1.95-.867C920.81 414.711 920.81 414.711 944 392c.668-2.264.668-2.264.75-4.375L945 384c-13.055-7.87-36.681 1.188-50.102 4.48l-2.89.709q-2.69.669-5.372 1.374c-4.204 1.065-7.376 1.84-11.636.437.216-3.69.807-4.824 3.59-7.36a194 194 0 0 1 3.347-2.39q1.787-1.31 3.567-2.629l1.793-1.325c4.143-3.154 7.913-6.735 11.703-10.296l1.855-1.66c6.398-5.958 14.084-14.55 15.395-23.465.103-3.696.103-3.696-1.465-5.578-3.5-2.543-7.517-2.076-11.684-1.642C880.633 338.342 859.13 350.343 842 365c.597 4.777 2.627 8.37 4.938 12.5 5.848 10.568 8.168 20.531 5.34 32.578-.902 2.263-1.724 4.05-3.278 5.922-2.75 1.063-2.75 1.063-5 1a82 82 0 0 1 3.563-8.062c4.185-8.554 2.655-16.702-.211-25.434-3.596-9.952-3.596-9.952-9.352-18.504-.654-7.584 1.457-14.291 3.438-21.562 5.007-16.318 5.007-16.318 3.203-32.68-2.74-4.607-6.486-7.352-11.641-8.758-5.224-.727-9.644-.798-13.66 3.129"/><path fill="#a36868" d="M347 19a302 302 0 0 1-3.219 7.84C333.02 52.858 335.256 89.077 346 115c2.92 6.527 6.03 13.045 10 19 .125 2.438.125 2.438-1 5-2.537 1.656-5.2 2.858-8 4l2-12-2.562-.25c-4.154-.906-6.794-2.584-10.438-4.75l-.396 1.649a1033 1033 0 0 1-1.854 7.476l-.621 2.594c-1.307 5.148-2.866 8.987-6.129 13.281l-2 3a105 105 0 0 1-8.125 3.125l-2.227.8c-12.905 4.477-26.645 4.75-39.39-.312-5.094-2.522-9.12-5.75-13.258-9.613l-2.11-1.836c-13.039-11.978-21.107-30.825-22.21-48.379-.621-16.046 5.137-27.522 15.66-39.433 2.16-2.224 4.304-4.335 6.66-6.352l1.523-1.375c3.213-2.646 5.483-3.978 9.711-3.816q2.265.264 4.516.629l2.4.332c6.29.953 12.078 2.515 17.85 5.23l2.313 1.055C307.54 58.7 314.46 66.17 321 74l.113-3.559c.317-8.288.831-16.45 2.262-24.629l.345-2.027c1.415-7.551 3.084-13.617 9.24-18.398C342.353 19 342.353 19 347 19"/><path fill="#fdfdfd" d="M573 444c2.51 5.112 3.552 9.388 3.5 15.125l-.017 2.24c-.354 11.054-4.448 20.07-12.483 27.635l-2.75 2.688c-15.181 10.801-34.74 13.645-52.647 16.819-2.503.431-2.503.431-4.502 1.044-5.837 1.248-12.199.693-18.163.699l-2.327.004c-34.774-.013-34.774-.013-46.427-7.406-3.833-1.488-7.377-.61-11.101.96-2.689 1.337-5.315 2.776-7.946 4.221-8.464 4.48-16.464 5.317-25.95 5.221l-2.94-.023c-20.078-.3-37.256-7.322-51.81-21.227-5.657-6.05-9.656-11.19-9.875-19.687.189-4.057.812-7.553 2.438-11.313 12.054.778 23.762 3.796 35.375 7 31.571 8.52 65.195 12.267 97.625 7q2.332-.302 4.668-.59c12.517-1.604 24.312-4.609 36.332-8.41l2.597-.813c11.303-3.566 22.337-7.667 33.348-12.046C563.042 444 563.042 444 573 444"/><path fill="#a36868" d="M604.45 46.574c5.678-.597 8.646.774 13.112 4.301 11.198 10.107 22.348 21.984 23.754 37.648.624 20.488-6.338 41.202-20.316 56.477-10.341 9.8-22.769 16.458-37.242 16.352-7.102-.665-13.881-2.65-20.687-4.725a156 156 0 0 0-5.079-1.428c-5.155-1.704-6.917-4.224-9.43-9.012-8.153-17.957-5.688-37.81.758-55.89C552.486 82.306 556.631 75.683 562 69l1.906-2.531c10.383-12.243 25.29-17.243 40.543-19.895"/><path fill="#ed4746" d="M553 638c3.589 6.056 5.174 10.932 4 18-3.641 6.827-12.02 10.366-19 13-4.145 1.045-8.108 1.166-12.375 1.188l-3.836.042c-4.65-.282-8.922-.776-12.68-3.703l-1.359-1.59c-2.047-2.352-2.642-2.9-5.75-3.937l1 3c1.898 6.836 1.648 12.07-1.8 18.242-3.143 4.607-6.978 6.305-12.2 7.758-13.527 1.24-24.743-.849-35.8-9.129-4.034-3.431-7.508-6.795-9.2-11.871l-.664 2.598c-2.291 8.26-4.275 14.386-11.84 18.894-8.869 4.57-17.592 5.9-27.496 4.508-3.412-1.44-5.575-3.233-8-6l-2.312-2.437c-3.235-4.913-4.978-9.737-5.688-15.563l-1.75 2.625c-4.671 5.606-12.02 8.906-19.125 9.938-6.133-1.104-10.178-3.785-14.125-8.563-4.351-7.157-5.249-13.786-3.305-21.902 1.855-5.805 3.896-9.885 9.305-13.098 2.81-.371 4.93-.458 7.7-.27l2.31.09q2.508.1 5.016.23c4.693.242 9.39.388 14.087.548l3.085.11c13.056.446 26.114.435 39.177.417l3.818-.004c32.382-.048 64.702-.67 97.036-2.46 7.263-.401 14.493-.787 21.771-.661"/><path fill="#7e351a" d="M546.922 287.762 549 289l2.016 1.145c12.07 7.864 18.52 23.093 21.797 36.543 4.238 23.724 1.76 47.93-11.727 68.187-5.289 7.08-11.64 12.293-20.086 15.125-9.154 1.114-16.718-.411-24.34-5.59-10.88-8.797-16.084-21.27-19.66-34.41l-.564-1.991c-1.723-6.706-1.782-13.302-1.748-20.197.005-1.201.01-2.403.017-3.64.263-19.253 5.63-36.7 19.045-51.043 9.253-8.589 21.685-11.38 33.172-5.367M391.18 288.188C405.329 297.28 411.496 313.207 415 329c4.18 22.171 1.119 44.972-11 64.063-6.108 8.438-13.509 14.814-24 16.937-8.1 1.29-14.258-1.683-21-6-12.034-8.912-18.789-25.664-21.586-40.004-.748-5.754-.598-11.58-.601-17.371l-.038-3.578c-.01-6.638.381-12.662 2.225-19.047l.86-3.117c4.4-13.625 11.36-26.785 24.316-33.988 9.698-4.756 17.666-3.866 27.004 1.293"/><path fill="#020202" d="M120 505c3.812 3.107 5.372 6.667 6.977 11.191l.775 2.13c2.489 7.026 4.342 14.18 6.091 21.418 3.052 12.612 6.417 25.006 10.682 37.27C148.62 589.053 148.62 589.053 148 595c-4.512 5.643-14.115 10.237-21.176 11.34-2.043.526-2.043.526-3.133 2.77l-1.129 2.64c-2.93 6.82-7.991 10.753-13.812 15.125l-1.723 1.313a900 900 0 0 1-7.699 5.804c-9.53 7.196-13.408 14.565-16.766 25.82-1.35 4.106-3.025 6.556-6.562 9.188-4.609 1.676-8.358.816-12.816-.883C59.31 666.136 56.99 663.88 55 660c-2.817-9.151-1.804-17.745 0-27-6.834 8.963-12.273 17.988-17.114 28.156C33.974 669.294 30.624 675.917 23 681c-4.272.564-6.418.33-10.187-1.812-6.038-5.667-7.539-15.486-7.918-23.377q-.072-2.387-.135-4.775c-.207-7.256-.718-13.821-2.822-20.786-4.193-14.228-2.394-26.731 4.472-39.969 3.35-6.485 4.045-11.78 4.292-18.946.551-15.209 6.314-29.266 17.005-40.226 16.442-15.125 40.502-17.863 61.85-19.176 7.155-.547 11.802-1.942 17.966-5.652 3.964-2.05 8.167-2.484 12.477-1.281m-92.312 31.188c-8.635 10.527-13.888 22.973-13.75 36.625l.027 3.519L14 579l1.797-2.25L18 574l1.64-2.062c4.393-5.289 9.213-10.506 16.36-11.25l2 .312c-.062 1.813-.062 1.813-1 4-1.642.737-3.291 1.463-4.973 2.105C19.206 572.763 13.053 584.728 8 597l-1.328 3.18C2.734 610.635 2.688 622.287 6 633l2 1 .813-2.824C13.27 616.41 20.566 602.364 34 594h3v4c-1.687 1.64-1.687 1.64-4 3.25-9.702 7.212-15.542 15.076-21 25.75l-1.39 2.703c-5.374 11.732-3.093 27.197 1.265 38.985 1.396 3.488 2.763 5.51 6.125 7.312 3.011-.224 4.514-.493 6.63-2.702 3.558-5.712 6.494-11.536 9.245-17.673C39.568 643.341 46.699 633.87 56 624l1.574-1.7c2.15-2.253 3.407-3.294 6.426-4.3l-.627 1.848q-1.409 4.17-2.81 8.34l-.987 2.908-.947 2.822-.873 2.587c-2.334 7.704-2.901 15.231.252 22.768C59.9 662.567 62.678 664.34 66 666c4.093.609 4.093.609 8 0 3.818-4.473 4.838-8.723 5.875-14.312 3.363-15.722 14.292-24.958 26.68-34.583 3.531-3.04 6.908-6.632 8.445-11.105-.515-3.9-1.837-7.019-3.5-10.562C100.16 569.987 95.32 545.643 96 518c-22.44-.678-51.786.694-68.312 18.188"/><path fill="#521329" d="M573 443c17.18-.748 31.4 3.591 44.313 15.25 7.431 6.993 13.835 15.236 17.687 24.75l1.074 2.598c2.885 10.601 2.424 24.061-2.511 33.89-2.559 4.113-5.414 7.839-8.563 11.512l-1.937 2.625C617.567 539.953 610.64 544.943 604 550c-2.63-2.386-4.26-4.953-6.062-8-6.302-9.996-13.404-17.583-23.938-23l-1.809-1.14c-13.192-7.875-31.552-6.239-46.254-6.048q-3.063.024-6.126.042c-4.938.032-9.874.084-14.811.146v-1c1.067-.21 2.135-.422 3.234-.64 4.044-.802 8.084-1.623 12.122-2.448q2.6-.529 5.202-1.041C548.6 502.447 548.6 502.447 568 490l1.695-1.613c6.94-7.306 10.458-16.929 10.403-26.907l-.01-3.095-.025-3.197-.014-3.256q-.018-3.966-.049-7.932h-7z"/><path fill="#dbdcdd" d="M772 371c6.484 5.699 10.76 13.121 14.938 20.563l1.843 3.238q1.81 3.182 3.61 6.371a264 264 0 0 0 4.02 6.824c10.298 17.099 17.935 36.393 24.902 55.067l.822 2.192c1.532 4.27 2.37 8.263 2.865 12.745-7.11 6.111-15.345 10.668-24.992 10.424-3.9-.824-6.15-3.572-8.758-6.424l-1.81-1.9c-18.087-19.415-30.245-42.127-39.253-66.913l-1.13-3.106c-7.302-20.61-7.302-20.61-6.057-28.081 6.103-6.917 19.966-12.743 29-11"/><path fill="#da276c" d="M583.988 542.277c4.069 3.539 7.635 6.81 10.012 11.723-1.186 3.557-2.68 4.609-5.941 6.348-3.1.982-5.227.121-8.286-.75-15.167-3.269-29.372.664-42.14 8.836-4.595 3.112-8.493 6.833-12.363 10.793L523 581c-4.871-.742-9.36-3.336-13.805-5.385-15.866-7.134-35.441-7.115-51.73-1.2-4.606 2.107-8.817 4.572-13.012 7.425-2.453 1.16-2.453 1.16-4.668.43L438 581l-1.812-1.25C435 578 435 578 434.938 575.438c3.942-12.755 13.416-20.818 24.812-27 35.26-18.252 89.65-32.52 124.238-6.16"/><path fill="#f8c9ca" d="M347 19a302 302 0 0 1-3.219 7.84C333.02 52.858 335.256 89.077 346 115c2.92 6.527 6.03 13.045 10 19 .125 2.438.125 2.438-1 5-2.537 1.656-5.2 2.858-8 4l2-12-2.562-.25c-4.154-.906-6.794-2.584-10.438-4.75l-.396 1.649a1033 1033 0 0 1-1.854 7.476l-.621 2.594c-1.307 5.148-2.866 8.987-6.129 13.281l-2 3a105 105 0 0 1-8.125 3.125l-2.227.8c-12.905 4.477-26.645 4.75-39.39-.312-5.094-2.522-9.12-5.75-13.258-9.613l-2.11-1.836c-13.039-11.978-21.107-30.825-22.21-48.379-.621-16.046 5.137-27.522 15.66-39.433 2.16-2.224 4.304-4.335 6.66-6.352l1.523-1.375c3.213-2.646 5.483-3.978 9.711-3.816q2.265.264 4.516.629l2.4.332c6.29.953 12.078 2.515 17.85 5.23l2.313 1.055C307.54 58.7 314.46 66.17 321 74l.113-3.559c.317-8.288.831-16.45 2.262-24.629l.345-2.027c1.415-7.551 3.084-13.617 9.24-18.398C342.353 19 342.353 19 347 19m-99.437 54.938c-4.73 6.648-6.123 12.555-6.063 20.562l.015 2.658c.533 20.2 12.074 37.091 26.122 50.799 8.476 7.327 17.006 10.585 28.176 10.344 5.748-.543 9.268-2.192 13.156-6.465 9.253-11.643 10.436-22.292 9.031-36.836-2.497-13.707-9.965-25.674-19-36l-1.715-1.969c-6.586-7.067-15.11-12.317-24.8-13.437-10.86-.273-18.007 1.691-24.923 10.343"/><path fill="#571011" d="m358 640-1.242 1.723c-5.381 7.71-7.985 14.793-6.758 24.277 1.074 3.155 2.49 6.036 4 9l1 3c1.782 1.142 1.782 1.142 4 2l2.313 1.125c7.485 2.437 12.425-.121 19.113-3.52 2.803-1.502 2.803-1.502 4.574-4.605h2l1-3h1l.445 3.219c1.409 9.229 2.773 16.315 10.512 22.293 6.988 4.663 13.671 6.46 22.043 5.488 6.525-1.603 10.814-4.03 14.746-9.512C438 690 438 690 441 689c-.977 2.707-1.82 4.786-3.687 7-1.56 1.914-1.56 1.914-1.067 4.21.89 3.293 2.156 6.282 3.504 9.415 2.324 5.615 4.172 11.234 5.684 17.117l.641 2.47c2.173 8.518 3.987 17.103 5.72 25.72.529 2.624 1.067 5.246 1.605 7.869q.515 2.52 1.026 5.043l.483 2.357c.597 2.986 1.091 5.745 1.091 8.799 4.395-1.512 6.337-4.897 8.75-8.625.435-.664.87-1.329 1.32-2.013 12.335-19.232 21.684-41.306 25.157-63.901.762-3.41 1.734-5.645 3.773-8.461h1c.198 6.68-.214 12.893-1.562 19.438l-.533 2.598C488.36 743.491 475.817 768.184 459 788l-1.324 1.727c-3.15 4.08-7.056 7.913-11.676 10.273-2.246-.34-2.246-.34-4-1l-.594-3.023c-2.393-11.67-5.746-22.935-9.328-34.29-1.696-5.39-3.258-10.81-4.78-16.251C424.318 734.834 420.823 724.91 416 715l-1.41-3.36c-1.317-2.787-1.317-2.787-3.79-3.523l-2.488-.242c-8.651-1.319-13.87-4.576-19.546-11.281-2.861-4.203-4.385-8.732-5.766-13.594l-3.187 2.375c-7.02 5.23-15.172 6.388-23.758 5.227-8.34-1.975-15.394-6.252-20.055-13.602-3.117-8.415-2.427-15.842 1-24 1.761-2.905 3.781-5.434 6-8l2.25-3c4.075-2.964 7.872-2.426 12.75-2"/><path fill="#fcfcfc" d="m566.563 562.813 3.94-.043c3.184.21 4.861.533 7.497 2.23a405.2 405.2 0 0 1-99 36l-4.187.98c-3.596.79-7.178 1.439-10.813 2.02l-2.493.406c-13.408 2.105-26.646 2.869-40.195 2.844l-2.152-.002c-12.588-.04-25.148-.405-37.535-2.81l-2.266-.42A857 857 0 0 1 374 603c-.794-7.046.063-11.446 4.355-17.156 7.937-8.899 24.327-9.213 35.497-10.176 6.472-.205 11.998.097 17.148 4.332 2.263 2.516 4.168 5.16 6 8l2 3c3.522-.599 5.377-1.941 8.063-4.25 11.72-9.419 26.143-12.772 40.937-11.75 10.196 1.426 19.418 4.366 29 8 1.997.676 3.996 1.346 6 2 .643-.63 1.286-1.258 1.95-1.906 11.826-11.203 24.808-20.198 41.612-20.282"/><path fill="#f49343" d="M248 264a98 98 0 0 1 8.715 3.805c15.93 7.842 31.814 12.624 49.723 12.382l3.029-.019c6.882-.072 13.696-.345 20.533-1.168-7.047 18.038-20.186 29.348-37.39 37.633-6.935 2.875-13.134 4.246-20.61 4.367l-2.333.058c-12.647.288-25.16-.006-37.667-2.058-1.625-1.625-1.21-3.377-1.25-5.625.2-15.52 5.801-37.926 17.25-49.375"/><path fill="#8d1940" d="M531.67 513.703q2.295-.015 4.591-.044c17.76-.197 34.096 2.799 47.551 15.279C589.538 535.046 598 545.364 598 554l-4 2-.996-1.723c-7.78-12.627-20.84-19.609-35.039-23.143-18.34-3.8-37.954-1.518-55.965 2.866l-2.27.551c-18.52 4.668-48.206 12.894-58.782 30.167-2.208 3.995-4.122 8.1-5.948 12.282-2.406-.936-4.741-1.86-7.016-3.086-2.295-1.057-4.223-1.317-6.734-1.539l-2.422-.227L417 572c-.608-10.767.284-18.885 7.375-27.312C442.093 525.332 469.993 519.09 495 516l2.305-.312c11.427-1.522 22.85-1.906 34.366-1.985"/><path fill="#0c0b0c" d="M573 444h7c3.162 9.487 2.315 24.029-2 33-5.836 11.62-14.255 19.922-26.633 24.269l-2.054.668-2.227.74C535.017 506.47 522.41 508.62 510 511l3.31-.048c4.14-.055 8.28-.089 12.419-.117q2.662-.022 5.326-.061c21.912-.317 41.27 1.92 57.73 17.804 5.92 6.474 10.6 13.44 14.215 21.422l-5 3-1.434-2.93c-7.49-14.905-16.648-25.475-32.246-31.992-9.8-3.182-19.407-3.44-29.633-3.39l-2.317.005c-26.958.107-56.637 1.611-81.37 13.307l-2.234 1.051C435.9 535.194 424.622 541.18 419 555c-1.094 3.542-1.304 7.062-1.562 10.75l-.254 3.547L417 572l3.875-.375c7.004-.022 12.498 3.851 17.418 8.578L440 582c5.245-1.974 10.093-4.626 15.04-7.246 8.853-4.186 17.629-5.285 27.335-5.192l3.333.023c12.142.247 21.117 3.392 31.733 9.34 2.415 1.227 2.415 1.227 4.63.993 2.583-1.229 4.213-2.9 6.241-4.918 13.332-12.291 26.928-17.291 44.926-17.398 4.24.449 6.962 1.54 10.762 3.398-1.678 2.076-2.508 2.935-5.201 3.293l-2.553-.106-2.842-.07-5.851-.234C550.725 563.47 538.25 572.158 526 583a143 143 0 0 0-3 3c-3.067-1-6.104-2.04-9.121-3.184-18.777-7.1-36.054-9.282-55.063-2.09-5.412 2.448-11.414 5.542-15.378 10.051C442 592 442 592 440.016 591.988c-2.795-1.37-3.668-3.151-5.266-5.8-3.308-4.879-5.922-7.807-11.75-9.188-11.925-1.45-31.789-.046-42 7-5.259 5.4-6.765 10.604-7 18l-6-1c-.806-7.418 2.02-12.889 6.328-18.832 8.028-8.344 24.824-8.88 35.672-10.168l-.14-2.457c-.382-11.698 2.19-20.81 10.14-29.543l1.602-1.766c6.3-6.161 14.454-9.661 22.398-13.234l2.688-1.238c7.69-3.397 15.345-5.384 23.562-7.074l3.738-.8q4.503-.96 9.012-1.888l-3.059-.043c-14.392-.405-28.622-2.892-42.52-6.655-4.54-1.275-4.54-1.275-9.03-.325l-2.141 1.648c-14.223 9.712-34.392 10.386-50.98 7.727C356.75 512.709 339.355 502.177 328 487l-1.371-1.812c-4.115-6.607-3.677-16.24-2.11-23.641.16-.51.318-1.021.481-1.547h4c-.07 1.183-.14 2.367-.21 3.586-.403 9.658-.433 16.792 6.21 24.414l1.945 2.316c11.86 12.932 29.104 20.96 46.553 21.805 12.278.434 23.324.643 34.428-5.137l2.131-1.105q2.077-1.099 4.112-2.274c5.954-3.255 9.833-2.681 16.37-.921l2.086.753 2.102.747q2.495.896 4.988 1.798c11.163 3.459 23.317 3.422 34.91 3.393h2.24c11.621-.027 22.622-.956 33.93-3.82 2.16-.544 4.325-1.029 6.502-1.5 14.86-3.318 32.053-8.447 41.703-21.055 4.307-7.846 6.18-14.4 6.188-23.312l.037-2.225c.013-4.865-.682-8.847-2.225-13.463"/><path fill="#f7c8ca" d="M604.45 46.574c5.678-.597 8.646.774 13.112 4.301 11.198 10.107 22.348 21.984 23.754 37.648.624 20.488-6.338 41.202-20.316 56.477-10.341 9.8-22.769 16.458-37.242 16.352-7.102-.665-13.881-2.65-20.687-4.725a156 156 0 0 0-5.079-1.428c-5.155-1.704-6.917-4.224-9.43-9.012-8.153-17.957-5.688-37.81.758-55.89C552.486 82.306 556.631 75.683 562 69l1.906-2.531c10.383-12.243 25.29-17.243 40.543-19.895M576 83c-2.582 3.539-4.832 7.196-7 11l-1.402 2.36c-6.946 12.581-9.756 27.334-6.035 41.265 2.74 8.094 7.391 15.301 15.011 19.563 7.86 2.632 16.71 1.6 24.13-1.868 4.135-2.377 7.728-5.161 11.296-8.32l2.246-1.96C624.39 135.58 630.67 124.078 635 111l1.11-2.79c1.177-4.246 1.22-8.199 1.202-12.585l.05-2.46c.006-8.33-1.982-14.32-7.737-20.478l-2.273-2.488c-6.491-6.07-12.369-6.563-20.965-6.476C593.768 64.756 583.98 73.855 576 83"/><path fill="#f9f9f9" d="M393.563 265.625c19.14 13.782 26.76 34.577 30.906 56.898.3 2.17.445 4.288.531 6.477l.156 3.426C425.49 346.44 423.8 360.76 419 374c-1.096-3.33-.855-5.543-.09-8.937 4.58-23.317 1.014-47.114-11.91-67.063-6.788-9.279-14.698-14.708-26-17-8.684-1.217-16.137 1.768-23.187 6.75-13.515 10.963-21.024 28.1-22.813 45.25-1.01 21.27-1.01 21.27 3 42l1.066 3.328c4.278 12.142 11.179 24.767 22.934 31.047 3.89 1.744 7.839 2.733 12 3.625v1c-11.425-.05-20.811-5.008-28.98-12.824-16.675-17.965-22.915-44.266-22.336-68.215.657-13.634 3.437-27.614 9.316-39.961l1.559-3.32c6.287-12.517 15.315-22.746 28.253-28.618 10.617-3.453 22.453-1.218 31.75 4.563"/><path fill="#fafafa" d="M554.219 264.285c2.054 1.463 3.909 3.025 5.781 4.715l2.207 1.895c10.758 9.878 15.81 22.379 19.793 36.105l1.07 3.316c5.892 23.343 2.75 49.908-7.07 71.684l-1.266 2.82c-3.932 7.932-9.595 13.92-15.734 20.18l-2-1 1.54-1.73c17.008-20.036 19.105-45.046 17.46-70.27-2.016-15.755-9.035-32.269-21-43-8.861-6.771-17.97-8.28-29-7-13.52 4.69-21.433 14.143-27.809 26.508-5.709 12.727-7.734 24.915-7.628 38.867l.006 2.06c.052 10.732.707 20.524 5.272 30.381 2.25 4.909 2.25 4.909 1.159 8.184-9.244-17.38-14.142-35.244-13-55l.129-2.293c1.445-23.345 8.217-45.532 25.871-61.707 13.322-11.168 28.692-13.709 44.219-4.715"/><path fill="#ca6234" d="M203 289h1l.41 3.523c2.537 19.62 8.538 38.82 24.59 51.477 2 2 2 2 2.02 5.004L231 353c.42 3.34 1.044 6.634 1.688 9.938l.545 2.807c2.704 13.404 7.258 25.91 12.314 38.587A128 128 0 0 1 248 411c-6.802 1.127-13.404 2.143-20.312 1.938-4.743-.108-8.37.614-12.75 2.406C213 416 213 416 209 416c-14.587-89.407-14.587-89.407-6-127"/><path fill="#a67529" d="M444 682h2c1.227 1.758 1.227 1.758 2.625 4.125 4.304 6.628 9.909 11.144 17.547 13.414 8.392 1.368 17.517 1.084 25.828-.539-.515 26.937-14.836 60.1-33 80h-3l-1.574-7.102-.497-2.241a8823 8823 0 0 0-3.84-17.243l-.553-2.484a1342 1342 0 0 1-2.97-13.657c-2.433-11.367-5.002-23.24-10.804-33.453-1.009-2.41-.724-3.412.238-5.82a81 81 0 0 1 2.938-4.375c2.376-3.447 4.011-6.527 5.062-10.625"/><path fill="#c3223b" d="M554 444c-2.595 2.595-5.49 3.419-8.875 4.625a399 399 0 0 0-16.13 6.249C511.17 462.212 492.852 467.988 474 472q-2.5.592-5 1.188c-4.303.951-8.615 1.394-13 1.812l3 2c-33.362 3.238-65.997-.457-98.237-9.203C353.89 465.935 346.982 464.4 340 463v-2l-3-2c4.17-.787 8.117-1.13 12.359-1.145l3.768-.02 4.053-.003 4.24-.01q4.457-.009 8.913-.007 4.494 0 8.988-.02c14.439-.066 28.864-.093 43.273.982l2.852.191c7.427.655 13.152 2.99 19.53 6.766 2.969 1.57 2.969 1.57 6.098.676 2.886-1.39 5.449-2.947 8.113-4.723 8.135-4.79 16.641-6.72 25.813-8.687l3.47-.747c13.832-2.922 27.67-5.481 41.717-7.128l3.089-.364c6.925-.74 13.763-.886 20.724-.761"/><path fill="#533b32" d="M411 11c1.648 2.967 2.443 5.656 3 9l3-9c4.303 2.152 4.752 2.76 6.688 6.875l1.261 2.617C426 23 426 23 427 27l1-16c5.345 2.672 6.067 5.563 8 11 4.683 14.693 4.328 31.35 4.26 46.595-.01 2.902 0 5.804.013 8.706.008 11.7-.693 23.106-2.273 34.699-2.01-3.768-2.8-7.443-3.5-11.625l-.384-2.224C432.724 89.809 431.836 81.413 431 73l-.152 1.95c-1 12.727-2.1 25.401-3.848 38.05-9.313-9.313-9.732-33.444-11-46l-.076 3.13q-.144 5.823-.296 11.647-.065 2.505-.125 5.012c-.221 9.104-.473 18.154-1.503 27.211l-2-1c-.547-1.828-.547-1.828-.965-4.25l-.481-2.74-.491-3.01-.52-3.15c-.528-3.282-1.036-6.565-1.543-9.85l-.475-2.91c-2.27-14.143-2.834-28.17-2.9-42.465l-.024-2.556c-.167-23.01-.167-23.01 6.399-31.069"/><path fill="#dadbdc" d="m111.875 510.438 2.555-.254c3.651 1.16 4.59 3.252 6.427 6.509 1.804 3.64 3.222 7.334 4.518 11.182l.884 2.57c3.138 9.352 5.6 18.884 8.1 28.422 1.702 6.454 3.643 12.807 5.696 19.156 1.537 4.842 2.412 8.836 1.945 13.977-2.905 2.775-6.102 3.935-9.875 5.188l-3.055 1.042c-3.147.79-5.84.91-9.07.77-12.979-23.715-27.79-51.722-22.312-79.687 1.5-3.79 2.86-5.208 6.312-7.313 2.774-.925 4.976-1.355 7.875-1.562"/><path fill="#c41f3b" d="m584 566 2 1c-13.862 12.64-31.04 20.364-48 28l-2.022.924C490.353 616.59 437.572 626.248 388 617l-3.996-.691c-23.4-4.334-55.69-11.202-71.746-30.391C311 584 311 584 311 582c3.5 1.315 6.794 2.888 10.11 4.614C362.68 608.138 406.955 611.904 453 607l3.934-.379c3.045-.384 3.045-.384 4.977-2.085 3.532-2.597 7.6-2.97 11.839-3.786l2.633-.562c4.862-.964 8.533-1.104 13.468-.289 4.771.224 9.377-1.538 13.899-2.899l3.345-.975a439 439 0 0 0 27.31-9.073c2.78-1.02 5.57-2.013 8.36-3.007 11.715-4.226 22.977-8.968 34.101-14.579l2.751-1.374 2.425-1.239z"/><path fill="#f7c9cb" d="M495 9c9.841 1.905 19.642 4.276 25.969 12.586 2.37 3.983 3.512 7.707 4.656 12.164l.617 2.266c.62 2.32 1.195 4.649 1.758 6.984l.582 2.255c1.809 7.747 1.77 15.523 1.73 23.432l-.004 2.187c-.035 9.474-.381 18.84-1.558 28.251-.11.91-.218 1.82-.33 2.757-.939 6.458-2.483 11.772-7.787 16.009l-2.508 1.359-2.648 1.46L513 122l-3.5 1.875C507 125 507 125 505 125l.805-3.156 1.07-4.344.527-2.05c3.175-13.05 4.01-26.32 3.973-39.7v-2.164C511.338 61.692 510.308 50.463 507 39l-.583-2.081c-2.269-7.903-5.33-15.26-9.183-22.528C496 12 496 12 495 9"/><path fill="#533b32" d="m380 13 2 1-1.375 3.188c-4.121 11.146-3.987 23.148-3.937 34.875v2.387c.024 16.766 1.342 33.367 3.037 50.038.276 3.52.323 6.983.275 10.512-2.68-2.68-3.577-5.745-4.812-9.25l-.79-2.24c-2.122-6.251-3.746-12.576-5.21-19.01l-.627-2.747C367.33 76.114 366.646 70.816 366 65v35c-3.54-1.77-4.138-6.052-5.437-9.625l-.946-2.573c-2.67-7.5-4.383-14.942-5.617-22.802l-1 9c-6.516-6.516-7.43-14.689-7.5-23.562.165-11.943 3.219-18.684 11.379-27.504C359 21 359 21 362 20l-.937 2.25c-.875 2.262-1.506 4.4-2.063 6.75l.918-1.61c2.564-4.323 4.858-7.494 9.082-10.39l2 1-1 5 2.188-3.312c2.23-3.124 4.217-5.133 7.812-6.688"/><path fill="#533a31" d="M459 9c5.438.785 8.252 3.132 12 7 1.938 2.875 1.938 2.875 3 5l-3-9c5.887 1.472 9.567 4.874 12.938 9.875L485 24l-5-10c8.824 3.53 12.915 8.578 17 17 4.744 11.993 4.1 22.86-.906 34.613L495 68h-1l-1-14-.312 6c-.857 11.76-2.597 23.25-7.688 34h-1l-3-38-.75 11.75c-1.006 14.098-3.23 27.699-7.25 41.25h-1l-.062-1.681q-.332-8.836-.683-17.673-.127-3.278-.25-6.554c-.893-27.014-.893-27.014-4.817-53.717l-.503-2.474C464.302 20.521 462.199 14.716 459 9"/><path fill="#581112" d="M553 637c2.436.961 3.735 1.532 5.047 3.848 2.486 7.83 3.097 14.992.187 22.816-4.749 8.987-11.789 14.188-21.234 17.336-10.846.993-18.561.006-28-6l-.516 2.195c-2.22 8.86-5.209 14.27-12.484 19.805l-2 1-2 3v-2l-2.488.977c-9.145 2.665-20.395 2.118-29.145-1.645-6.195-3.486-10.91-8.139-14.367-14.332v-2h-2l-.375 2.875C443 688 443 688 441 690h-3l-.625 1.688c-3.013 5.067-7.69 7.989-13.18 9.804-8.054 1.863-14.991.4-22.195-3.492-5.699-3.648-9.568-8.667-12-15l1-2 1.066 1.574c4.836 7.077 4.836 7.077 11.934 11.426 11.092 1.264 21.105.502 30.375-6.25 5.436-5.695 7.283-12.124 8.625-19.75 2 1 2 1 3.688 4.188 4.781 8.564 13.617 12.896 22.632 15.93 8.56 2.053 19.06 2.405 26.977-1.84 3.64-2.73 5.297-6.06 6.703-10.278.172-5.157-.153-9.917-1-15 4.184.732 6.143 2.751 9.121 5.625 5.75 4.208 15.068 2.774 21.879 2.375 5.49-1.08 10.357-3.523 15.273-6.133C550 662 550 662 553 661c1.15-1.967 1.15-1.967 2-4l1-1c.71-6.885-.417-12.635-3-19"/><path fill="#523a31" d="m393 12 3 1-1.5 2.813c-1.713 3.052-1.713 3.052-1.5 6.187l1.207-1.68 1.606-2.195 1.582-2.18C399 14 399 14 402 12l3 1-.643 1.657c-3.325 10.015-2.811 20.233-2.732 30.656l.008 3.043c.051 16.624.948 33.085 2.509 49.63l.202 2.147.195 2.062c.535 5.944.616 11.842.461 17.805-2.947-4.42-4.273-9.29-5.937-14.312l-1.088-3.266C395.444 94.685 393.358 87.036 392 79l.092 1.813c.552 11.068 1.096 22.102.908 33.187-13.838-20.757-17.08-58.723-12.413-82.47C382.454 23.18 385.753 16.726 393 12"/><path fill="#533b32" d="M446 9c7.511 2.554 11.587 6.839 15.188 13.875C471.248 48.218 468.127 83.594 460 109c-2.358-3.536-2.288-5.186-2.379-9.383l-.103-3.785-.08-3.957q-.09-3.879-.192-7.758l-.072-3.48c.122-2.56.122-2.56-1.174-3.637l-.32 2.057c-3.558 22.812-3.558 22.812-5.305 31.88l-.664 3.465C449 117 449 117 447 119l-.062-2.212q-.298-10.476-.617-20.951-.164-5.382-.316-10.764c.001-38.472.001-38.472-10.005-75.073 6.488 1.168 9.159 3.737 13 9-.95-3.354-1.897-6.692-3-10"/><path fill="#3d2219" d="m341.875 16.938 2.086.013q2.52.02 5.039.049l-1 3-2.648.3c-6.574 1.372-12.265 5.51-16.852 10.325-4.917 11.063-5.56 23.44-6.062 35.375l-.131 2.926Q322.149 72.463 322 76a99 99 0 0 1-7.187-7.812c-11.875-13.532-27.012-18.773-44.504-20.04L268 48c1.312-3.937 3.698-5.088 7.063-7.187l1.886-1.191c18.988-11.749 42.272-22.97 64.926-22.684"/><path fill="#865153" d="M601 71c4.425 1.94 7.092 4.534 9.305 8.895 2.707 8.198.452 16.635-3.305 24.105-4.415 6.997-10.28 13.217-17.437 17.438-5.686 1.248-9.894 1.613-14.938-1.563-4.53-4.962-6.324-9.146-6.102-15.828C570.156 93.608 574.346 84.3 582 77l1.32-1.805C587.834 69.331 594.16 69.998 601 71M286 71c8.462 3.356 14.115 10.57 17.875 18.688A274 274 0 0 1 306 95l1.313 3.063c1.457 6.225 1.803 11.75-1.563 17.374-2.354 3.48-4.815 6.168-9.047 7.032-6.63.084-10.578-1.288-15.703-5.469l-1.805-1.398c-6.333-5.546-12.511-16.289-13.433-24.801-.184-6.159.527-10.769 4.238-15.801 4.822-4.592 9.65-4.962 16-4"/><path fill="#e364a0" d="M639.863 396.793c2.953 1.668 5.023 3.565 7.137 6.207l1.813 1.75c1.976 3.744 2.1 7.138 1.187 11.25-3.208 5.93-8.493 9.648-14.64 12.152-10.264 2.59-22.114 2.339-31.36-3.152-3.773-2.489-6.264-4.796-8-9-.724-4.26-.958-8.147 1.066-12.062 9.703-12.267 29.312-12.99 42.797-7.145M318 412.938c3.378 3.483 5.164 6.17 5.375 11.062-.256 5.458-2.627 8.458-6.5 12.125-8.6 6.894-19.29 7.032-29.875 5.875-6.334-1.463-10.816-3.929-15-9l-1.812-1.75c-1.938-3.67-1.789-7.2-1.188-11.25 2.665-6.179 8.104-9.21 14-12 11.736-3.252 24.826-1.633 35 4.938"/><path fill="#332212" d="M495 696h1c.198 6.68-.214 12.893-1.562 19.438l-.533 2.598C488.36 743.491 475.817 768.184 459 788l-1.324 1.727c-3.15 4.08-7.056 7.913-11.676 10.273-2.246-.34-2.246-.34-4-1l-.594-3.023c-2.393-11.67-5.746-22.935-9.328-34.29-1.696-5.39-3.258-10.809-4.78-16.251C424.312 734.81 420.713 724.977 416 715a595 595 0 0 1-3-7l9-2c3.984 5.478 7.198 11.098 10.125 17.188l.982 1.991c5.228 11.135 7.664 23.516 10.558 35.427.526 2.158 1.062 4.313 1.599 6.468 1.791 7.296 3.242 14.407 3.736 21.926 7.804-7.001 13.336-15.26 19-24l1.941-2.965c10.667-17.25 18.212-37.574 21.286-57.574.762-3.41 1.734-5.645 3.773-8.461"/><path fill="#b2b3b5" d="M785 383h2c1.594 1.95 1.594 1.95 3.5 4.688 2.655 3.76 5.355 7.424 8.229 11.023 12.12 15.271 19.919 32.933 26.182 51.285 1.82 5.326 3.883 10.512 6.109 15.684C832 468 832 468 833 471c10.578.77 17.54-3.988 25.5-10.5 11.696-9.57 23.77-12.95 38.707-14.112C910.19 445.364 927.46 442.957 937 433v-3c5.875 1.875 5.875 1.875 7 3-.153 3.974-.516 6.36-2.937 9.563-8.843 7.038-18.095 11.512-29.368 12.5l-2.315.234c-2.417.245-4.836.475-7.255.703-17.722 1.453-17.722 1.453-34 8.188l-3.02 1.832a434 434 0 0 0-12.609 8.378c-4.032 2.587-7.168 2.763-11.871 2.79l-3.398.042c-5.493-.392-5.493-.392-8.227-2.23-1.598-2.882-2.581-5.944-3.625-9.062a1040 1040 0 0 0-2.07-5.735l-1.115-3.06c-8.344-22.03-19.139-42.648-31.116-62.87-2.18-3.698-4.24-7.392-6.074-11.273"/><path fill="#523a31" d="M510 130c7.812 3.305 11.247 8.325 14.738 15.82 4.805 12.108 3.868 23.966-1.097 35.88-9.31 18.73-26.187 32.88-44.641 42.3l-2-1 1.836-1.434c18.78-14.821 36.298-31.543 39.687-56.406.246-3.059.42-6.092.477-9.16l-.629 2.79c-7.02 28.844-27.728 51.188-52.592 66.585-7.856 4.669-15.986 8.846-24.216 12.813l-1.882.92c-4.323 2.011-4.323 2.011-7.681.892l3.227-1.617c9.903-5.05 18.972-10.599 27.773-17.383l2.855-2.176C486.261 202.718 506.601 179.56 511 153c.658-7.525 1.02-15.678-1-23"/><path fill="#563d33" d="M417 109h1l.7 3.008c1.976 8.298 4.299 16.221 7.347 24.199C427 139 427 139 427 142l-1.61.408c-33.81 8.72-67.714 26.437-88.39 55.592l-1 2h-2l-.841 1.751c-1.122 2.178-2.355 4.185-3.698 6.233C319.073 224.007 309.867 240.742 304 259c-1.696-4.118-.25-7.81.938-11.875l.68-2.368C313.37 218.474 323.93 195.927 343 176l2.258-2.484c13.984-14.86 39.204-30.758 60.148-31.883 3.544-.062 7.06.09 10.594.367l-.016-2.276q-.029-5.144-.046-10.286l-.026-3.58c-.016-5.727.037-11.222 1.088-16.858"/><path fill="#f19143" d="M497 325h1l.078 2.832c.89 20.606 4.73 40.813 19.613 56.11 9.351 8.338 17.032 9.751 29.309 9.058 9.112-1.69 15.804-8.126 20.969-15.46L569 376l1 2a75 75 0 0 1-2.937 6.5l-.968 1.9C560.398 397.236 552.9 406.01 541 410c-9.154 1.114-16.718-.411-24.34-5.59-10.88-8.797-16.084-21.27-19.66-34.41l-.566-1.98c-1.763-6.812-1.73-13.519-1.684-20.52l-.023-3.55c.014-6.637.547-12.538 2.273-18.95"/><path fill="#f29243" d="M338 328h1l.297 3.629C341.134 352.34 345.486 372.754 362 387c7.643 5.326 14.753 7.388 24 6 9.663-2.028 16.917-7.436 22.734-15.363 1.16-1.836 2.226-3.73 3.266-5.637 1 2 1 2 .215 4.469-5.79 13.738-11.975 25.07-25.918 31.62-6.127 2.429-11.93 3.084-18.235.888-15.123-6.983-21.592-18.557-27.414-33.43-3.448-9.874-3.806-18.774-3.773-29.172l-.012-3.68.004-3.547.004-3.213c.121-2.754.506-5.254 1.129-7.935"/><path fill="#adafb1" d="M90 523h5l.113 3.559.2 4.879.068 2.314c.637 14.415 4.082 27.9 8.753 41.472a790 790 0 0 1 2.395 7.106l1.56 4.611.705 2.1c1.484 4.286 3.279 8.243 5.433 12.236C115 603 115 603 115 605.625c-3.526 8.375-10.345 13.44-17.148 19.191-9.213 7.847-14.822 14.356-17.547 26.207C77.617 662.481 77.617 662.481 74 666c-4.871.786-6.926.547-11.312-1.687C58.865 661.023 57 657.896 56 653c-.289-4.752-.195-9.37 1-14h1l.625 2.563c1.699 4.246 3.796 7.539 7.375 10.437 3.255.588 3.255.588 6 0l.629-1.512c1.08-2.517 2.22-5.002 3.371-7.488l1.332-2.965c4.173-8.547 9.645-14.784 16.266-21.527 7.905-7.484 7.905-7.484 11.656-17.262-.304-3.89-1.222-7.458-2.317-11.183l-.663-2.334c-1.582-5.507-3.275-10.977-4.979-16.447C92.207 554.866 89.5 540.232 90 523"/><path fill="#533b32" d="M357 106c3.069 3.71 5.074 7.863 7.25 12.125 5.205 11.468 5.205 11.468 13.75 19.875v2l2.379-.035c5.658-.049 11.05.022 16.621 1.035-3.194 2.13-5.834 2.95-9.5 4.063-32.944 10.576-58.931 32.504-76.61 62.019-1.1 2.019-1.1 2.019-.89 4.918-2 1.688-2 1.688-4 3 0-19.249 17.12-41.262 29.75-54.187 9.405-9.31 20.525-15.845 32.25-21.813l-1.766-3.293c-2.578-5.16-4.28-10.521-5.984-16.02l-.957-2.994C357 109.403 357 109.403 357 106"/><path fill="#d79293" d="M619.813 65.063c7.253 4.409 14.266 10.342 16.729 18.798 2.334 10.903 1.052 23.097-3.542 33.139l-1.543 3.488C627.921 128.17 623.677 134.74 618 141l-2.156 2.402c-7.187 7.605-15.55 13.709-26.176 15.004-7.085.191-12.092-.084-17.762-4.558-4.322-4.19-8.513-8.566-8.906-14.848 2.153 2.153 4.271 4.3 6.313 6.563 4.773 4.329 9.799 6.124 16.18 5.832 13.462-2.118 23.041-11.504 30.944-21.958C619.813 124.51 622.67 119.5 625 114l.969-2.215c2.06-5.578 2.336-11.024 2.406-16.91l.042-2.28c-.057-6.837-1.616-13.213-6.292-18.407l-1.43-1.645c-4.432-4.034-8.658-5.12-14.508-5.73l-2.1-.249A502 502 0 0 0 599 66c6.059-3.7 14.234-2.771 20.813-.937"/><path fill="#d79294" d="M278.445 65.031 280 66l-3 .227c-9.18.85-15.241 2.425-21.516 9.476-5.641 7.198-6.47 15.415-5.484 24.297 2.82 13.104 8.209 24.853 17 35l1.957 2.316c6.36 6.974 14.503 12.467 23.918 14.22 5.268.184 9.571-.787 14.125-3.536 2.528-2.523 4.763-5.22 7-8l2-2c-.95 6.28-4.118 11.416-8.848 15.656-6.794 4.962-12.99 4.997-21.152 4.344-7.54-1.77-13.28-5.936-19-11l-2.246-1.96c-11.894-11.091-22.223-28.275-23.125-44.747-.412-17.385-.412-17.385 5.371-25.293l1.688-2.75c7.925-7.711 18.951-11.776 29.757-7.219"/><path fill="#b1b3b5" d="M58 610c2.313 2.875 2.313 2.875 4 6l2 2-2.562 1c-4.522 2.63-7.178 5.968-10.438 10l-1.941 2.254c-8.341 9.908-14.046 21.206-19.27 32.973-4.36 9.652-4.36 9.652-9.227 11.898C18 676 18 676 15.375 674.063 11.677 669.293 10 665.04 10 659c4.642.627 4.642.627 6.563 2.625L18 663c2.138-.076 2.138-.076 4-1 1.337-2.673 1.15-4.886 1.25-7.875C24.428 638.141 34.592 623.793 46 613c4.179-2.858 6.883-3.837 12-3"/><path fill="#5b3e16" d="M434 698c2.232 3.348 3.76 6.81 5.313 10.5l.857 1.934c5.91 14.072 8.628 29.6 11.625 44.497.529 2.625 1.067 5.247 1.605 7.87q.515 2.52 1.026 5.043l.483 2.357c.597 2.986 1.091 5.745 1.091 8.799h2c-1.403 3.187-3.078 5.322-5.562 7.75l-1.88 1.86C449 790 449 790 448 790l-.288-2.865c-1.067-9.844-2.934-19.309-5.379-28.899a704 704 0 0 1-1.704-6.902c-3.183-12.829-7.385-25.072-14.004-36.584C423 708.383 423 708.383 423 705q1.904-.972 3.813-1.937l2.144-1.09C431 701 431 701 434 700z"/><path fill="#523a31" d="m564 26 2 1v2l8 3v1l10 2c-3 2-3 2-8 4h14c-2.624 1.75-4.136 2.421-7.062 3.25-10.708 3.453-19.73 10.017-25.625 19.563l-1.176 1.861C553.483 67.97 551.457 72.146 550 77c-1.31-4.304-.458-7.937.438-12.25.22-1.118.22-1.118.447-2.258Q551.433 59.744 552 57l-4 4 1-9-1 1-2 1 1-10-3 3c1.11-8.08 3.368-13.85 8.75-20 3.614-1.606 7.356-1.39 11.25-1"/><path fill="#b1b3b5" d="m747 379 .297 2.79c4.182 35.405 24.501 72.09 51.39 95.647 3.046 2.172 5.123 2.999 8.875 2.813 4.71-.993 8.874-2.996 12.438-6.25 1.065-2.49 1.065-2.49 1-5q.468-2.008 1-4c.533 1.58 1.051 3.164 1.563 4.75l.878 2.672c.596 2.75.71 4.025-.441 6.578-6.468 5.905-15.169 9.568-23.955 9.407-3.933-.783-6.174-3.54-8.795-6.407l-1.81-1.9c-18.087-19.415-30.245-42.127-39.253-66.913l-1.13-3.106c-7.088-20.006-7.088-20.006-6.057-28.081 2.226-3 2.226-3 4-3"/><path fill="#292222" d="M412.125 220.375C415 223 415 223 415.5 226.25 415 229 415 229 414 230c-4.956-.45-9.184-1.655-13.812-3.437-17.968-6.517-38.195-6.676-56.418-.461C341 227 341 227 337 227c1.043-3.272 2.068-4.04 5.09-5.816q1.913-.897 3.848-1.746c.672-.304 1.345-.608 2.039-.92 19.955-8.78 45.125-9.905 64.148 1.857"/><path fill="#acaeb0" d="m111 512-2.187 1.188c-4.429 2.826-4.429 2.826-7.813 6.812-1.689 9.886 1.204 19.592 4 29l1.027 3.543c2.527 8.102 5.741 15.856 9.098 23.644l1.31 3.046 1.26 2.872 1.126 2.568c1.195 2.359 2.448 4.328 4.179 6.327 4.403.67 8.49-.782 12.5-2.5 3.508-3.508 3.48-6.691 3.5-11.5 2.6 5.106 3.53 9.169 3 15-2.905 2.775-6.102 3.935-9.875 5.188l-3.055 1.042c-3.147.79-5.84.91-9.07.77-12.979-23.715-27.79-51.722-22.312-79.687 1.5-3.79 2.86-5.208 6.312-7.313 3.133-1.044 3.99-.934 7 0"/><path fill="#543c33" d="M312 27a609 609 0 0 1 6.313-.125l3.55-.07C325 27 325 27 328 29l-.812 3.438C325.083 41.878 323.578 51.46 322 61l-1.875-1.937Q318.565 57.528 317 56l-2.102-2.125C307.572 46.811 299.182 41.656 289 40v-1h15l-9-3v-1l2.152-.367 2.786-.508 2.777-.492L305 33l1-2c2.563-.625 2.563-.625 5-1z"/><path fill="#2c2423" d="M566.188 216.688c6.24 3.994 11.588 9.088 16.812 14.312.125 2.625.125 2.625 0 5-3.423-.584-4.996-1.7-7.437-4.125-9.725-8.832-21.179-13.273-34.188-13.312l-2.66-.012c-6.815.12-11.91 1.394-18.086 4.355-2.77 1.153-4.663 1.31-7.629 1.094l-1-5c16.885-11.805 36.141-12.372 54.188-2.312"/><path fill="#a12022" d="M352 645c1 2 1 2 .441 3.813l-.878 2.187c-2.423 6.998-2.66 13.105.375 19.938Q352.967 672.97 354 675l1 3c1.782 1.142 1.782 1.142 4 2l2.313 1.125c4.463 1.453 7.926 1.658 12.289-.281q2.656-1.378 5.261-2.848L381 677l2 1c-6.252 6.07-11.629 9.95-20.5 10.438-5.677-.235-10.043-2.192-14.227-6.016-3.91-4.276-7.074-8.806-7.402-14.77.472-9.243 5.11-15.945 11.129-22.652"/><path fill="#b1b3b5" d="m943 383 2 1c-.137 7.547-2.665 11.727-8 17-11.296 9.572-33.754 26-49 26v-3l2.149-1.218C920.903 407.473 920.903 407.473 943 383"/><path fill="#adafb1" d="M37 587c1 1 1 1 1.063 4.063L38 594l-2.5.063C26.798 596.393 21.466 604.65 17 612c-3.986 7.083-7.012 14.116-9 22l-2-1c-2.406-7.784-2.23-15.943-2-24h1l1 10 1.031-2.273c3.523-7.439 7.62-13.5 12.969-19.727l2.625-3.375c4.3-4.752 7.812-7.388 14.375-6.625"/><path fill="#a12022" d="M504 671h1c.5 6.78.416 12.53-4 18-8.71 7.336-17.016 7.666-28.005 7.18-4.242-.382-7.478-1.871-10.995-4.18l-2.066-1.285c-5.427-3.697-9.153-8.398-12.934-13.715l1-2 1.398 1.355c10.384 9.624 21.66 13.312 35.704 12.957 6.61-.53 10.923-2.084 15.336-7.062 1.81-3.764 2.717-7.166 3.562-11.25"/><path fill="#f9ab6a" d="M491 667c2.962 2.06 4.696 3.541 5.45 7.156.198 4.105-.113 6.305-2.325 9.844-2.521 2.373-3.497 2.93-6.937 3.313-3.919-.385-5.4-1.606-8.188-4.313-1.736-3.473-1.602-7.212-1-11 4.075-5.147 6.621-6.751 13-5"/><path fill="#a22122" d="M441 677h1c-.371 8.188-2.18 13.609-8.25 19.25-5.84 4.637-11.727 6.36-19.168 6.098C406.949 701.32 400.049 697.84 395 692c-1.952-2.872-3.752-5.751-5-9l1-2 1.066 1.574c4.836 7.077 4.836 7.077 11.934 11.426 11.092 1.264 21.105.502 30.375-6.25 3.135-3.284 4.874-6.599 6.625-10.75"/><path fill="#b4b5b7" d="M844 311c3.546 5.319 2.023 11.921 1 18-1.591 7.293-3.498 14.504-5.406 21.719A101 101 0 0 0 837 364c-1 1-1 1-3.437 1.25L831 365c-2.536-3.804-2.683-6.605-2-11 1.802-5.485 4.359-10.647 6.82-15.86l.938-1.99a380 380 0 0 1 1.83-3.81c2.674-5.58 4.467-11.107 5.037-17.277l.227-2.34z"/><path fill="#f9ab6b" d="M370 644c2.786 2.159 3.78 3.715 4.375 7.195.197 3.732.032 6.11-1.875 9.367-3.52 2.024-6.533 2.269-10.5 1.438-2.431-1.87-3.64-3.281-5-6-.486-4.293-.462-6.32 2-9.937 4.17-2.867 6.011-2.855 11-2.063"/><path fill="#aeb0b2" d="M39 549c.157 8.15.157 8.15-1 11-1.785.8-1.785.8-4.062 1.313-8.515 2.527-13.3 8.606-17.81 15.964L15 579h-1q-.04-3.094-.062-6.187l-.036-3.481c.086-2.925.42-5.495 1.098-8.332l2 3 2.703-2.773 3.547-3.602 1.777-1.828 1.739-1.758 1.587-1.619C31.79 549.456 34.5 548.75 39 549"/><path fill="#b1b3b5" d="M844 363c7.092 5.016 12.337 12.719 15 21 .886 8.05.317 14.12-4 21h-1l.063-2.719c-.2-12.107-4.407-20.958-10.836-31.07C842 369 842 369 842.25 366.25 843 364 843 364 844 363"/><path fill="#fcfaf9" d="M395 299c3.526 2.586 4.795 4.284 6 8.5 0 3.894-.604 5.483-3 8.5-2.889 1.444-4.796 1.377-8 1-3.195-2.414-4.707-4.14-6-7.937 0-3.781 1.004-5.884 3-9.063 2.889-1.444 4.796-1.377 8-1"/><path fill="#fdfcfb" d="M552.438 305.375C556 306 556 306 558.938 308c2.841 4.133 2.69 6.049 2.062 11-1.062 2.438-1.062 2.438-3 4-4.017 1.19-6.065 1.447-9.875-.375-2.977-3.677-3.533-6.944-3.125-11.625 1.97-4.023 3.024-4.823 7.438-5.625"/><path fill="#b0b1b3" d="m914 344 1 3c-3.945 7.517-10.216 13.873-16 20l-1.672 1.832C891.848 374.624 885.366 379.24 879 384l-2.207 1.797C875 387 875 387 872 387c1.415-4.816 4.282-7.52 7.938-10.75l1.756-1.587c4.467-4.003 9.079-7.815 13.744-11.585C902.58 357.286 908.61 351.485 914 344"/><path fill="#f6a769" d="M536 639c.599 5.987.599 5.987-1.043 8.766-2.745 3.316-4.494 5.039-8.77 5.609-4.21-.495-5.492-2.219-8.187-5.375l-1-1q-.062-3.5 0-7c6.374-.962 12.56-1.107 19-1"/><path fill="#121314" d="M840 368c3.38 1.053 4.144 2.23 6.07 5.3a259 259 0 0 1 2.055 4.012l1.05 2.014c.97 1.879 1.904 3.771 2.825 5.674l1.219 2.465c1.102 3.578 1.163 7.074 1.156 10.785l.002 2.283c-.117 5.935-.973 12.063-5.377 16.467-1.666.04-3.334.043-5 0 .61-4.147 2.103-7.286 4-11 3.265-11.015-.753-21.837-5.75-31.687l-1.297-2.387C840 370 840 370 840 368"/><path fill="#090909" d="M38 594c-.323 3.055-.584 4.595-2.82 6.773l-2.305 1.602c-9.892 7.33-15.947 15.724-20.918 26.988C11 631 11 631 8 632c3.864-15.319 11.5-28.499 24.176-38.172 2.325-1.055 3.47-.68 5.824.172"/><path fill="#f2c4c5" d="M417 109h1c.23.993.461 1.985.7 3.008 1.98 8.316 4.323 16.3 7.347 24.297C427 139 427 139 427 141h-10c-1.313-10.669-1.721-21.358 0-32"/><path fill="#efc1c3" d="M488 104h1c-.405 10.681-2.625 20.875-6 31-3.879 1.39-6.865 2-11 2q1.858-3.722 3.734-7.434c4.26-8.45 8.368-16.942 12.266-25.566"/><path fill="#a12123" d="m556 656 1 2c-2.866 6.763-7.528 10.826-13.992 13.969-7.16 2.832-15.468 3.477-22.84 1.129-2.127-.942-4.156-1.933-6.168-3.098 3.759-1.23 7.264-.995 11.188-.875 8.907.124 15.315-2.133 23.085-6.258C550 662 550 662 553 661c1.15-1.967 1.15-1.967 2-4z"/><path fill="#f9a869" d="M427 657c2.522 2.27 2.947 3.637 3.438 7-.438 3-.438 3-2.063 5.375C426 671 426 671 423 671.563c-3-.563-3-.563-5.437-2.625-2.049-3.851-1.79-5.797-.563-9.938 3.05-3.614 5.656-3.386 10-2"/><path fill="#efc1c2" d="M357 106c3.055 3.69 5.032 7.818 7.188 12.063 3.333 6.458 6.929 12.271 11.378 18.03C377 138 377 138 377 139l-10-1c-10-25.967-10-25.967-10-32"/><path fill="#f9ab6a" d="M395 642h13c.36 7.322.36 7.322-1.062 10-3.107 1.603-5.518 1.428-8.938 1-1.937-1.562-1.937-1.562-3-4-.187-3.75-.187-3.75 0-7"/><path fill="#f7aa69" d="M409 686c2.938 2.25 2.938 2.25 5 5v4c-6.693.476-10.775.4-16-4 2.466-5.461 5.085-5.602 11-5"/><path fill="#af6f3a" d="M390 681c2.122 2.059 4.013 4.206 5.875 6.5 4.87 5.631 8.795 6.842 16.113 7.387L414 695l-1 5c-3.62 1.207-5.42.482-8.879-.934-6.987-3.513-11.042-8.972-14.121-16.066z"/><path fill="#982a2a" d="m494 468 1 2c-14.255 3.33-28.262 6.541-43 6 3.1-1.75 5.8-2.427 9.313-2.937 8.876-1.38 17.763-2.953 26.437-5.313C491 467 491 467 494 468"/><path fill="#f9aa6a" d="M461 642h14c-1 6-1 6-3 8-6.121.556-6.121.556-8.875-1.187C462 647 462 647 461 642"/><path fill="#982b2b" d="M516 592c-2.336 2.712-4.29 3.637-7.71 4.605l-2.774.791-2.891.792-2.867.826c-4.395 1.231-8.164 2.144-12.758 1.986l1-3c2.36-.999 2.36-.999 5.46-1.86l3.368-.94 3.547-.95 3.523-.996c8.703-2.387 8.703-2.387 12.102-1.254"/><path fill="#f6aa69" d="M556 653c0 4 0 4-2.25 6.625-2.26 1.952-4.017 3.262-6.75 4.375-1.317-6.227-1.317-6.227 0-9.437 2.94-2.298 5.386-1.836 9-1.563"/><path fill="#9d3130" d="M345.288 461.132c6.878 1.411 13.641 3.09 20.4 4.993l3.029.84q3.643 1.01 7.283 2.035v2c-8.152-1.375-16.16-3.16-24.188-5.125l-3.462-.84q-4.176-1.013-8.35-2.035c3-2 3-2 5.288-1.868"/><path fill="#952b21" d="m269 481 3 2-1.68 3.148c-3.918 7.484-7.476 14.33-8.32 22.852l-.324 2.828A272 272 0 0 0 261 519h-1c-.627-14.402 2.602-25.162 9-38"/><path fill="#342c2b" d="M574 364c1.148 1.484 1.148 1.484 2 4a76 76 0 0 1-2.375 8.25l-.75 2.258A491 491 0 0 1 571 384h-3l-1-2c.67-1.91 1.351-3.816 2.102-5.695 1.22-3.13 2.229-6.32 3.25-9.52C573 365 573 365 574 364"/><path fill="#892522" d="M637 490c2 2 2 2 2.266 4.723-.048 10.28-1.161 20.122-6.266 29.277l-3 1c.924-2.383 1.847-4.708 3.035-6.973 4.295-8.736 3.804-18.492 3.965-28.027"/><path fill="#b8b9bb" d="m111 512-2.187 1.188c-3.245 2.09-5.451 3.729-7.813 6.812-.7 3.332-.927 6.6-1 10h-1a277 277 0 0 1-.312-6.75l-.176-3.797C99 516 99 516 101.332 513.61c3.68-2.22 5.602-2.87 9.668-1.609"/><path fill="#9a3130" d="M486 600v2c-12.485 3.444-12.485 3.444-19 3 4.666-5.39 12.306-5.285 19-5"/><path fill="#941e21" d="M473 472c-1.826 2.471-2.963 2.991-6 3.688-4.978.535-10 .393-15 .312 3.258-1.86 6.245-2.538 9.938-3.125l3.09-.508c2.698-.333 5.257-.437 7.972-.367"/><path fill="#ac6c39" d="m556 656 1 2c-.996 1.945-.996 1.945-2.437 4.125l-1.434 2.195L552 666l-5-1a91 91 0 0 1 4-4h2l.938-1.937C555 657 555 657 556 656"/><path fill="#9e3533" d="m462 604-2 3c-2.602.512-2.602.512-5.625.688l-3.04.199L449 608l-1-3a75.6 75.6 0 0 1 14-1"/><path fill="#471e2a" d="M520 509v3h-15v-1q2.342-.508 4.688-1l2.636-.562c2.613-.428 5.034-.514 7.676-.438"/><path fill="#3e251b" d="M456 68h1c.972 7.686 1.11 15.259 1 23h-1l-.184-2.047-.253-2.703-.247-2.672c-.243-2.51-.243-2.51-.878-4.61-.531-2.389-.32-4.298 0-6.718l.308-2.422z"/><path fill="#e7e6e6" d="m567 393 1 2a451 451 0 0 1-3.25 3.875l-1.828 2.18c-1.893 1.916-3.459 2.91-5.922 3.945 6.15-8.446 6.15-8.446 10-12"/><path fill="#a22525" d="M390 681c2.964 2.808 5.583 5.71 8 9-.36 2.191-.36 2.191-1 4-6.704-8.262-6.704-8.262-7-13"/><path fill="#a23938" d="m345.7 461.242 2.988.633 3.011.617L354 463c-3 2-3 2-5.7 1.758l-2.988-.633-3.011-.617L340 463c3-2 3-2 5.7-1.758"/><path fill="#e8853f" d="m519.188 607.938 2.73.59L524 609v1h-15c3.404-3.404 5.767-3.039 10.188-2.062"/><path fill="#962124" d="m476 602-2 3c-3.625.188-3.625.188-7 0 2.61-3.48 4.831-3.278 9-3"/><path fill="#a4512f" d="M203 289h1l1 12-3-1z"/><path fill="#795751" d="m273 42 2 1-3 3 4 2h-8c1.133-3.4 2.125-4.053 5-6"/><path fill="#9e3534" d="m494 468 1 2-7 1-1-3c3.01-.934 3.867-1.044 7 0"/><path fill="#413129" d="M669 256v2c-3.462 3-3.462 3-6 3l-1-3c4.75-2 4.75-2 7-2"/></svg>